{
.appVersion = "1032";
copyright = "Copyright (c) 2002-2011, David J. Perry (hospes02@scholarsfonts.net)";
customParameters = (
{
name = vendorID;
value = FSFS;
},
{
name = trademark;
value = "Cardo Italic is a trademark of David J. Perry.";
},
{
name = license;
value = "This Font Software is licensed under the SIL Open Font License, Version 1.1. This license is available with a FAQ at: http://scripts.sil.org/OFL";
},
{
name = licenseURL;
value = "http://scripts.sil.org/OFL";
},
{
name = fsType;
value = (
);
},
{
name = "Disable Last Change";
value = 1;
},
{
name = "Use Line Breaks";
value = 1;
}
);
date = "2011-02-27 00:10:12 +0000";
designer = "David J. Perry";
designerURL = "http://scholarsfonts.net";
disablesAutomaticAlignment = 1;
disablesNiceNames = 1;
familyName = Cardo;
featurePrefixes = (
{
code = "languagesystem grek dflt;
languagesystem latn dflt;
# GSUB 
lookup ligaStandardLigaturesinLatinloo {
  lookupflag 0;
    sub \\f \\f  by \\f_f;
    sub \\f \\i  by \\fi;
    sub \\f \\l  by \\fl;
    sub \\f \\f \\i  by \\f_f_i;
    sub \\f \\f \\l  by \\f_f_l;
    sub \\f \\j  by \\f_j;
} ligaStandardLigaturesinLatinloo;

lookup histHistoricalFormsinLatinlooku {
  lookupflag 0;
    sub \\s by \\longs ;
} histHistoricalFormsinLatinlooku;

lookup SingleSubstitutionlookup9 {
  lookupflag 0;
    sub \\longs by \\s ;
} SingleSubstitutionlookup9;

lookup sub_chain_histlatn_0 {
  lookupflag 0;
    sub [\\longs ]'lookup SingleSubstitutionlookup9  [\\space \\exclam \\comma \\period \\colon \\semicolon \\question \\nonbreakingspace ] ;
  subtable;
    sub [\\longs ]'lookup SingleSubstitutionlookup9  [\\b ] ;
  subtable;
    sub [\\longs ]'lookup SingleSubstitutionlookup9  [\\k ] ;
  subtable;
    sub [\\longs ]'lookup SingleSubstitutionlookup9  [\\f ] ;
  subtable;
    sub [\\f_f ] [\\longs ]'lookup SingleSubstitutionlookup9  ;
} sub_chain_histlatn_0;

lookup hligHistoricLigaturesinLatinloo {
  lookupflag 0;
    sub \\longs \\i  by \\longs_i;

glyphs = (
{
glyphname = A;
layers = (
{
layerId = "13B3CF59-E667-4601-B808-7467DBC8B37E";
paths = (
{
closed = 1;
nodes = (
"-20 12 QCURVE SMOOTH",
"-20 40 OFFCURVE",
"1 40 QCURVE SMOOTH",
"23 40 LINE SMOOTH",
"61 40 OFFCURVE",
"101 69 OFFCURVE",
"201 200 OFFCURVE",
"380 432 OFFCURVE",
"561 668 OFFCURVE",
"740 902 OFFCURVE",
"905 1117 OFFCURVE",
"1050 1306 OFFCURVE",
"1116 1392 OFFCURVE",
"1147 1417 OFFCURVE",
"1170 1417 QCURVE SMOOTH",
"1196 1417 LINE SMOOTH",
"1225 1417 OFFCURVE",
"1241 1386 OFFCURVE",
"1242 1363 QCURVE SMOOTH",
"1271 150 LINE SMOOTH",
"1273.63 65.946 OFFCURVE",
"1374 45.5 QCURVE SMOOTH",
"1401 40 OFFCURVE",
"1426 40 QCURVE SMOOTH",
"1470 40 LINE SMOOTH",
"1483 40 OFFCURVE",
"1483 25 QCURVE SMOOTH",
"1483 14 LINE SMOOTH",
"1483 0 OFFCURVE",
"1469 0 QCURVE SMOOTH",
"848 0 LINE SMOOTH",
"834 0 OFFCURVE",
"834 11 QCURVE SMOOTH",
"834 30 LINE SMOOTH",
"834 40 OFFCURVE",
"884 40 OFFCURVE",
"939 44 OFFCURVE",
"958.5 47.5 QCURVE SMOOTH",
"1030.46 60.416 OFFCURVE",
"1074 118 OFFCURVE",
"1082 143.5 QCURVE SMOOTH",
"1094 181.75 OFFCURVE",
"1094 252 QCURVE",
"1087 540 LINE",
"1087 558 LINE SMOOTH",
"1087 602 OFFCURVE",
"1034 602 QCURVE SMOOTH",
"632 602 LINE SMOOTH",
"591.933 602 OFFCURVE",
"567 568 QCURVE SMOOTH",
"516 499 OFFCURVE",
"411 365 OFFCURVE",
"347 280 OFFCURVE",
"321 244 OFFCURVE",
"310 225 QCURVE SMOOTH",
"285 181.818 OFFCURVE",
"285 96 OFFCURVE",
"360 40 OFFCURVE",
"421 40 QCURVE SMOOTH",
"470 40 LINE SMOOTH",
"483 40 OFFCURVE",
"483 29 QCURVE",
"478.844 4.067 OFFCURVE",
"468 0 OFFCURVE",
"458 0 QCURVE SMOOTH",
"-1 0 LINE SMOOTH",
"-20 0 OFFCURVE"
);
},
{
closed = 1;
nodes = (
"1083 727 QCURVE SMOOTH",
"1072 1175 LINE SMOOTH",
"1072 1202 OFFCURVE",
"1062.5 1201.5 QCURVE SMOOTH",
"1051.22 1200.91 OFFCURVE",
"1013 1149 OFFCURVE",
"933 1043 OFFCURVE",
"885 981.5 QCURVE SMOOTH",
"779.154 845.885 OFFCURVE",
"689 727 OFFCURVE",
"679 714 OFFCURVE",
"674 707 QCURVE SMOOTH",
"661 688.8 OFFCURVE",
"661 677 OFFCURVE",
"666 677 QCURVE SMOOTH",
"1035 677 LINE SMOOTH",
"1057 677 OFFCURVE",
"1083 704 OFFCURVE"
);
}
);
width = 1558;
}
);
unicode = 0041;
},
{
glyphname = Aringacute;
layers = (
{
layerId = "13B3CF59-E667-4601-B808-7467DBC8B37E";
paths = (
{
closed = 1;
nodes = (
"1077 1824 LINE",
"1077 1827 OFFCURVE",
"1080 1830 QCURVE SMOOTH",
"1306 2014 LINE",
"1333.69 2038 OFFCURVE",
"1386 2038 OFFCURVE",
"1416 2001 OFFCURVE",
"1416 1975.5 QCURVE SMOOTH",
"1416 1930.83 OFFCURVE",
"1352 1903 QCURVE SMOOTH",
"1099 1791 LINE SMOOTH",
"1099 1790 OFFCURVE",
"1091 1790 OFFCURVE",
"1089 1794 QCURVE SMOOTH"
);
},
{
closed = 1;
nodes = (
"1032 1600 QCURVE SMOOTH",
"1032 1660.42 OFFCURVE",
"1075 1704.5 QCURVE SMOOTH",
"1117.44 1748 OFFCURVE",
"1179 1748 QCURVE SMOOTH",
"1239 1748 OFFCURVE",
"1326 1661 OFFCURVE",
"1326 1600 QCURVE SMOOTH",
"1326 1538.44 OFFCURVE",
"1282.5 1496 QCURVE SMOOTH",
"1238.42 1453 OFFCURVE",
"1179 1453 QCURVE SMOOTH",
"1118 1453 OFFCURVE",
"1032 1539 OFFCURVE"
);
},
{
closed = 1;
nodes = (
"1088 1618 OFFCURVE",
"1088 1562 OFFCURVE",
"1140 1509 OFFCURVE",
"1197 1509 OFFCURVE",
"1230 1523 OFFCURVE",
"1242.5 1535.5 QCURVE SMOOTH",
"1270 1563 OFFCURVE",
"1270 1618 OFFCURVE",
"1255 1652 OFFCURVE",
"1242.5 1664.5 QCURVE SMOOTH",
"1215 1692 OFFCURVE",
"1159 1692 OFFCURVE",
"1126 1677 OFFCURVE",
"1102 1652 OFFCURVE"
);
},
{
closed = 1;
nodes = (
"-20 12 QCURVE SMOOTH",
"-20 40 OFFCURVE",
"1 40 QCURVE SMOOTH",
"23 40 LINE SMOOTH",
"61 40 OFFCURVE",
"101 69 OFFCURVE",
"201 200 OFFCURVE",
"380 432 OFFCURVE",
"561 668 OFFCURVE",
"740 902 OFFCURVE",
"905 1117 OFFCURVE",
"1050 1306 OFFCURVE",
"1116 1392 OFFCURVE",
"1147 1417 OFFCURVE",
"1170 1417 QCURVE SMOOTH",
"1196 1417 LINE SMOOTH",
"1225 1417 OFFCURVE",
"1241 1386 OFFCURVE",
"1242 1363 QCURVE SMOOTH",
"1271 150 LINE SMOOTH",
"1273.63 65.946 OFFCURVE",
"1374 45.5 QCURVE SMOOTH",
"1401 40 OFFCURVE",
"1426 40 QCURVE SMOOTH",
"1470 40 LINE SMOOTH",
"1483 40 OFFCURVE",
"1483 25 QCURVE SMOOTH",
"1483 14 LINE SMOOTH",
"1483 0 OFFCURVE",
"1469 0 QCURVE SMOOTH",
"848 0 LINE SMOOTH",
"834 0 OFFCURVE",
"834 11 QCURVE SMOOTH",
"834 30 LINE SMOOTH",
"834 40 OFFCURVE",
"884 40 OFFCURVE",
"939 44 OFFCURVE",
"958.5 47.5 QCURVE SMOOTH",
"1030.46 60.416 OFFCURVE",
"1074 118 OFFCURVE",
"1082 143.5 QCURVE SMOOTH",
"1094 181.75 OFFCURVE",
"1094 252 QCURVE",
"1087 540 LINE",
"1087 558 LINE SMOOTH",
"1087 602 OFFCURVE",
"1034 602 QCURVE SMOOTH",
"632 602 LINE SMOOTH",
"591.933 602 OFFCURVE",
"567 568 QCURVE SMOOTH",
"516 499 OFFCURVE",
"411 365 OFFCURVE",
"347 280 OFFCURVE",
"321 244 OFFCURVE",
"310 225 QCURVE SMOOTH",
"285 181.818 OFFCURVE",
"285 96 OFFCURVE",
"360 40 OFFCURVE",
"421 40 QCURVE SMOOTH",
"470 40 LINE SMOOTH",
"483 40 OFFCURVE",
"483 29 QCURVE",
"478.844 4.067 OFFCURVE",
"468 0 OFFCURVE",
"458 0 QCURVE SMOOTH",
"-1 0 LINE SMOOTH",
"-20 0 OFFCURVE"
);
},
{
closed = 1;
nodes = (
"1083 727 QCURVE SMOOTH",
"1072 1175 LINE SMOOTH",
"1072 1202 OFFCURVE",
"1062.5 1201.5 QCURVE SMOOTH",
"1051.22 1200.91 OFFCURVE",
"1013 1149 OFFCURVE",
"933 1043 OFFCURVE",
"885 981.5 QCURVE SMOOTH",
"779.154 845.885 OFFCURVE",
"689 727 OFFCURVE",
"679 714 OFFCURVE",
"674 707 QCURVE SMOOTH",
"661 688.8 OFFCURVE",
"661 677 OFFCURVE",
"666 677 QCURVE SMOOTH",
"1035 677 LINE SMOOTH",
"1057 677 OFFCURVE",
"1083 704 OFFCURVE"
);
}
);
width = 1457;
}
);
unicode = 01FA;
},
{
glyphname = AE;
layers = (
{
layerId = "13B3CF59-E667-4601-B808-7467DBC8B37E";
paths = (
{
closed = 1;
nodes = (
"2006 311 QCURVE SMOOTH",
"2006 298.6 OFFCURVE",
"1956 185 OFFCURVE",
"1922 79 OFFCURVE",
"1900 21 OFFCURVE",
"1874 0 OFFCURVE",
"1846 0 QCURVE SMOOTH",
"755 0 LINE SMOOTH",
"748 0 OFFCURVE",
"748 8 QCURVE",
"753 32 LINE",
"757 40 OFFCURVE",
"798 40 OFFCURVE",
"857 49 OFFCURVE",
"880 64 QCURVE SMOOTH",
"928.845 95.855 OFFCURVE",
"947 183 QCURVE SMOOTH",
"1029 567 LINE",
"608 567 LINE SMOOTH",
"566.933 567 OFFCURVE",
"516 499 OFFCURVE",
"473 442 OFFCURVE",
"452 414.5 QCURVE SMOOTH",
"402.364 349.5 OFFCURVE",
"346 278 OFFCURVE",
"316 232 OFFCURVE",
"304 207.5 QCURVE SMOOTH",
"277 152.375 OFFCURVE",
"277 114 QCURVE SMOOTH",
"277 40 OFFCURVE",
"373 40 QCURVE SMOOTH",
"434 40 LINE SMOOTH",
"446 40 OFFCURVE",
"446 29 QCURVE SMOOTH",
"446 14 LINE SMOOTH",
"446 0 OFFCURVE",
"426 0 QCURVE SMOOTH",
"-1 0 LINE SMOOTH",
"-20 0 OFFCURVE",
"-20 12 QCURVE SMOOTH",
"-20 22 LINE SMOOTH",
"-20 40 OFFCURVE",
"-5 40 QCURVE SMOOTH",
"23 40 LINE SMOOTH",
"63.818 40 OFFCURVE",
"104 74 OFFCURVE",
"155 139 OFFCURVE",
"258 274 OFFCURVE",
"383 438 OFFCURVE",
"525 623 OFFCURVE",
"670 813 OFFCURVE",
"813 1000 OFFCURVE",
"942 1168 OFFCURVE",
"1051 1308 OFFCURVE",
"1089 1357 QCURVE",
"1045.12 1370 OFFCURVE",
"983 1370 QCURVE SMOOTH",
"977 1370 OFFCURVE",
"977 1378 QCURVE",
"982 1402 LINE SMOOTH",
"984 1410 OFFCURVE",
"992 1410 QCURVE SMOOTH",
"2039 1410 LINE SMOOTH",
"2062 1410 OFFCURVE",
"2089 1401 OFFCURVE",
"2089 1378 OFFCURVE",
"2088 1366 OFFCURVE",
"2084 1341 QCURVE SMOOTH",
"2079.68 1313.98 OFFCURVE",
"2051 1103 QCURVE SMOOTH",
"2049 1089 OFFCURVE",
"2035.5 1089 QCURVE SMOOTH",
"2006.83 1089 OFFCURVE",
"2003 1112 QCURVE SMOOTH",
"2000 1127 OFFCURVE",
"2000 1166 OFFCURVE",
"1993 1217 OFFCURVE",
"1965 1282 OFFCURVE",
"1942 1305 QCURVE SMOOTH",
"1892 1355 OFFCURVE",
"1815 1355 QCURVE SMOOTH",
"1448 1355 LINE SMOOTH",
"1392.69 1355 OFFCURVE",
"1382.85 1347 QCURVE SMOOTH",
"1370.15 1336.68 OFFCURVE",
"1360 1290 QCURVE SMOOTH",
"1255 790 LINE SMOOTH",
"1253 782 OFFCURVE",
"1253 778 QCURVE SMOOTH",
"1253 753 OFFCURVE",
"1295 753 QCURVE SMOOTH",
"1662 753 LINE SMOOTH",
"1727.1 753 OFFCURVE",
"1788.5 800.5 QCURVE SMOOTH",
"1836.3 837.478 OFFCURVE",
"1868 896 QCURVE SMOOTH",
"1874.5 909 OFFCURVE",
"1885 909 QCURVE SMOOTH",
"1902 909 LINE SMOOTH",
"1911 909 OFFCURVE",
"1911 895 OFFCURVE",
"1910 895 OFFCURVE",
"1910 893 QCURVE SMOOTH",
"1830 520 LINE SMOOTH",
"1825.8 499 OFFCURVE",
"1810 499 QCURVE SMOOTH",
"1799 499 OFFCURVE",
"1792 506 OFFCURVE",
"1788 532 OFFCURVE",
"1787 566 OFFCURVE",
"1775 615 OFFCURVE",
"1748 651 OFFCURVE",
"1728.5 661 QCURVE SMOOTH",
"1695.35 678 OFFCURVE",
"1631 678 QCURVE SMOOTH",
"1270 678 LINE SMOOTH",
"1262 678 OFFCURVE",
"1232 664 OFFCURVE",
"1220 626 OFFCURVE",
"1213 589 OFFCURVE",
"1189 485 OFFCURVE",
"1159 333 OFFCURVE",
"1148 283.5 QCURVE SMOOTH",
"1133 216 OFFCURVE",
"1133 133 OFFCURVE",
"1166 88 OFFCURVE",
"1195 77 QCURVE SMOOTH",
"1264.61 50.595 OFFCURVE",
"1500.5 65 QCURVE SMOOTH",
"1631.24 72.984 OFFCURVE",
"1737 115 OFFCURVE",
"1768 136.5 QCURVE SMOOTH",
"1809.86 165.532 OFFCURVE",
"1906 264 OFFCURVE",
"1928 291 OFFCURVE",
"1939 302.5 QCURVE SMOOTH",
"1965.3 330 OFFCURVE",
"2006 330 OFFCURVE"
);
},
{
closed = 1;
nodes = (
"646 667 LINE",
"636 657 OFFCURVE",
"636 646.5 QCURVE SMOOTH",
"636 642 OFFCURVE",
"656 642 QCURVE SMOOTH",
"1008 642 LINE SMOOTH",
"1044 642 OFFCURVE",
"1051 670 QCURVE SMOOTH",
"1175 1250 LINE SMOOTH",
"1179 1264 OFFCURVE",
"1179 1300 OFFCURVE",
"1174 1317 OFFCURVE",
"1147 1317 OFFCURVE",
"1127 1296 OFFCURVE",
"1105 1268 QCURVE SMOOTH",
"667 696 LINE"
);
}
);
width = 2109;
}
);
unicode = 00C6;
},
{
glyphname = B;
layers = (
{
layerId = "13B3CF59-E667-4601-B808-7467DBC8B37E";
paths = (
{
closed = 1;
nodes = (
"653.5 -1 QCURVE SMOOTH",
"474.5 0 LINE",
"250.75 0 OFFCURVE",
"22 0 OFFCURVE",
"20 6 OFFCURVE",
"20 8 QCURVE SMOOTH",
"27 42 LINE",
"31 50 OFFCURVE",
"65 50 OFFCURVE",
"130 57 OFFCURVE",
"159 70 QCURVE SMOOTH",
"226.111 100.084 OFFCURVE",
"242 176 QCURVE SMOOTH",
"466 1231 LINE SMOOTH",
"471 1254.33 OFFCURVE",
"471 1307 OFFCURVE",
"448 1340 OFFCURVE",
"428 1347.5 QCURVE SMOOTH",
"400 1358 OFFCURVE",
"323 1358 QCURVE SMOOTH",
"255 1358 LINE SMOOTH",
"248 1358 OFFCURVE",
"248 1367 QCURVE",
"256 1400 LINE",
"256 1410 OFFCURVE",
"265 1410 QCURVE SMOOTH",
"840 1410 LINE SMOOTH",
"1151 1410 OFFCURVE",
"1264 1240.5 QCURVE SMOOTH",
"1305 1179 OFFCURVE",
"1305 1037 OFFCURVE",
"1263 951 OFFCURVE",
"1198 884 OFFCURVE",
"1123 835 OFFCURVE",
"1057 804 OFFCURVE",
"1011 788 OFFCURVE",
"1009 787 QCURVE",
"1265 627.711 OFFCURVE",
"1265 444 QCURVE SMOOTH",
"1265 252.844 OFFCURVE",
"1158 142.5 QCURVE SMOOTH",
"1018.85 -1 OFFCURVE",
"700 -1 QCURVE SMOOTH",
"676.75 -1 OFFCURVE"
);
},
{
closed = 1;
nodes = (
"566 769 LINE SMOOTH",
"542.826 769 OFFCURVE",
"535 733 QCURVE SMOOTH",
"507 603 OFFCURVE",
"469 424 OFFCURVE",
"444 307 OFFCURVE",
"430 241 OFFCURVE",
"426.5 225 QCURVE SMOOTH",
"422 204.429 OFFCURVE",
"422 165 OFFCURVE",
"464 109 OFFCURVE",
"498 88.5 QCURVE SMOOTH",
"568.488 46 OFFCURVE",
"748 46 OFFCURVE",
"899 106 OFFCURVE",
"954.5 159 QCURVE SMOOTH",
"1072 271.207 OFFCURVE",
"1072 449 QCURVE SMOOTH",
"1072 589.103 OFFCURVE",
"980.5 678.5 QCURVE SMOOTH",
"887.871 769 OFFCURVE",
"744 769 QCURVE SMOOTH"
);
},
{
closed = 1;
nodes = (
"564 874 LINE SMOOTH",
"563 870 OFFCURVE",
"563 860.5 QCURVE SMOOTH",
"563 836 OFFCURVE",
"591 832 QCURVE",
"655 826 OFFCURVE",
"814 826 OFFCURVE",
"968 872 OFFCURVE",
"1019.5 908.5 QCURVE SMOOTH",
"1123 981.854 OFFCURVE",
"1123 1084 QCURVE SMOOTH",
"1123 1273.1 OFFCURVE",
"988.5 1335.5 QCURVE SMOOTH",
"940 1358 OFFCURVE",
"811 1358 OFFCURVE",
"734 1357 OFFCURVE",
"709.5 1352.5 QCURVE SMOOTH",
"665.634 1344.44 OFFCURVE",
"658 1312 QCURVE SMOOTH"
);
}
);
width = 1306;
}
);
unicode = 0042;
},
{
glyphname = C;
layers = (
{
layerId = "13B3CF59-E667-4601-B808-7467DBC8B37E";
paths = (
{
closed = 1;
nodes = (
"1299 20 QCURVE",
"1216 32 LINE",
"1148.71 32 OFFCURVE",
"1074.35 10.5 QCURVE SMOOTH",
"934.292 -30 OFFCURVE",
"792 -30 OFFCURVE",
"617 -5 OFFCURVE",
"447 54 OFFCURVE",
"294 152 OFFCURVE",
"236 225 QCURVE SMOOTH",
"110 383.586 OFFCURVE",
"110 629 QCURVE SMOOTH",
"110 863.699 OFFCURVE",
"257 1061.5 QCURVE SMOOTH",
"390.97 1241.77 OFFCURVE",
"615 1348.5 QCURVE SMOOTH",
"832.248 1452 OFFCURVE",
"1060 1452 QCURVE SMOOTH",
"1186.57 1452 OFFCURVE",
"1413 1410 OFFCURVE",
"1464 1393 QCURVE SMOOTH",
"1581 1354 OFFCURVE",
"1581 1298 QCURVE SMOOTH",
"1581 1225 OFFCURVE",
"1520 1037 OFFCURVE",
"1500 993 OFFCURVE",
"1489 993 QCURVE SMOOTH",
"1469.09 993 OFFCURVE",
"1466 1010 QCURVE",
"1463 1061 OFFCURVE",
"1456 1162 OFFCURVE",
"1412 1248 OFFCURVE",
"1340 1315 OFFCURVE",
"1296 1339 QCURVE SMOOTH",
"1202.5 1390 OFFCURVE",
"1003 1390 OFFCURVE",
"801 1333 OFFCURVE",
"621 1229 OFFCURVE",
"469 1085 OFFCURVE",
"413.5 997.5 QCURVE SMOOTH",
"296 812.252 OFFCURVE",
"296 605 QCURVE SMOOTH",
"296 360 OFFCURVE",
"444.5 198 QCURVE SMOOTH",
"597.583 31 OFFCURVE",
"845 31 QCURVE SMOOTH",
"1004.48 31 OFFCURVE",
"1146 136 QCURVE SMOOTH",
"1270.05 228.038 OFFCURVE",
"1317 351 QCURVE SMOOTH",
"1324 370 OFFCURVE",
"1341 395 OFFCURVE",
"1357.5 395 QCURVE SMOOTH",
"1393 395 OFFCURVE",
"1393 378 QCURVE",
"1392 376 OFFCURVE",
"1391 367 OFFCURVE",
"1387 343 OFFCURVE",
"1378 298 OFFCURVE",
"1361 222 OFFCURVE",
"1336 109 OFFCURVE",
"1317 23 OFFCURVE",
"1306 20 OFFCURVE"
);
}
);
width = 1531;
}
);
unicode = 0043;
},
{
glyphname = Ccedilla;
layers = (
{
layerId = "13B3CF59-E667-4601-B808-7467DBC8B37E";
paths = (
{
closed = 1;
nodes = (
"1299 20 QCURVE",
"1216 32 LINE",
"1148.71 32 OFFCURVE",
"1074.35 10.5 QCURVE SMOOTH",
"934.292 -30 OFFCURVE",
"873 -30 QCURVE",
"853 -29 LINE",
"746 -154 LINE",
"817.702 -173.237 OFFCURVE",
"857 -228.5 QCURVE SMOOTH",
"886 -269.281 OFFCURVE",
"886 -305 QCURVE",
"869.538 -499.255 OFFCURVE",
"553 -532 QCURVE",
"497 -532 OFFCURVE",
"497 -489 QCURVE SMOOTH",
"497 -470 OFFCURVE",
"526 -460 OFFCURVE",
"573 -452 OFFCURVE",
"626 -442 OFFCURVE",
"681 -425 OFFCURVE",
"703 -411 QCURVE SMOOTH",
"753 -379.182 OFFCURVE",
"753 -324 QCURVE SMOOTH",
"753 -280.255 OFFCURVE",
"695.5 -246 QCURVE SMOOTH",
"652.741 -220.527 OFFCURVE",
"603 -215 QCURVE",
"757 -24 LINE",
"490.179 4.086 OFFCURVE",
"320 140.5 QCURVE SMOOTH",
"110 308.833 OFFCURVE",
"110 629 QCURVE SMOOTH",
"110 863.699 OFFCURVE",
"257 1061.5 QCURVE SMOOTH",
"390.97 1241.77 OFFCURVE",
"615 1348.5 QCURVE SMOOTH",
"832.248 1452 OFFCURVE",
"1060 1452 QCURVE SMOOTH",
"1186.57 1452 OFFCURVE",
"1413 1410 OFFCURVE",
"1464 1393 QCURVE SMOOTH",
"1581 1354 OFFCURVE",
"1581 1298 QCURVE SMOOTH",
"1581 1225 OFFCURVE",
"1520 1037 OFFCURVE",
"1500 993 OFFCURVE",
"1489 993 QCURVE SMOOTH",
"1469.09 993 OFFCURVE",
"1466 1010 QCURVE",
"1463 1061 OFFCURVE",
"1456 1162 OFFCURVE",
"1412 1248 OFFCURVE",
"1340 1315 OFFCURVE",
"1296 1339 QCURVE SMOOTH",
"1202.5 1390 OFFCURVE",
"1003 1390 OFFCURVE",
"801 1333 OFFCURVE",
"621 1229 OFFCURVE",
"469 1085 OFFCURVE",
"413.5 997.5 QCURVE SMOOTH",
"296 812.252 OFFCURVE",
"296 605 QCURVE SMOOTH",
"296 360 OFFCURVE",
"444.5 198 QCURVE SMOOTH",
"597.583 31 OFFCURVE",
"845 31 QCURVE SMOOTH",
"1004.48 31 OFFCURVE",
"1146 136 QCURVE SMOOTH",
"1270.05 228.038 OFFCURVE",
"1317 351 QCURVE SMOOTH",
"1324 370 OFFCURVE",
"1341 395 OFFCURVE",
"1357.5 395 QCURVE SMOOTH",
"1393 395 OFFCURVE",
"1393 378 QCURVE",
"1392 376 OFFCURVE",
"1391 367 OFFCURVE",
"1387 343 OFFCURVE",
"1378 298 OFFCURVE",
"1361 222 OFFCURVE",
"1336 109 OFFCURVE",
"1317 23 OFFCURVE",
"1306 20 OFFCURVE"
);
}
);
width = 1531;
}
);
unicode = 00C7;
},
{
glyphname = D;
layers = (
{
layerId = "13B3CF59-E667-4601-B808-7467DBC8B37E";
paths = (
{
closed = 1;
nodes = (
"235 1400 LINE",
"235 1410 OFFCURVE",
"245 1410 QCURVE SMOOTH",
"823 1410 LINE SMOOTH",
"1128.82 1410 OFFCURVE",
"1352.5 1277.5 QCURVE SMOOTH",
"1517.95 1179.49 OFFCURVE",
"1584.5 1016.5 QCURVE SMOOTH",
"1619 932 OFFCURVE",
"1619 720 OFFCURVE",
"1573 517 OFFCURVE",
"1473 333 OFFCURVE",
"1317 178 OFFCURVE",
"1206 121 QCURVE SMOOTH",
"970.368 0 OFFCURVE",
"622 0 QCURVE SMOOTH",
"7 0 LINE SMOOTH",
"0 0 OFFCURVE",
"0 8 QCURVE",
"7 42 LINE",
"11 50 OFFCURVE",
"45 50 OFFCURVE",
"110 57 OFFCURVE",
"139 70 QCURVE SMOOTH",
"206.111 100.084 OFFCURVE",
"222 176 QCURVE SMOOTH",
"447 1231 LINE SMOOTH",
"452 1254.33 OFFCURVE",
"452 1308 OFFCURVE",
"428 1341 OFFCURVE",
"407 1348.5 QCURVE SMOOTH",
"377.6 1359 OFFCURVE",
"298 1359 QCURVE SMOOTH",
"235 1359 LINE SMOOTH",
"228 1359 OFFCURVE",
"228 1367 QCURVE"
);
},
{
closed = 1;
nodes = (
"409 221 LINE SMOOTH",
"407 211 OFFCURVE",
"407 166 OFFCURVE",
"449 111 OFFCURVE",
"482.5 92 QCURVE SMOOTH",
"553.026 52 OFFCURVE",
"643 52 QCURVE SMOOTH",
"765.511 52 OFFCURVE",
"991 125 OFFCURVE",
"1131 201 OFFCURVE",
"1263 315 OFFCURVE",
"1314 396 QCURVE SMOOTH",
"1427 575.471 OFFCURVE",
"1427 831 QCURVE SMOOTH",
"1427 1200.84 OFFCURVE",
"1068.5 1318 QCURVE SMOOTH",
"924.68 1365 OFFCURVE",
"739 1365 QCURVE SMOOTH",
"694 1365 OFFCURVE",
"648 1344 OFFCURVE",
"641 1312 QCURVE SMOOTH"
);
}
);
width = 1619;
}
);
unicode = 0044;
},
{
glyphname = Eth;
layers = (
{
layerId = "13B3CF59-E667-4601-B808-7467DBC8B37E";
paths = (
{
closed = 1;
nodes = (
"235 1400 LINE",
"235 1410 OFFCURVE",
"245 1410 QCURVE SMOOTH",
"823 1410 LINE SMOOTH",
"1128.82 1410 OFFCURVE",
"1352.5 1277.5 QCURVE SMOOTH",
"1517.95 1179.49 OFFCURVE",
"1584.5 1016.5 QCURVE SMOOTH",
"1619 932 OFFCURVE",
"1619 720 OFFCURVE",
"1573 517 OFFCURVE",
"1473 333 OFFCURVE",
"1317 178 OFFCURVE",
"1206 121 QCURVE SMOOTH",
"970.368 0 OFFCURVE",
"622 0 QCURVE SMOOTH",
"7 0 LINE SMOOTH",
"0 0 OFFCURVE",
"0 8 QCURVE",
"7 42 LINE",
"11 50 OFFCURVE",
"45 50 OFFCURVE",
"110 57 OFFCURVE",
"139 70 QCURVE SMOOTH",
"206.111 100.084 OFFCURVE",
"222 176 QCURVE SMOOTH",
"328 675 LINE",
"140 675 LINE SMOOTH",
"118 675 OFFCURVE",
"118 695 QCURVE",
"124 725 LINE SMOOTH",
"129 750 OFFCURVE",
"146 750 QCURVE SMOOTH",
"344 750 LINE",
"447 1231 LINE SMOOTH",
"452 1254.33 OFFCURVE",
"452 1308 OFFCURVE",
"428 1341 OFFCURVE",
"407 1348.5 QCURVE SMOOTH",
"377.6 1359 OFFCURVE",
"298 1359 QCURVE SMOOTH",
"235 1359 LINE SMOOTH",
"228 1359 OFFCURVE",
"228 1367 QCURVE"
);
},
{
closed = 1;
nodes = (
"409 221 LINE SMOOTH",
"407 211 OFFCURVE",
"407 166 OFFCURVE",
"449 111 OFFCURVE",
"482.5 92 QCURVE SMOOTH",
"553.026 52 OFFCURVE",
"643 52 QCURVE SMOOTH",
"765.511 52 OFFCURVE",
"991 125 OFFCURVE",
"1131 201 OFFCURVE",
"1263 315 OFFCURVE",
"1314 396 QCURVE SMOOTH",
"1427 575.471 OFFCURVE",
"1427 831 QCURVE SMOOTH",
"1427 1200.84 OFFCURVE",
"1068.5 1318 QCURVE SMOOTH",
"924.68 1365 OFFCURVE",
"739 1365 QCURVE SMOOTH",
"694 1365 OFFCURVE",
"648 1344 OFFCURVE",
"641 1312 QCURVE SMOOTH",
"521 750 LINE",
"861 750 LINE SMOOTH",
"882 750 OFFCURVE",
"882 730 QCURVE",
"876 700 LINE SMOOTH",
"871 675 OFFCURVE",
"855 675 QCURVE SMOOTH",
"505 675 LINE"
);
}
);
width = 1619;
}
);
unicode = 00D0;
},
{
glyphname = E;
layers = (
{
layerId = "13B3CF59-E667-4601-B808-7467DBC8B37E";
paths = (
{
closed = 1;
nodes = (
"1257 311 QCURVE SMOOTH",
"1257 298.6 OFFCURVE",
"1207 185 OFFCURVE",
"1173 79 OFFCURVE",
"1151 21 OFFCURVE",
"1125 0 OFFCURVE",
"1097 0 QCURVE SMOOTH",
"7 0 LINE SMOOTH",
"0 0 OFFCURVE",
"0 8 QCURVE",
"5 32 LINE",
"9 40 OFFCURVE",
"50 40 OFFCURVE",
"109 49 OFFCURVE",
"132 64 QCURVE SMOOTH",
"180.845 95.855 OFFCURVE",
"199 183 QCURVE SMOOTH",
"242 384 OFFCURVE",
"307 689 OFFCURVE",
"356 913 OFFCURVE",
"389 1065 OFFCURVE",
"411 1165 OFFCURVE",
"423 1220 OFFCURVE",
"425.5 1235 QCURVE SMOOTH",
"429 1256 OFFCURVE",
"429 1299 OFFCURVE",
"390 1338 OFFCURVE",
"360.5 1349.5 QCURVE SMOOTH",
"307.913 1370 OFFCURVE",
"235 1370 QCURVE SMOOTH",
"229 1370 OFFCURVE",
"229 1378 QCURVE",
"234 1402 LINE SMOOTH",
"236 1410 OFFCURVE",
"244 1410 QCURVE SMOOTH",
"1290 1410 LINE SMOOTH",
"1313 1410 OFFCURVE",
"1340 1401 OFFCURVE",
"1340 1378 OFFCURVE",
"1339 1366 OFFCURVE",
"1335 1341 QCURVE SMOOTH",
"1330.68 1313.98 OFFCURVE",
"1302 1103 QCURVE SMOOTH",
"1300 1089 OFFCURVE",
"1286.5 1089 QCURVE SMOOTH",
"1257.83 1089 OFFCURVE",
"1254 1112 QCURVE SMOOTH",
"1251 1127 OFFCURVE",
"1251 1166 OFFCURVE",
"1244 1217 OFFCURVE",
"1216 1282 OFFCURVE",
"1193 1305 QCURVE SMOOTH",
"1143 1355 OFFCURVE",
"1066 1355 QCURVE SMOOTH",
"699 1355 LINE SMOOTH",
"643.692 1355 OFFCURVE",
"633.846 1347 QCURVE SMOOTH",
"621.149 1336.68 OFFCURVE",
"611 1290 QCURVE SMOOTH",
"506 790 LINE SMOOTH",
"504 782 OFFCURVE",
"504 778 QCURVE SMOOTH",
"504 753 OFFCURVE",
"546 753 QCURVE SMOOTH",
"913 753 LINE SMOOTH",
"978.098 753 OFFCURVE",
"1039.5 800.5 QCURVE SMOOTH",
"1087.3 837.478 OFFCURVE",
"1119 896 QCURVE SMOOTH",
"1125.5 909 OFFCURVE",
"1136 909 QCURVE SMOOTH",
"1153 909 LINE SMOOTH",
"1162 909 OFFCURVE",
"1162 895 OFFCURVE",
"1161 895 OFFCURVE",
"1161 893 QCURVE SMOOTH",
"1081 520 LINE SMOOTH",
"1076.8 499 OFFCURVE",
"1061 499 QCURVE SMOOTH",
"1050 499 OFFCURVE",
"1043 506 OFFCURVE",
"1039 532 OFFCURVE",
"1038 566 OFFCURVE",
"1026 615 OFFCURVE",
"999 651 OFFCURVE",
"979.5 661 QCURVE SMOOTH",
"946.35 678 OFFCURVE",
"882 678 QCURVE SMOOTH",
"521 678 LINE SMOOTH",
"513 678 OFFCURVE",
"483 664 OFFCURVE",
"471 626 OFFCURVE",
"464 589 OFFCURVE",
"440 485 OFFCURVE",
"410 333 OFFCURVE",
"399 283.5 QCURVE SMOOTH",
"384 216 OFFCURVE",
"384 133 OFFCURVE",
"417 88 OFFCURVE",
"446 77 QCURVE SMOOTH",
"488.182 61 OFFCURVE",
"686 61 OFFCURVE",
"817 69 OFFCURVE",
"915 86 OFFCURVE",
"988 115 OFFCURVE",
"1019 136.5 QCURVE SMOOTH",
"1060.86 165.532 OFFCURVE",
"1157 264 OFFCURVE",
"1179 291 OFFCURVE",
"1190 302.5 QCURVE SMOOTH",
"1216.3 330 OFFCURVE",
"1257 330 OFFCURVE"
);
}
);
width = 1360;
}
);
unicode = 0045;
},
{
glyphname = F;
layers = (
{
layerId = "13B3CF59-E667-4601-B808-7467DBC8B37E";
paths = (
{
closed = 1;
nodes = (
"503 779 QCURVE SMOOTH",
"503 753 OFFCURVE",
"544 753 QCURVE SMOOTH",
"914 753 LINE SMOOTH",
"1013.14 753 OFFCURVE",
"1087.5 845.5 QCURVE SMOOTH",
"1108 871 OFFCURVE",
"1126 909 OFFCURVE",
"1137 909 QCURVE SMOOTH",
"1148 909 LINE SMOOTH",
"1163 909 OFFCURVE",
"1163 899 QCURVE SMOOTH",
"1163 898 OFFCURVE",
"1162 894 OFFCURVE",
"1158 872 OFFCURVE",
"1148 826 OFFCURVE",
"1139.5 784.5 QCURVE SMOOTH",
"1084.4 515.46 OFFCURVE",
"1073 499 OFFCURVE",
"1050 499 OFFCURVE",
"1047 503.5 QCURVE SMOOTH",
"1040.55 513.169 OFFCURVE",
"1039 566 OFFCURVE",
"1027 615 OFFCURVE",
"1000 651 OFFCURVE",
"980.5 661 QCURVE SMOOTH",
"947.35 678 OFFCURVE",
"883 678 QCURVE SMOOTH",
"518 678 LINE SMOOTH",
"482.231 678 OFFCURVE",
"473 648 QCURVE SMOOTH",
"470 640 OFFCURVE",
"457 577 OFFCURVE",
"438 488 OFFCURVE",
"416 382 OFFCURVE",
"405 330.5 QCURVE SMOOTH",
"365 143.227 OFFCURVE",
"365 96 OFFCURVE",
"400 60 OFFCURVE",
"427 51.5 QCURVE SMOOTH",
"463.529 40 OFFCURVE",
"551 40 QCURVE SMOOTH",
"557 40 OFFCURVE",
"557 32 QCURVE",
"552 8 LINE SMOOTH",
"549.333 0 OFFCURVE",
"543 0 QCURVE SMOOTH",
"7 0 LINE SMOOTH",
"0 0 OFFCURVE",
"0 8 QCURVE",
"5 32 LINE",
"9 40 OFFCURVE",
"50 40 OFFCURVE",
"109 49 OFFCURVE",
"132 64 QCURVE SMOOTH",
"180.845 95.855 OFFCURVE",
"199 183 QCURVE SMOOTH",
"242 384 OFFCURVE",
"307 691 OFFCURVE",
"356 918 OFFCURVE",
"389 1074 OFFCURVE",
"410 1177 OFFCURVE",
"422 1233 OFFCURVE",
"424.5 1247 QCURVE SMOOTH",
"428 1266.6 OFFCURVE",
"428 1271 QCURVE SMOOTH",
"428 1370 OFFCURVE",
"236 1370 QCURVE SMOOTH",
"230 1370 OFFCURVE",
"230 1378 QCURVE",
"235 1402 LINE SMOOTH",
"237 1410 OFFCURVE",
"245 1410 QCURVE SMOOTH",
"1291 1410 LINE SMOOTH",
"1316 1410 OFFCURVE",
"1341 1404 OFFCURVE",
"1341 1381 OFFCURVE",
"1340 1377 QCURVE SMOOTH",
"1284 1114 LINE SMOOTH",
"1278.44 1089 OFFCURVE",
"1264 1089 QCURVE SMOOTH",
"1237.83 1089 OFFCURVE",
"1234 1112 QCURVE SMOOTH",
"1231 1127 OFFCURVE",
"1231 1166 OFFCURVE",
"1224 1217 OFFCURVE",
"1196 1282 OFFCURVE",
"1173 1305 QCURVE SMOOTH",
"1123 1355 OFFCURVE",
"1044 1355 QCURVE SMOOTH",
"705 1355 LINE SMOOTH",
"645.8 1355 OFFCURVE",
"634.4 1346 QCURVE SMOOTH",
"618.957 1333.81 OFFCURVE",
"607 1280 QCURVE SMOOTH",
"504 790 LINE SMOOTH",
"503 786 OFFCURVE"
);
}
);
width = 1351;
}
);
unicode = 0046;
},
{
glyphname = G;
layers = (
{
layerId = "13B3CF59-E667-4601-B808-7467DBC8B37E";
paths = (
{
closed = 1;
nodes = (
"1477 122 QCURVE SMOOTH",
"1495 122 OFFCURVE",
"1495 111 QCURVE SMOOTH",
"1495 76.682 OFFCURVE",
"1430 56 QCURVE SMOOTH",
"1316.28 18.092 OFFCURVE",
"1017 -15.5 QCURVE SMOOTH",
"914.545 -27 OFFCURVE",
"879 -27 QCURVE SMOOTH",
"536.78 -27 OFFCURVE",
"325 151.5 QCURVE SMOOTH",
"100 341.143 OFFCURVE",
"100 674 QCURVE SMOOTH",
"100 881.901 OFFCURVE",
"242.5 1069 QCURVE SMOOTH",
"373.59 1241.12 OFFCURVE",
"579 1347 QCURVE SMOOTH",
"782.7 1452 OFFCURVE",
"972 1452 QCURVE SMOOTH",
"1176.25 1452 OFFCURVE",
"1311 1431 OFFCURVE",
"1348.5 1422 QCURVE SMOOTH",
"1451.75 1397.22 OFFCURVE",
"1547 1358 OFFCURVE",
"1551.5 1352 QCURVE SMOOTH",
"1566.61 1331.85 OFFCURVE",
"1581 1134 OFFCURVE",
"1581 1036 OFFCURVE",
"1549 1036 OFFCURVE",
"1532 1045 OFFCURVE",
"1523 1062 OFFCURVE",
"1518 1084 OFFCURVE",
"1480 1167 OFFCURVE",
"1403 1282 OFFCURVE",
"1350.5 1322 QCURVE SMOOTH",
"1241.56 1405 OFFCURVE",
"1057 1405 QCURVE SMOOTH",
"869.882 1405 OFFCURVE",
"692 1297 QCURVE SMOOTH",
"519.568 1192.31 OFFCURVE",
"412.5 1021 QCURVE SMOOTH",
"301 842.6 OFFCURVE",
"301 648 QCURVE SMOOTH",
"301 377.12 OFFCURVE",
"434.5 211.5 QCURVE SMOOTH",
"575.964 36 OFFCURVE",
"838 36 QCURVE SMOOTH",
"1067.7 36 OFFCURVE",
"1175 105.5 QCURVE SMOOTH",
"1219 134 OFFCURVE",
"1229 180 QCURVE SMOOTH",
"1278 401 LINE SMOOTH",
"1281 413 OFFCURVE",
"1281 445 OFFCURVE",
"1258 478 OFFCURVE",
"1240 488.5 QCURVE SMOOTH",
"1203.14 510 OFFCURVE",
"1124 510 OFFCURVE",
"1124 546 OFFCURVE",
"1153 546 QCURVE SMOOTH",
"1212.75 546 OFFCURVE",
"1272.5 546 QCURVE SMOOTH",
"1467.5 545 LINE SMOOTH",
"1524.25 545 OFFCURVE",
"1614 545 OFFCURVE",
"1614 525 QCURVE SMOOTH",
"1614 510 OFFCURVE",
"1539 510 OFFCURVE",
"1480 457 OFFCURVE",
"1466 396 OFFCURVE",
"1452 329 OFFCURVE",
"1437 260 OFFCURVE",
"1423 193 OFFCURVE",
"1416 162 OFFCURVE",
"1416 156 QCURVE SMOOTH",
"1416 122 OFFCURVE"
);
}
);
width = 1625;
}
);
unicode = 0047;
},
{
glyphname = Gbar;
layers = (
{
layerId = "13B3CF59-E667-4601-B808-7467DBC8B37E";
paths = (
{
closed = 1;
nodes = (
"952 285 LINE SMOOTH",
"931 285 OFFCURVE",
"931 305 QCURVE SMOOTH",
"931 310 LINE",
"936 335 LINE SMOOTH",
"941 360 OFFCURVE",
"958 360 QCURVE SMOOTH",
"1269 360 LINE",
"1278 401 LINE SMOOTH",
"1281 413 OFFCURVE",
"1281 445 OFFCURVE",
"1258 478 OFFCURVE",
"1240 488.5 QCURVE SMOOTH",
"1203.14 510 OFFCURVE",
"1124 510 OFFCURVE",
"1124 546 OFFCURVE",
"1153 546 QCURVE SMOOTH",
"1212.75 546 OFFCURVE",
"1272.5 546 QCURVE SMOOTH",
"1467.5 545 LINE SMOOTH",
"1524.25 545 OFFCURVE",
"1614 545 OFFCURVE",
"1614 525 QCURVE SMOOTH",
"1614 510 OFFCURVE",
"1539 510 OFFCURVE",
"1480 457 OFFCURVE",
"1472 422 QCURVE SMOOTH",
"1459 360 LINE",
"1662 360 LINE SMOOTH",
"1683 360 OFFCURVE",
"1683 340 QCURVE SMOOTH",
"1683 335 LINE",
"1678 310 LINE SMOOTH",
"1673 285 OFFCURVE",
"1656 285 QCURVE SMOOTH",
"1443 285 LINE",
"1417 166 LINE SMOOTH",
"1416 162 OFFCURVE",
"1416 156 QCURVE SMOOTH",
"1416 122 OFFCURVE",
"1477 122 QCURVE SMOOTH",
"1495 122 OFFCURVE",
"1495 111 QCURVE SMOOTH",
"1495 76.682 OFFCURVE",
"1430 56 QCURVE SMOOTH",
"1316.28 18.092 OFFCURVE",
"1017 -15.5 QCURVE SMOOTH",
"914.545 -27 OFFCURVE",
"879 -27 QCURVE SMOOTH",
"536.78 -27 OFFCURVE",
"325 151.5 QCURVE SMOOTH",
"100 341.143 OFFCURVE",
"100 674 QCURVE SMOOTH",
"100 881.901 OFFCURVE",
"242.5 1069 QCURVE SMOOTH",
"373.59 1241.12 OFFCURVE",
"579 1347 QCURVE SMOOTH",
"782.7 1452 OFFCURVE",
"972 1452 QCURVE SMOOTH",
"1176.25 1452 OFFCURVE",
"1311 1431 OFFCURVE",
"1348.5 1422 QCURVE SMOOTH",
"1451.75 1397.22 OFFCURVE",
"1547 1358 OFFCURVE",
"1551.5 1352 QCURVE SMOOTH",
"1566.61 1331.85 OFFCURVE",
"1581 1134 OFFCURVE",
"1581 1036 OFFCURVE",
"1549 1036 OFFCURVE",
"1532 1045 OFFCURVE",
"1523 1062 OFFCURVE",
"1518 1084 OFFCURVE",
"1480 1167 OFFCURVE",
"1403 1282 OFFCURVE",
"1350.5 1322 QCURVE SMOOTH",
"1241.56 1405 OFFCURVE",
"1057 1405 QCURVE SMOOTH",
"869.882 1405 OFFCURVE",
"692 1297 QCURVE SMOOTH",
"519.568 1192.31 OFFCURVE",
"412.5 1021 QCURVE SMOOTH",
"301 842.6 OFFCURVE",
"301 648 QCURVE SMOOTH",
"301 377.12 OFFCURVE",
"434.5 211.5 QCURVE SMOOTH",
"575.964 36 OFFCURVE",
"838 36 QCURVE SMOOTH",
"1067.7 36 OFFCURVE",
"1175 105.5 QCURVE SMOOTH",
"1219 134 OFFCURVE",
"1229 180 QCURVE SMOOTH",
"1252 285 LINE"
);
}
);
width = 1625;
}
);
unicode = 01E4;
},
{
glyphname = uni021C;
layers = (
{
layerId = "13B3CF59-E667-4601-B808-7467DBC8B37E";
paths = (
{
closed = 1;
nodes = (
"317 1422 QCURVE SMOOTH",
"317 1364 OFFCURVE",
"359 1364 QCURVE SMOOTH",
"384 1364 OFFCURVE",
"437 1391 OFFCURVE",
"472.5 1407.5 QCURVE SMOOTH",
"568.242 1452 OFFCURVE",
"715 1452 OFFCURVE",
"801 1419 OFFCURVE",
"833 1390.5 QCURVE SMOOTH",
"901 1329.94 OFFCURVE",
"901 1241 QCURVE SMOOTH",
"901 1102.07 OFFCURVE",
"780 961.5 QCURVE SMOOTH",
"746 922 OFFCURVE",
"726.5 905 QCURVE SMOOTH",
"698 880.154 OFFCURVE",
"698 853 OFFCURVE",
"746 817 OFFCURVE",
"803 770 OFFCURVE",
"825.5 740 QCURVE SMOOTH",
"876 672.667 OFFCURVE",
"876 476 OFFCURVE",
"802 309 OFFCURVE",
"676 175 OFFCURVE",
"509 75 OFFCURVE",
"417 41.5 QCURVE SMOOTH",
"231.627 -26 OFFCURVE",
"46 -26 QCURVE SMOOTH",
"-2 -26 LINE SMOOTH",
"-25 -26 OFFCURVE",
"-25 -17.5 QCURVE SMOOTH",
"-25 37.769 OFFCURVE",
"4 40 QCURVE SMOOTH",
"240.752 54.349 OFFCURVE",
"454 178.5 QCURVE SMOOTH",
"608.006 268.161 OFFCURVE",
"672.5 401 QCURVE SMOOTH",
"706 470 OFFCURVE",
"706 600 OFFCURVE",
"672 665 OFFCURVE",
"645.5 685.5 QCURVE SMOOTH",
"595.732 724 OFFCURVE",
"523 724 QCURVE SMOOTH",
"479.6 724 OFFCURVE",
"428.3 697 QCURVE SMOOTH",
"331.4 646 OFFCURVE",
"292 646 OFFCURVE",
"292 672 QCURVE SMOOTH",
"292 685 OFFCURVE",
"361 720 OFFCURVE",
"456 777 OFFCURVE",
"550 848 OFFCURVE",
"636 929 OFFCURVE",
"669 975.5 QCURVE SMOOTH",
"741 1076.95 OFFCURVE",
"741 1266 OFFCURVE",
"649 1357 OFFCURVE",
"506 1357 OFFCURVE",
"401 1304 OFFCURVE",
"359.5 1261.5 QCURVE SMOOTH",
"278.309 1178.35 OFFCURVE",
"245 1054 QCURVE",
"240.2 1042 OFFCURVE",
"228 1042 QCURVE SMOOTH",
"179 1042 LINE SMOOTH",
"173 1042 OFFCURVE",
"173 1045 QCURVE SMOOTH",
"173 1049 OFFCURVE",
"175 1059 QCURVE SMOOTH",
"257 1446 LINE SMOOTH",
"258 1452 OFFCURVE",
"266 1452 QCURVE SMOOTH",
"313 1452 LINE SMOOTH",
"319 1452 OFFCURVE",
"317 1427 OFFCURVE"
);
}
);
width = 932;
}
);
unicode = 021C;
},
{
glyphname = H;
layers = (
{
layerId = "13B3CF59-E667-4601-B808-7467DBC8B37E";
paths = (
{
closed = 1;
nodes = (
"1409 1274 QCURVE SMOOTH",
"1409 1370 OFFCURVE",
"1239 1370 QCURVE SMOOTH",
"1233 1370 OFFCURVE",
"1233 1378 QCURVE",
"1238 1402 LINE SMOOTH",
"1240 1410 OFFCURVE",
"1248 1410 QCURVE SMOOTH",
"1769 1410 LINE SMOOTH",
"1775 1410 OFFCURVE",
"1775 1402 QCURVE",
"1770 1378 LINE SMOOTH",
"1768 1370 OFFCURVE",
"1725 1370 OFFCURVE",
"1665 1361 OFFCURVE",
"1641.5 1346 QCURVE SMOOTH",
"1592.24 1314.56 OFFCURVE",
"1574 1227 QCURVE SMOOTH",
"1348 160 LINE SMOOTH",
"1344 144 OFFCURVE",
"1344 96 OFFCURVE",
"1380 60 OFFCURVE",
"1408 51.5 QCURVE SMOOTH",
"1445.88 40 OFFCURVE",
"1530 40 QCURVE SMOOTH",
"1536 40 OFFCURVE",
"1536 32 QCURVE",
"1531 8 LINE SMOOTH",
"1528.33 0 OFFCURVE",
"1522 0 QCURVE SMOOTH",
"986 0 LINE SMOOTH",
"979 0 OFFCURVE",
"979 8 QCURVE",
"984 32 LINE",
"988 40 OFFCURVE",
"1029 40 OFFCURVE",
"1088 49 OFFCURVE",
"1111 64 QCURVE SMOOTH",
"1159.84 95.855 OFFCURVE",
"1201 289 OFFCURVE",
"1232 435 OFFCURVE",
"1253 532 OFFCURVE",
"1264 587 OFFCURVE",
"1266.5 601.5 QCURVE SMOOTH",
"1270 621.8 OFFCURVE",
"1270 627 QCURVE SMOOTH",
"1270 688 OFFCURVE",
"1218 688 QCURVE SMOOTH",
"555 688 LINE SMOOTH",
"504.674 688 OFFCURVE",
"486.5 612 QCURVE SMOOTH",
"475.073 564.212 OFFCURVE",
"423 316 OFFCURVE",
"403 222 OFFCURVE",
"392 168 OFFCURVE",
"389.5 154.5 QCURVE SMOOTH",
"386 135.6 OFFCURVE",
"386 98 OFFCURVE",
"422 61 OFFCURVE",
"449.5 52 QCURVE SMOOTH",
"486.167 40 OFFCURVE",
"571 40 QCURVE SMOOTH",
"577 40 OFFCURVE",
"577 32 QCURVE",
"572 8 LINE SMOOTH",
"569.333 0 OFFCURVE",
"563 0 QCURVE SMOOTH",
"27 0 LINE SMOOTH",
"20 0 OFFCURVE",
"20 8 QCURVE",
"25 32 LINE",
"29 40 OFFCURVE",
"70 40 OFFCURVE",
"129 49 OFFCURVE",
"152 64 QCURVE SMOOTH",
"200.845 95.855 OFFCURVE",
"219 183 QCURVE SMOOTH",
"446 1250 LINE SMOOTH",
"450 1266 OFFCURVE",
"450 1277 QCURVE SMOOTH",
"450 1370 OFFCURVE",
"284 1370 QCURVE SMOOTH",
"274 1370 OFFCURVE",
"274 1380 QCURVE",
"279 1402 LINE SMOOTH",
"281 1410 OFFCURVE",
"289 1410 QCURVE SMOOTH",
"810 1410 LINE SMOOTH",
"816 1410 OFFCURVE",
"816 1402 QCURVE",
"811 1378 LINE SMOOTH",
"809 1370 OFFCURVE",
"766 1370 OFFCURVE",
"706 1361 OFFCURVE",
"683 1346 QCURVE SMOOTH",
"634.155 1314.14 OFFCURVE",
"595 1124 OFFCURVE",
"564 982 OFFCURVE",
"544 887 OFFCURVE",
"533 834 OFFCURVE",
"527 808 OFFCURVE",
"526 804 QCURVE SMOOTH",
"523 792 OFFCURVE",
"523 786 QCURVE SMOOTH",
"523 764 OFFCURVE",
"554 764 QCURVE SMOOTH",
"1266 764 LINE SMOOTH",
"1302 764 OFFCURVE",
"1347 973 OFFCURVE",
"1375 1105 OFFCURVE",
"1393 1192 OFFCURVE",
"1403 1240 OFFCURVE",
"1405.5 1252.5 QCURVE SMOOTH",
"1409 1270 OFFCURVE"
);
}
);
width = 1626;
}
);
unicode = 0048;
},
{
glyphname = Hbar;
layers = (
{
layerId = "13B3CF59-E667-4601-B808-7467DBC8B37E";
paths = (
{
closed = 1;
nodes = (
"1409 1274 QCURVE SMOOTH",
"1409 1370 OFFCURVE",
"1239 1370 QCURVE SMOOTH",
"1233 1370 OFFCURVE",
"1233 1378 QCURVE",
"1238 1402 LINE SMOOTH",
"1240 1410 OFFCURVE",
"1248 1410 QCURVE SMOOTH",
"1769 1410 LINE SMOOTH",
"1775 1410 OFFCURVE",
"1775 1402 QCURVE",
"1770 1378 LINE SMOOTH",
"1768 1370 OFFCURVE",
"1725 1370 OFFCURVE",
"1665 1361 OFFCURVE",
"1641.5 1346 QCURVE SMOOTH",
"1592.24 1314.56 OFFCURVE",
"1574 1227 QCURVE SMOOTH",
"1555 1138 LINE",
"1720 1138 LINE SMOOTH",
"1741 1138 OFFCURVE",
"1741 1118 QCURVE",
"1735 1088 LINE SMOOTH",
"1730 1063 OFFCURVE",
"1714 1063 QCURVE SMOOTH",
"1539 1063 LINE",
"1348 160 LINE SMOOTH",
"1344 144 OFFCURVE",
"1344 96 OFFCURVE",
"1380 60 OFFCURVE",
"1408 51.5 QCURVE SMOOTH",
"1445.88 40 OFFCURVE",
"1530 40 QCURVE SMOOTH",
"1536 40 OFFCURVE",
"1536 32 QCURVE",
"1531 8 LINE SMOOTH",
"1528.33 0 OFFCURVE",
"1522 0 QCURVE SMOOTH",
"986 0 LINE SMOOTH",
"979 0 OFFCURVE",
"979 8 QCURVE",
"984 32 LINE",
"988 40 OFFCURVE",
"1029 40 OFFCURVE",
"1088 49 OFFCURVE",
"1111 64 QCURVE SMOOTH",
"1159.84 95.855 OFFCURVE",
"1201 289 OFFCURVE",
"1232 435 OFFCURVE",
"1253 532 OFFCURVE",
"1264 587 OFFCURVE",
"1266.5 601.5 QCURVE SMOOTH",
"1270 621.8 OFFCURVE",
"1270 627 QCURVE SMOOTH",
"1270 688 OFFCURVE",
"1218 688 QCURVE SMOOTH",
"555 688 LINE SMOOTH",
"504.674 688 OFFCURVE",
"486.5 612 QCURVE SMOOTH",
"475.073 564.212 OFFCURVE",
"423 316 OFFCURVE",
"403 222 OFFCURVE",
"392 168 OFFCURVE",
"389.5 154.5 QCURVE SMOOTH",
"386 135.6 OFFCURVE",
"386 98 OFFCURVE",
"422 61 OFFCURVE",
"449.5 52 QCURVE SMOOTH",
"486.167 40 OFFCURVE",
"571 40 QCURVE SMOOTH",
"577 40 OFFCURVE",
"577 32 QCURVE",
"572 8 LINE SMOOTH",
"569.333 0 OFFCURVE",
"563 0 QCURVE SMOOTH",
"27 0 LINE SMOOTH",
"20 0 OFFCURVE",
"20 8 QCURVE",
"25 32 LINE",
"29 40 OFFCURVE",
"70 40 OFFCURVE",
"129 49 OFFCURVE",
"152 64 QCURVE SMOOTH",
"200.845 95.855 OFFCURVE",
"219 183 QCURVE SMOOTH",
"406 1063 LINE",
"211 1063 LINE SMOOTH",
"190 1063 OFFCURVE",
"190 1083 QCURVE",
"195 1113 LINE SMOOTH",
"200 1138 OFFCURVE",
"217 1138 QCURVE SMOOTH",
"422 1138 LINE",
"446 1250 LINE SMOOTH",
"450 1266 OFFCURVE",
"450 1277 QCURVE SMOOTH",
"450 1370 OFFCURVE",
"284 1370 QCURVE SMOOTH",
"274 1370 OFFCURVE",
"274 1380 QCURVE",
"279 1402 LINE SMOOTH",
"281 1410 OFFCURVE",
"289 1410 QCURVE SMOOTH",
"810 1410 LINE SMOOTH",
"816 1410 OFFCURVE",
"816 1402 QCURVE",
"811 1378 LINE SMOOTH",
"809 1370 OFFCURVE",
"766 1370 OFFCURVE",
"706 1361 OFFCURVE",
"683 1346 QCURVE SMOOTH",
"634.155 1314.14 OFFCURVE",
"616 1227 QCURVE SMOOTH",
"597 1138 LINE",
"1382 1138 LINE",
"1409 1262.2 OFFCURVE"
);
},
{
closed = 1;
nodes = (
"523 786 LINE",
"523 764 OFFCURVE",
"554 764 QCURVE SMOOTH",
"1266 764 LINE SMOOTH",
"1302 764 OFFCURVE",
"1326 878 QCURVE SMOOTH",
"1366 1063 LINE",
"581 1063 LINE"
);
}
);
width = 1626;
}
);
unicode = 0126;
},
{
glyphname = I;
layers = (
{
layerId = "13B3CF59-E667-4601-B808-7467DBC8B37E";
paths = (
{
closed = 1;
nodes = (
"450 1275 QCURVE SMOOTH",
"450 1370 OFFCURVE",
"280 1370 QCURVE SMOOTH",
"274 1370 OFFCURVE",
"274 1378 QCURVE",
"279 1402 LINE SMOOTH",
"281 1410 OFFCURVE",
"289 1410 QCURVE SMOOTH",
"810 1410 LINE SMOOTH",
"816 1410 OFFCURVE",
"816 1402 QCURVE",
"811 1378 LINE SMOOTH",
"809 1370 OFFCURVE",
"766 1370 OFFCURVE",
"707 1361 OFFCURVE",
"683.5 1346 QCURVE SMOOTH",
"634.241 1314.56 OFFCURVE",
"616 1227 QCURVE SMOOTH",
"389 160 LINE SMOOTH",
"385 144 OFFCURVE",
"385 96 OFFCURVE",
"421 60 OFFCURVE",
"449 51.5 QCURVE SMOOTH",
"486.882 40 OFFCURVE",
"571 40 QCURVE SMOOTH",
"577 40 OFFCURVE",
"577 32 QCURVE",
"572 8 LINE SMOOTH",
"569.333 0 OFFCURVE",
"563 0 QCURVE SMOOTH",
"27 0 LINE SMOOTH",
"20 0 OFFCURVE",
"20 8 QCURVE",
"25 32 LINE",
"29 40 OFFCURVE",
"70 40 OFFCURVE",
"129 49 OFFCURVE",
"152.5 64 QCURVE SMOOTH",
"201.759 95.442 OFFCURVE",
"220 183 QCURVE SMOOTH",
"263 385 OFFCURVE",
"328 691 OFFCURVE",
"377 918 OFFCURVE",
"410 1073 OFFCURVE",
"432 1175 OFFCURVE",
"444 1231 OFFCURVE",
"446.5 1246 QCURVE SMOOTH",
"450 1267 OFFCURVE"
);
}
);
width = 667;
}
);
unicode = 0049;
},
{
glyphname = J;
layers = (
{
layerId = "13B3CF59-E667-4601-B808-7467DBC8B37E";
paths = (
{
closed = 1;
nodes = (
"-425 -608 QCURVE SMOOTH",
"-425 -539.158 OFFCURVE",
"-356 -521 QCURVE SMOOTH",
"-337 -516 OFFCURVE",
"-290 -516 OFFCURVE",
"-227 -531 OFFCURVE",
"-195.5 -540.5 QCURVE SMOOTH",
"-114.263 -565 OFFCURVE",
"-45 -565 OFFCURVE",
"9 -546 OFFCURVE",
"56 -485 OFFCURVE",
"101 -374 OFFCURVE",
"151 -190 OFFCURVE",
"211 78 OFFCURVE",
"290 450 OFFCURVE",
"391 938 OFFCURVE",
"462 1275 OFFCURVE",
"462 1316 OFFCURVE",
"438 1348 OFFCURVE",
"416 1356.5 QCURVE SMOOTH",
"381.059 1370 OFFCURVE",
"291 1370 QCURVE SMOOTH",
"285 1370 OFFCURVE",
"285 1378 QCURVE",
"290 1402 LINE SMOOTH",
"292 1410 OFFCURVE",
"300 1410 QCURVE SMOOTH",
"821 1410 LINE SMOOTH",
"827 1410 OFFCURVE",
"827 1402 QCURVE",
"822 1378 LINE SMOOTH",
"820 1370 OFFCURVE",
"777 1370 OFFCURVE",
"718 1361 OFFCURVE",
"694.5 1346 QCURVE SMOOTH",
"645.241 1314.56 OFFCURVE",
"627 1227 QCURVE SMOOTH",
"565 934 OFFCURVE",
"477 514 OFFCURVE",
"415 223 OFFCURVE",
"376 39 OFFCURVE",
"352 -74 OFFCURVE",
"337 -138 OFFCURVE",
"315 -227 OFFCURVE",
"268 -351 OFFCURVE",
"198 -464 OFFCURVE",
"104 -561 OFFCURVE",
"41.5 -596.5 QCURVE SMOOTH",
"-91.423 -672 OFFCURVE",
"-425 -672 OFFCURVE"
);
}
);
width = 678;
}
);
unicode = 004A;
},
{
glyphname = K;
layers = (
{
layerId = "13B3CF59-E667-4601-B808-7467DBC8B37E";
paths = (
{
closed = 1;
nodes = (
"1496 40 LINE SMOOTH",
"1505 40 OFFCURVE",
"1505 28 QCURVE SMOOTH",
"1505 10 LINE SMOOTH",
"1505 0 OFFCURVE",
"1492 0 QCURVE SMOOTH",
"1149 0 LINE",
"1136 16 OFFCURVE",
"1066 100 OFFCURVE",
"972 214 OFFCURVE",
"861 346 OFFCURVE",
"752 477 OFFCURVE",
"653 596 OFFCURVE",
"612 645 OFFCURVE",
"597 663 OFFCURVE",
"589 671 QCURVE SMOOTH",
"570 690 OFFCURVE",
"541 690 OFFCURVE",
"497 655 OFFCURVE",
"487 617 QCURVE",
"389 160 LINE SMOOTH",
"385 144 OFFCURVE",
"385 96 OFFCURVE",
"421 60 OFFCURVE",
"449 51.5 QCURVE SMOOTH",
"486.882 40 OFFCURVE",
"571 40 QCURVE SMOOTH",
"577 40 OFFCURVE",
"577 32 QCURVE",
"572 8 LINE SMOOTH",
"569.333 0 OFFCURVE",
"563 0 QCURVE SMOOTH",
"27 0 LINE SMOOTH",
"20 0 OFFCURVE",
"20 8 QCURVE",
"25 32 LINE",
"29 40 OFFCURVE",
"70 40 OFFCURVE",
"129 49 OFFCURVE",
"152 64 QCURVE SMOOTH",
"200.845 95.855 OFFCURVE",
"219 183 QCURVE SMOOTH",
"451 1271 LINE SMOOTH",
"453 1281 OFFCURVE",
"453 1311 OFFCURVE",
"414 1344 OFFCURVE",
"386.5 1353.5 QCURVE SMOOTH",
"338.737 1370 OFFCURVE",
"280 1370 QCURVE SMOOTH",
"274 1370 OFFCURVE",
"274 1378 QCURVE",
"279 1402 LINE SMOOTH",
"281 1410 OFFCURVE",
"289 1410 QCURVE SMOOTH",
"810 1410 LINE SMOOTH",
"816 1410 OFFCURVE",
"816 1402 QCURVE",
"811 1378 LINE SMOOTH",
"809 1370 OFFCURVE",
"766 1370 OFFCURVE",
"707 1361 OFFCURVE",
"683.5 1346 QCURVE SMOOTH",
"634.241 1314.56 OFFCURVE",
"592 1116 OFFCURVE",
"559 962 OFFCURVE",
"538 863 OFFCURVE",
"532.5 835.5 QCURVE SMOOTH",
"524.5 795.5 LINE SMOOTH",
"519.2 769 OFFCURVE",
"533 769 OFFCURVE",
"573 796 OFFCURVE",
"623 830 OFFCURVE",
"668 862 OFFCURVE",
"705 888 OFFCURVE",
"736 912 OFFCURVE",
"811 966 OFFCURVE",
"903 1032 OFFCURVE",
"1004 1104 OFFCURVE",
"1095 1169 OFFCURVE",
"1169 1221 OFFCURVE",
"1203 1245 OFFCURVE",
"1223 1261 OFFCURVE",
"1229 1270 QCURVE SMOOTH",
"1240 1286.5 OFFCURVE",
"1240 1351 OFFCURVE",
"1214 1370 OFFCURVE",
"1183 1370 QCURVE SMOOTH",
"1148 1370 LINE SMOOTH",
"1130 1370 OFFCURVE",
"1130 1383 QCURVE SMOOTH",
"1130 1399 LINE SMOOTH",
"1130 1410 OFFCURVE",
"1147 1410 QCURVE SMOOTH",
"1644 1410 LINE SMOOTH",
"1656 1410 OFFCURVE",
"1656 1399 QCURVE SMOOTH",
"1656 1382 LINE SMOOTH",
"1656 1370 OFFCURVE",
"1603 1370 OFFCURVE",
"1558 1361 OFFCURVE",
"1518 1346 OFFCURVE",
"1474 1326 OFFCURVE",
"1423 1306 OFFCURVE",
"1370 1278 OFFCURVE",
"1332.5 1254 QCURVE SMOOTH",
"1265.55 1211.15 OFFCURVE",
"1108 1094 OFFCURVE",
"1056 1056 OFFCURVE",
"984 1005 OFFCURVE",
"901 945 OFFCURVE",
"821 888 OFFCURVE",
"753 840 OFFCURVE",
"714 811 OFFCURVE",
"714 805.5 QCURVE SMOOTH",
"714 795.2 OFFCURVE",
"724 782.1 QCURVE SMOOTH",
"735.709 766.761 OFFCURVE",
"810 679 OFFCURVE",
"919 547 OFFCURVE",
"977 477.5 QCURVE SMOOTH",
"1142.51 279.171 OFFCURVE",
"1213 198 OFFCURVE",
"1265 135 OFFCURVE",
"1295.5 107 QCURVE SMOOTH",
"1368.48 40 OFFCURVE",
"1430 40 QCURVE SMOOTH"
);
}
);
width = 1556;
}
);
unicode = 004B;
},
{
glyphname = L;
layers = (
{
layerId = "13B3CF59-E667-4601-B808-7467DBC8B37E";
paths = (
{
closed = 1;
nodes = (
"20 12 QCURVE SMOOTH",
"20 40 OFFCURVE",
"77 40 OFFCURVE",
"133 49 OFFCURVE",
"155 64 QCURVE SMOOTH",
"199.534 94.364 OFFCURVE",
"218 183 QCURVE SMOOTH",
"275 451 OFFCURVE",
"353 821 OFFCURVE",
"404 1061 OFFCURVE",
"432 1193 OFFCURVE",
"438.5 1224.5 QCURVE SMOOTH",
"447 1265.69 OFFCURVE",
"447 1302 OFFCURVE",
"408 1340 OFFCURVE",
"379 1351 QCURVE SMOOTH",
"328.909 1370 OFFCURVE",
"254 1370 QCURVE SMOOTH",
"248 1370 OFFCURVE",
"248 1378 QCURVE",
"253 1402 LINE SMOOTH",
"255 1410 OFFCURVE",
"263 1410 QCURVE SMOOTH",
"850 1410 LINE SMOOTH",
"856 1410 OFFCURVE",
"856 1402 QCURVE",
"851 1378 LINE SMOOTH",
"849 1370 OFFCURVE",
"806 1370 OFFCURVE",
"734 1361 OFFCURVE",
"703.5 1346 QCURVE SMOOTH",
"634.747 1312.19 OFFCURVE",
"617 1227 QCURVE SMOOTH",
"577 1040 OFFCURVE",
"517 755 OFFCURVE",
"472 542 OFFCURVE",
"441 393 OFFCURVE",
"421 295 OFFCURVE",
"410 238 OFFCURVE",
"407.5 223 QCURVE SMOOTH",
"404 202 OFFCURVE",
"404 194 QCURVE SMOOTH",
"404 61 OFFCURVE",
"590 61 QCURVE SMOOTH",
"865.931 61 OFFCURVE",
"965.5 99.5 QCURVE SMOOTH",
"1036.33 126.888 OFFCURVE",
"1129 215 OFFCURVE",
"1176 264 OFFCURVE",
"1198 291 OFFCURVE",
"1209 302.5 QCURVE SMOOTH",
"1235.3 330 OFFCURVE",
"1276 330 OFFCURVE",
"1276 311 QCURVE SMOOTH",
"1276 298.6 OFFCURVE",
"1226 185 OFFCURVE",
"1192 79 OFFCURVE",
"1170 21 OFFCURVE",
"1144 0 OFFCURVE",
"1116 0 QCURVE SMOOTH",
"31 0 LINE SMOOTH",
"20 0 OFFCURVE"
);
}
);
width = 1286;
}
);
unicode = 004C;
},
{
glyphname = Lslash;
layers = (
{
layerId = "13B3CF59-E667-4601-B808-7467DBC8B37E";
paths = (
{
closed = 1;
nodes = (
"20 12 QCURVE SMOOTH",
"20 40 OFFCURVE",
"82 40 OFFCURVE",
"137 49 OFFCURVE",
"158 64 QCURVE SMOOTH",
"199.364 93.546 OFFCURVE",
"218 183 QCURVE SMOOTH",
"299 567 LINE",
"128 437 LINE",
"155 561 LINE",
"325 689 LINE",
"355 832 OFFCURVE",
"397 1027 OFFCURVE",
"424 1154 OFFCURVE",
"439 1225 OFFCURVE",
"443 1242.5 QCURVE SMOOTH",
"448 1264.38 OFFCURVE",
"448 1305 OFFCURVE",
"408 1342 OFFCURVE",
"379 1352.5 QCURVE SMOOTH",
"330.667 1370 OFFCURVE",
"254 1370 QCURVE SMOOTH",
"248 1370 OFFCURVE",
"248 1378 QCURVE",
"253 1402 LINE SMOOTH",
"255 1410 OFFCURVE",
"263 1410 QCURVE SMOOTH",
"850 1410 LINE SMOOTH",
"856 1410 OFFCURVE",
"856 1402 QCURVE",
"851 1378 LINE SMOOTH",
"849 1370 OFFCURVE",
"806 1370 OFFCURVE",
"734 1361 OFFCURVE",
"703.5 1346 QCURVE SMOOTH",
"634.747 1312.19 OFFCURVE",
"617 1227 QCURVE SMOOTH",
"537 848 LINE",
"879 1106 LINE",
"854 988 LINE",
"511 728 LINE",
"411 254 LINE SMOOTH",
"404 223 OFFCURVE",
"404 194 QCURVE SMOOTH",
"404 61 OFFCURVE",
"590 61 QCURVE SMOOTH",
"865.931 61 OFFCURVE",
"965.5 99.5 QCURVE SMOOTH",
"1036.33 126.888 OFFCURVE",
"1129 215 OFFCURVE",
"1176 264 OFFCURVE",
"1198 291 OFFCURVE",
"1209 302.5 QCURVE SMOOTH",
"1235.3 330 OFFCURVE",
"1276 330 OFFCURVE",
"1276 311 QCURVE SMOOTH",
"1276 298.6 OFFCURVE",
"1226 185 OFFCURVE",
"1192 79 OFFCURVE",
"1170 21 OFFCURVE",
"1144 0 OFFCURVE",
"1116 0 QCURVE SMOOTH",
"31 0 LINE SMOOTH",
"20 0 OFFCURVE"
);
}
);
width = 1286;
}
);
unicode = 0141;
},
{
glyphname = M;
layers = (
{
layerId = "13B3CF59-E667-4601-B808-7467DBC8B37E";
paths = (
{
closed = 1;
nodes = (
"1604 1142 QCURVE SMOOTH",
"1604 1153.5 LINE SMOOTH",
"1604 1161 OFFCURVE",
"1598.5 1161 QCURVE SMOOTH",
"1588.75 1161 OFFCURVE",
"1575 1139 QCURVE SMOOTH",
"891 68 LINE SMOOTH",
"871 36 OFFCURVE",
"831 0 OFFCURVE",
"789 0 OFFCURVE",
"776 12 OFFCURVE",
"772 20.5 QCURVE SMOOTH",
"767.59 29.872 OFFCURVE",
"744 181 OFFCURVE",
"700 457 OFFCURVE",
"655 741 OFFCURVE",
"609 1026 OFFCURVE",
"587 1168 OFFCURVE",
"584 1190 OFFCURVE",
"582 1200.5 QCURVE SMOOTH",
"577.143 1226 OFFCURVE",
"568 1226 OFFCURVE",
"559 1208 OFFCURVE",
"555.5 1197 QCURVE SMOOTH",
"547 1170.29 OFFCURVE",
"502 1000 OFFCURVE",
"411 657 OFFCURVE",
"356 449 OFFCURVE",
"332 367 OFFCURVE",
"324 332.5 QCURVE SMOOTH",
"308 263.5 OFFCURVE",
"308 218 QCURVE SMOOTH",
"308 109.795 OFFCURVE",
"369 58.5 QCURVE SMOOTH",
"391 40 OFFCURVE",
"463 40 OFFCURVE",
"463 26 QCURVE SMOOTH",
"463 13 LINE SMOOTH",
"463 0 OFFCURVE",
"423 0 QCURVE SMOOTH",
"39 0 LINE SMOOTH",
"20 0 OFFCURVE",
"20 21 QCURVE SMOOTH",
"20 34 OFFCURVE",
"33 40 OFFCURVE",
"56.5 49 QCURVE SMOOTH",
"107.743 68.625 OFFCURVE",
"173 140 QCURVE SMOOTH",
"213.535 185.039 OFFCURVE",
"238.5 294.5 QCURVE SMOOTH",
"246.616 330.085 OFFCURVE",
"311 565 OFFCURVE",
"329 631 QCURVE SMOOTH",
"370.25 782.25 OFFCURVE",
"393.625 872.625 QCURVE SMOOTH",
"445.506 1073.21 OFFCURVE",
"470 1158 OFFCURVE",
"475.5 1180.5 QCURVE SMOOTH",
"489 1235.73 OFFCURVE",
"489 1289 OFFCURVE",
"469 1330 OFFCURVE",
"452.5 1343.5 QCURVE SMOOTH",
"420.111 1370 OFFCURVE",
"371 1370 QCURVE SMOOTH",
"330 1370 LINE SMOOTH",
"313 1370 OFFCURVE",
"307 1382 OFFCURVE",
"307 1390 QCURVE SMOOTH",
"307 1409 OFFCURVE",
"330 1411 QCURVE",
"704 1411 LINE SMOOTH",
"735.65 1411 OFFCURVE",
"743 1362 QCURVE",
"747.167 1326.58 OFFCURVE",
"773 1177 OFFCURVE",
"814 916 OFFCURVE",
"855 655 OFFCURVE",
"894 401 OFFCURVE",
"915 278 OFFCURVE",
"920 266 OFFCURVE",
"924 266 QCURVE SMOOTH",
"932.333 266 OFFCURVE",
"939 276 QCURVE SMOOTH",
"1018 401 OFFCURVE",
"1196 679 OFFCURVE",
"1287.5 822 QCURVE SMOOTH",
"1487.24 1134.17 OFFCURVE",
"1648 1388 OFFCURVE",
"1670 1410 OFFCURVE",
"1690 1410 QCURVE SMOOTH",
"2007 1410 LINE SMOOTH",
"2024 1410 OFFCURVE",
"2032 1401 OFFCURVE",
"2032 1390 QCURVE SMOOTH",
"2032 1368 OFFCURVE",
"1907 1368 OFFCURVE",
"1873.5 1332.5 QCURVE SMOOTH",
"1837.3 1294.14 OFFCURVE",
"1811 1164.5 QCURVE SMOOTH",
"1804 1130 OFFCURVE",
"1797 1097 QCURVE SMOOTH",
"1780 1016.86 OFFCURVE",
"1780 1014 QCURVE SMOOTH",
"1608 201 LINE SMOOTH",
"1605 186 OFFCURVE",
"1605 147 OFFCURVE",
"1621 101 OFFCURVE",
"1635.5 83 QCURVE SMOOTH",
"1666.98 43.918 OFFCURVE",
"1714 40 QCURVE",
"1761 40 LINE SMOOTH",
"1790 40 OFFCURVE",
"1790 6 OFFCURVE",
"1768 0 OFFCURVE",
"1749 0 QCURVE SMOOTH",
"1210 0 LINE SMOOTH",
"1190 0 OFFCURVE",
"1190 14 QCURVE",
"1191 24 LINE",
"1191 40 OFFCURVE",
"1249 40 OFFCURVE",
"1308 68 OFFCURVE",
"1334 91 QCURVE SMOOTH",
"1390.84 141.285 OFFCURVE",
"1424 298 OFFCURVE",
"1465 488 OFFCURVE",
"1487 591 QCURVE SMOOTH",
"1543.06 853.484 OFFCURVE",
"1584 1043 QCURVE",
"1602 1130 LINE SMOOTH",
"1604 1138 OFFCURVE"
);
}
);
width = 1882;
}
);
unicode = 004D;
},
{
glyphname = N;
layers = (
{
layerId = "13B3CF59-E667-4601-B808-7467DBC8B37E";
paths = (
{
closed = 1;
nodes = (
"1418 192 OFFCURVE",
"1403 117 OFFCURVE",
"1389.52 45.565 OFFCURVE",
"1383 23 OFFCURVE",
"1372 1 OFFCURVE",
"1341 1 OFFCURVE",
"1314 25 OFFCURVE",
"1287 61 OFFCURVE",
"1262 102 OFFCURVE",
"1103 335 OFFCURVE",
"890 648 OFFCURVE",
"741 865 OFFCURVE",
"647 1002 OFFCURVE",
"591 1085 OFFCURVE",
"563 1126 OFFCURVE",
"554 1140 QCURVE SMOOTH",
"520.429 1187 OFFCURVE",
"509.714 1187 QCURVE SMOOTH",
"495.2 1187 OFFCURVE",
"486 1141 QCURVE SMOOTH",
"448 954 OFFCURVE",
"368 592 OFFCURVE",
"317 347 OFFCURVE",
"317 238 OFFCURVE",
"333 150 OFFCURVE",
"351 116 QCURVE SMOOTH",
"391.235 40 OFFCURVE",
"469 40 QCURVE SMOOTH",
"503 40 OFFCURVE",
"522 34 OFFCURVE",
"522 23 QCURVE SMOOTH",
"522 14 LINE SMOOTH",
"522 0 OFFCURVE",
"500 0 QCURVE SMOOTH",
"49 0 LINE SMOOTH",
"33 0 OFFCURVE",
"17 6 OFFCURVE",
"17 35 OFFCURVE",
"29 47 OFFCURVE",
"47 55 OFFCURVE",
"68 60 OFFCURVE",
"100 72 OFFCURVE",
"146 107 OFFCURVE",
"166 130 QCURVE SMOOTH",
"209.141 179.613 OFFCURVE",
"221 231 QCURVE SMOOTH",
"432 1225 LINE SMOOTH",
"434 1237 OFFCURVE",
"442 1266 OFFCURVE",
"442 1302 OFFCURVE",
"405 1337 OFFCURVE",
"378 1348.5 QCURVE SMOOTH",
"327.522 1370 OFFCURVE",
"247 1370 OFFCURVE",
"225 1375 OFFCURVE",
"225 1389 QCURVE SMOOTH",
"225 1403 OFFCURVE",
"243 1410 OFFCURVE",
"264 1410 QCURVE SMOOTH",
"515 1410 LINE SMOOTH",
"572.071 1410 OFFCURVE",
"589.036 1400.5 QCURVE SMOOTH",
"610.255 1388.62 OFFCURVE",
"640 1344 QCURVE SMOOTH",
"1333 326 LINE SMOOTH",
"1339 317 OFFCURVE",
"1354 294 OFFCURVE",
"1367 294 OFFCURVE",
"1373 321 OFFCURVE",
"1384 361 OFFCURVE",
"1393 410 OFFCURVE",
"1408 490 OFFCURVE",
"1440 638 OFFCURVE",
"1458.5 723 QCURVE SMOOTH",
"1499.87 913.091 OFFCURVE",
"1543 1116 OFFCURVE",
"1565 1209 OFFCURVE",
"1565 1243.5 QCURVE SMOOTH",
"1565 1311.55 OFFCURVE",
"1514 1352 QCURVE SMOOTH",
"1490.86 1370 OFFCURVE",
"1396 1370 QCURVE SMOOTH",
"1382 1370 OFFCURVE",
"1373 1386 OFFCURVE",
"1373 1393 QCURVE SMOOTH",
"1373 1410 OFFCURVE",
"1402 1410 QCURVE SMOOTH",
"1843 1410 LINE SMOOTH",
"1866 1410 OFFCURVE",
"1866 1370 OFFCURVE",
"1843 1370 QCURVE SMOOTH",
"1803 1370 LINE SMOOTH",
"1722.59 1370 OFFCURVE",
"1670 1300.5 QCURVE SMOOTH",
"1645.35 1267.92 OFFCURVE",
"1606 1074 OFFCURVE",
"1582 962 OFFCURVE",
"1551 815 OFFCURVE",
"1517 653 OFFCURVE",
"1481 485 OFFCURVE",
"1447 328 OFFCURVE"
);
}
);
width = 1716;
}
);
unicode = 004E;
},
{
glyphname = Eng;
layers = (
{
layerId = "13B3CF59-E667-4601-B808-7467DBC8B37E";
paths = (
{
closed = 1;
nodes = (
"857 -642 OFFCURVE",
"594 -642 OFFCURVE",
"594 -578 QCURVE SMOOTH",
"594 -509.158 OFFCURVE",
"663 -491 QCURVE SMOOTH",
"682 -486 OFFCURVE",
"729 -486 OFFCURVE",
"792 -501 OFFCURVE",
"823.5 -510.5 QCURVE SMOOTH",
"904.737 -535 OFFCURVE",
"993 -535 OFFCURVE",
"1077 -518 OFFCURVE",
"1143 -473 OFFCURVE",
"1195 -394 OFFCURVE",
"1218 -331.5 QCURVE SMOOTH",
"1257.17 -225.057 OFFCURVE",
"1312 28 QCURVE",
"1295 47 OFFCURVE",
"1264 98 OFFCURVE",
"1103 335 OFFCURVE",
"890 648 OFFCURVE",
"741 865 OFFCURVE",
"647 1002 OFFCURVE",
"591 1085 OFFCURVE",
"563 1126 OFFCURVE",
"554 1140 QCURVE SMOOTH",
"520.429 1187 OFFCURVE",
"509.714 1187 QCURVE SMOOTH",
"495.2 1187 OFFCURVE",
"486 1141 QCURVE SMOOTH",
"448 954 OFFCURVE",
"368 592 OFFCURVE",
"317 347 OFFCURVE",
"317 238 OFFCURVE",
"333 150 OFFCURVE",
"351 116 QCURVE SMOOTH",
"391.235 40 OFFCURVE",
"469 40 QCURVE SMOOTH",
"503 40 OFFCURVE",
"522 34 OFFCURVE",
"522 23 QCURVE SMOOTH",
"522 14 LINE SMOOTH",
"522 0 OFFCURVE",
"500 0 QCURVE SMOOTH",
"49 0 LINE SMOOTH",
"33 0 OFFCURVE",
"17 6 OFFCURVE",
"17 35 OFFCURVE",
"29 47 OFFCURVE",
"47 55 OFFCURVE",
"68 60 OFFCURVE",
"100 72 OFFCURVE",
"146 107 OFFCURVE",
"166 130 QCURVE SMOOTH",
"209.141 179.613 OFFCURVE",
"221 231 QCURVE SMOOTH",
"432 1225 LINE SMOOTH",
"434 1237 OFFCURVE",
"442 1266 OFFCURVE",
"442 1302 OFFCURVE",
"405 1337 OFFCURVE",
"378 1348.5 QCURVE SMOOTH",
"327.522 1370 OFFCURVE",
"247 1370 OFFCURVE",
"225 1375 OFFCURVE",
"225 1389 QCURVE SMOOTH",
"225 1403 OFFCURVE",
"243 1410 OFFCURVE",
"264 1410 QCURVE SMOOTH",
"515 1410 LINE SMOOTH",
"572.071 1410 OFFCURVE",
"589.036 1400.5 QCURVE SMOOTH",
"610.255 1388.62 OFFCURVE",
"640 1344 QCURVE SMOOTH",
"1333 326 LINE SMOOTH",
"1339 317 OFFCURVE",
"1354 294 OFFCURVE",
"1367 294 OFFCURVE",
"1373 321 OFFCURVE",
"1384 361 OFFCURVE",
"1393 410 OFFCURVE",
"1408 490 OFFCURVE",
"1440 638 OFFCURVE",
"1458.5 723 QCURVE SMOOTH",
"1499.87 913.091 OFFCURVE",
"1543 1116 OFFCURVE",
"1565 1209 OFFCURVE",
"1565 1243.5 QCURVE SMOOTH",
"1565 1311.55 OFFCURVE",
"1514 1352 QCURVE SMOOTH",
"1490.86 1370 OFFCURVE",
"1396 1370 QCURVE SMOOTH",
"1382 1370 OFFCURVE",
"1373 1386 OFFCURVE",
"1373 1393 QCURVE SMOOTH",
"1373 1410 OFFCURVE",
"1402 1410 QCURVE SMOOTH",
"1843 1410 LINE SMOOTH",
"1866 1410 OFFCURVE",
"1866 1370 OFFCURVE",
"1843 1370 QCURVE SMOOTH",
"1803 1370 LINE SMOOTH",
"1722.59 1370 OFFCURVE",
"1670 1300.5 QCURVE SMOOTH",
"1645.35 1267.92 OFFCURVE",
"1606 1074 OFFCURVE",
"1581 959 OFFCURVE",
"1549 807 OFFCURVE",
"1512 636 OFFCURVE",
"1473 452 OFFCURVE",
"1435 273 OFFCURVE",
"1418 189.5 QCURVE SMOOTH",
"1387.4 39.2 OFFCURVE",
"1384 30 OFFCURVE",
"1383 22 OFFCURVE",
"1377 5 OFFCURVE",
"1353 -117 OFFCURVE",
"1306 -299 OFFCURVE",
"1242 -441 OFFCURVE",
"1155 -544 OFFCURVE",
"1029 -610 OFFCURVE"
);
}
);
width = 1716;
}
);
unicode = 014A;
},
{
glyphname = O;
layers = (
{
layerId = "13B3CF59-E667-4601-B808-7467DBC8B37E";
paths = (
{
closed = 1;
nodes = (
"1041 30 QCURVE SMOOTH",
"933 0 OFFCURVE",
"719 0 OFFCURVE",
"541 47 OFFCURVE",
"387 131 OFFCURVE",
"262 250 OFFCURVE",
"217.5 322.5 QCURVE SMOOTH",
"125 473.202 OFFCURVE",
"125 651 QCURVE SMOOTH",
"125 863.442 OFFCURVE",
"234 1050 QCURVE SMOOTH",
"339.865 1231.19 OFFCURVE",
"519.5 1340 QCURVE SMOOTH",
"704.406 1452 OFFCURVE",
"1099 1452 OFFCURVE",
"1376 1356 OFFCURVE",
"1468 1272.5 QCURVE SMOOTH",
"1652 1105.5 OFFCURVE",
"1652 836 QCURVE SMOOTH",
"1652 609.561 OFFCURVE",
"1539.5 414 QCURVE SMOOTH",
"1371.39 121.776 OFFCURVE"
);
},
{
closed = 1;
nodes = (
"807.5 41 QCURVE SMOOTH",
"917 41 OFFCURVE",
"1096 114 OFFCURVE",
"1241 241 OFFCURVE",
"1351 410 OFFCURVE",
"1388.5 505.5 QCURVE SMOOTH",
"1464 697.773 OFFCURVE",
"1464 902 QCURVE SMOOTH",
"1464 1129.68 OFFCURVE",
"1340.5 1268 QCURVE SMOOTH",
"1205.68 1419 OFFCURVE",
"957 1419 QCURVE SMOOTH",
"659.737 1419 OFFCURVE",
"484 1167 QCURVE SMOOTH",
"324 937.566 OFFCURVE",
"324 625 QCURVE SMOOTH",
"324 371.484 OFFCURVE",
"454 209.5 QCURVE SMOOTH",
"589.229 41 OFFCURVE"
);
}
);
width = 1632;
}
);
unicode = 004F;
},
{
glyphname = Oslash;
layers = (
{
layerId = "13B3CF59-E667-4601-B808-7467DBC8B37E";
paths = (
{
closed = 1;
nodes = (
"914 1452 QCURVE SMOOTH",
"1225.59 1452 OFFCURVE",
"1420 1311 QCURVE",
"1587 1490 LINE",
"1662 1420 LINE",
"1497 1244 LINE",
"1652 1081.05 OFFCURVE",
"1652 836 QCURVE SMOOTH",
"1652 609.561 OFFCURVE",
"1539.5 414 QCURVE SMOOTH",
"1371.39 121.776 OFFCURVE",
"1041 30 QCURVE SMOOTH",
"933 0 OFFCURVE",
"816 0 QCURVE SMOOTH",
"603.353 0 OFFCURVE",
"435 106 QCURVE",
"243 -100 LINE",
"170 -29 LINE",
"352 166 LINE",
"246 257 OFFCURVE",
"125 505 OFFCURVE",
"125 759 OFFCURVE",
"182 961 OFFCURVE",
"286 1139 OFFCURVE",
"432 1287 OFFCURVE",
"519.5 1340 QCURVE SMOOTH",
"704.406 1452 OFFCURVE"
);
},
{
closed = 1;
nodes = (
"1358 1245 LINE",
"1222.67 1419 OFFCURVE",
"957 1419 QCURVE SMOOTH",
"659.737 1419 OFFCURVE",
"484 1167 QCURVE SMOOTH",
"324 937.566 OFFCURVE",
"324 625 QCURVE SMOOTH",
"324 400.49 OFFCURVE",
"427 247 QCURVE"
);
},
{
closed = 1;
nodes = (
"492 167 LINE",
"622.2 41 OFFCURVE",
"812 41 QCURVE SMOOTH",
"1012.65 41 OFFCURVE",
"1168.5 177.5 QCURVE SMOOTH",
"1307.51 299.258 OFFCURVE",
"1388.5 505.5 QCURVE SMOOTH",
"1464 697.773 OFFCURVE",
"1464 1041 OFFCURVE",
"1413 1154 QCURVE"
);
}
);
width = 1642;
}
);
unicode = 00D8;
},
{
glyphname = OE;
layers = (
{
layerId = "13B3CF59-E667-4601-B808-7467DBC8B37E";
paths = (
{
closed = 1;
nodes = (
"2005 311 QCURVE SMOOTH",
"2005 298.6 OFFCURVE",
"1955 185 OFFCURVE",
"1921 79 OFFCURVE",
"1899 21 OFFCURVE",
"1873 0 OFFCURVE",
"1845 0 QCURVE SMOOTH",
"802 0 LINE",
"766 -3 OFFCURVE",
"634 -3 OFFCURVE",
"456 44 OFFCURVE",
"302 128 OFFCURVE",
"177 247 OFFCURVE",
"132.5 319.5 QCURVE SMOOTH",
"40 470.202 OFFCURVE",
"40 648 QCURVE SMOOTH",
"40 860.442 OFFCURVE",
"149 1047 QCURVE SMOOTH",
"254.865 1228.19 OFFCURVE",
"434.5 1337 QCURVE SMOOTH",
"619.406 1449 OFFCURVE",
"829 1449 QCURVE SMOOTH",
"989.579 1449 OFFCURVE",
"1123 1410 QCURVE",
"2038 1410 LINE SMOOTH",
"2061 1410 OFFCURVE",
"2088 1401 OFFCURVE",
"2088 1378 OFFCURVE",
"2087 1366 OFFCURVE",
"2083 1341 QCURVE SMOOTH",
"2078.68 1313.98 OFFCURVE",
"2050 1103 QCURVE SMOOTH",
"2048 1089 OFFCURVE",
"2034.5 1089 QCURVE SMOOTH",
"2005.83 1089 OFFCURVE",
"2002 1112 QCURVE SMOOTH",
"1999 1127 OFFCURVE",
"1999 1166 OFFCURVE",
"1992 1217 OFFCURVE",
"1964 1282 OFFCURVE",
"1941 1305 QCURVE SMOOTH",
"1891 1355 OFFCURVE",
"1814 1355 QCURVE SMOOTH",
"1447 1355 LINE SMOOTH",
"1391.69 1355 OFFCURVE",
"1381.85 1347 QCURVE SMOOTH",
"1369.15 1336.68 OFFCURVE",
"1359 1290 QCURVE SMOOTH",
"1254 790 LINE SMOOTH",
"1252 782 OFFCURVE",
"1252 778 QCURVE SMOOTH",
"1252 753 OFFCURVE",
"1294 753 QCURVE SMOOTH",
"1661 753 LINE SMOOTH",
"1726.1 753 OFFCURVE",
"1787.5 800.5 QCURVE SMOOTH",
"1835.3 837.478 OFFCURVE",
"1867 896 QCURVE SMOOTH",
"1873.5 909 OFFCURVE",
"1884 909 QCURVE SMOOTH",
"1901 909 LINE SMOOTH",
"1910 909 OFFCURVE",
"1910 895 OFFCURVE",
"1909 895 OFFCURVE",
"1909 893 QCURVE SMOOTH",
"1829 520 LINE SMOOTH",
"1824.8 499 OFFCURVE",
"1809 499 QCURVE SMOOTH",
"1798 499 OFFCURVE",
"1791 506 OFFCURVE",
"1787 532 OFFCURVE",
"1786 566 OFFCURVE",
"1774 615 OFFCURVE",
"1747 651 OFFCURVE",
"1727.5 661 QCURVE SMOOTH",
"1694.35 678 OFFCURVE",
"1630 678 QCURVE SMOOTH",
"1269 678 LINE SMOOTH",
"1261 678 OFFCURVE",
"1231 664 OFFCURVE",
"1219 626 OFFCURVE",
"1212 589 OFFCURVE",
"1188 485 OFFCURVE",
"1158 333 OFFCURVE",
"1147 283.5 QCURVE SMOOTH",
"1132 216 OFFCURVE",
"1132 133 OFFCURVE",
"1165 88 OFFCURVE",
"1194 77 QCURVE SMOOTH",
"1263.61 50.595 OFFCURVE",
"1499.5 65 QCURVE SMOOTH",
"1630.24 72.984 OFFCURVE",
"1736 115 OFFCURVE",
"1767 136.5 QCURVE SMOOTH",
"1808.86 165.532 OFFCURVE",
"1905 264 OFFCURVE",
"1927 291 OFFCURVE",
"1938 302.5 QCURVE SMOOTH",
"1964.3 330 OFFCURVE",
"2005 330 OFFCURVE"
);
},
{
closed = 1;
nodes = (
"727 38 QCURVE SMOOTH",
"830.103 38 OFFCURVE",
"864.552 56.5 QCURVE SMOOTH",
"926.488 89.762 OFFCURVE",
"947 183 QCURVE SMOOTH",
"1172 1236 LINE SMOOTH",
"1176 1258 OFFCURVE",
"1173 1302 OFFCURVE",
"1147 1338 OFFCURVE",
"1128 1352 QCURVE SMOOTH",
"1098.71 1373.58 OFFCURVE",
"1046 1393 QCURVE",
"966 1416 OFFCURVE",
"768 1416 OFFCURVE",
"592 1352 OFFCURVE",
"452 1240 OFFCURVE",
"346 1088 OFFCURVE",
"310.5 999.5 QCURVE SMOOTH",
"239 821.254 OFFCURVE",
"239 622 QCURVE SMOOTH",
"239 368.484 OFFCURVE",
"369 206.5 QCURVE SMOOTH",
"504.229 38 OFFCURVE"
);
}
);
width = 2108;
}
);
unicode = 0152;
},
{
glyphname = P;
layers = (
{
layerId = "13B3CF59-E667-4601-B808-7467DBC8B37E";
paths = (
{
closed = 1;
nodes = (
"567 569 QCURVE SMOOTH",
"567 600 OFFCURVE",
"600 600 QCURVE SMOOTH",
"823.87 600 OFFCURVE",
"950.5 716.5 QCURVE SMOOTH",
"1081 836.56 OFFCURVE",
"1081 1059 QCURVE SMOOTH",
"1081 1363 OFFCURVE",
"728 1363 QCURVE SMOOTH",
"669.3 1363 OFFCURVE",
"637 1329 OFFCURVE",
"634 1312 QCURVE SMOOTH",
"389 160 LINE SMOOTH",
"386 143 OFFCURVE",
"386 98 OFFCURVE",
"422 61 OFFCURVE",
"449.5 52 QCURVE SMOOTH",
"486.167 40 OFFCURVE",
"571 40 QCURVE SMOOTH",
"577 40 OFFCURVE",
"577 32 QCURVE",
"572 8 LINE SMOOTH",
"569.333 0 OFFCURVE",
"563 0 QCURVE SMOOTH",
"27 0 LINE SMOOTH",
"20 0 OFFCURVE",
"20 8 QCURVE",
"25 32 LINE",
"29 40 OFFCURVE",
"70 40 OFFCURVE",
"129 49 OFFCURVE",
"152.5 64 QCURVE SMOOTH",
"200.605 94.705 OFFCURVE",
"219 183 QCURVE SMOOTH",
"222 199 OFFCURVE",
"228 227 OFFCURVE",
"236 267 OFFCURVE",
"249 329 OFFCURVE",
"270 427 OFFCURVE",
"301 571 OFFCURVE",
"344 776 OFFCURVE",
"373.5 913.5 QCURVE SMOOTH",
"447 1256.08 OFFCURVE",
"447 1308 OFFCURVE",
"423 1341 OFFCURVE",
"402 1348.5 QCURVE SMOOTH",
"372.6 1359 OFFCURVE",
"293 1359 QCURVE SMOOTH",
"230 1359 LINE SMOOTH",
"223 1359 OFFCURVE",
"223 1367 QCURVE",
"231 1400 LINE",
"231 1410 OFFCURVE",
"240 1410 QCURVE SMOOTH",
"546.5 1409 LINE SMOOTH",
"666.25 1409 OFFCURVE",
"837 1409 OFFCURVE",
"948 1391 OFFCURVE",
"1055 1354 OFFCURVE",
"1150 1296 OFFCURVE",
"1186.5 1256.5 QCURVE SMOOTH",
"1265 1171.55 OFFCURVE",
"1265 958 OFFCURVE",
"1212 812 OFFCURVE",
"1119 701 OFFCURVE",
"993 623 OFFCURVE",
"919 598.5 QCURVE SMOOTH",
"778.551 552 OFFCURVE",
"601 552 QCURVE SMOOTH",
"567 552 OFFCURVE"
);
}
);
width = 1215;
}
);
unicode = 0050;
},
{
glyphname = Thorn;
layers = (
{
layerId = "13B3CF59-E667-4601-B808-7467DBC8B37E";
paths = (
{
closed = 1;
nodes = (
"389 160 LINE SMOOTH",
"385 144 OFFCURVE",
"385 96 OFFCURVE",
"421 60 OFFCURVE",
"449 51.5 QCURVE SMOOTH",
"486.882 40 OFFCURVE",
"571 40 QCURVE SMOOTH",
"577 40 OFFCURVE",
"577 32 QCURVE",
"572 8 LINE SMOOTH",
"569.333 0 OFFCURVE",
"563 0 QCURVE SMOOTH",
"27 0 LINE SMOOTH",
"20 0 OFFCURVE",
"20 8 QCURVE",
"25 32 LINE",
"29 40 OFFCURVE",
"70 40 OFFCURVE",
"129 49 OFFCURVE",
"152 64 QCURVE SMOOTH",
"200.845 95.855 OFFCURVE",
"219 183 QCURVE SMOOTH",
"447 1250 LINE SMOOTH",
"450 1262 OFFCURVE",
"450 1306 OFFCURVE",
"417 1342 OFFCURVE",
"392 1352 QCURVE SMOOTH",
"347 1370 OFFCURVE",
"280 1370 QCURVE SMOOTH",
"274 1370 OFFCURVE",
"274 1378 QCURVE",
"279 1402 LINE SMOOTH",
"281 1410 OFFCURVE",
"289 1410 QCURVE SMOOTH",
"810 1410 LINE SMOOTH",
"816 1410 OFFCURVE",
"816 1402 QCURVE",
"811 1378 LINE SMOOTH",
"809 1370 OFFCURVE",
"766 1370 OFFCURVE",
"707 1355 OFFCURVE",
"684 1337 QCURVE SMOOTH",
"637.004 1300.22 OFFCURVE",
"618 1209 QCURVE",
"608 1164 LINE",
"619 1164 LINE SMOOTH",
"793.6 1164 OFFCURVE",
"936 1075 QCURVE SMOOTH",
"1098 973.75 OFFCURVE",
"1098 797 QCURVE SMOOTH",
"1098 465.027 OFFCURVE",
"752 364.5 QCURVE SMOOTH",
"616.047 325 OFFCURVE",
"434 325 QCURVE SMOOTH",
"425 325 LINE"
);
},
{
closed = 1;
nodes = (
"598 1117 LINE",
"437 380 LINE",
"781.825 380 OFFCURVE",
"880 611 QCURVE SMOOTH",
"914 691 OFFCURVE",
"914 873 OFFCURVE",
"871 989 OFFCURVE",
"831.5 1030 QCURVE SMOOTH",
"747.683 1117 OFFCURVE",
"611 1117 QCURVE SMOOTH"
);
}
);
width = 1068;
}
);
unicode = 00DE;
},
{
glyphname = Q;
layers = (
{
layerId = "13B3CF59-E667-4601-B808-7467DBC8B37E";
paths = (
{
closed = 1;
nodes = (
"1584 -266 OFFCURVE",
"1629 -266 OFFCURVE",
"1629 -292 QCURVE SMOOTH",
"1629 -323.729 OFFCURVE",
"1526.5 -355 QCURVE SMOOTH",
"1457.67 -376 OFFCURVE",
"1352 -376 OFFCURVE",
"1264 -355 OFFCURVE",
"1222 -338 QCURVE SMOOTH",
"1148.97 -308.439 OFFCURVE",
"1000 -217 OFFCURVE",
"879 -144 OFFCURVE",
"818 -98 QCURVE SMOOTH",
"658.87 22 OFFCURVE",
"439 88 OFFCURVE",
"286 219 OFFCURVE",
"233.5 305 QCURVE SMOOTH",
"125 482.733 OFFCURVE",
"125 682 QCURVE SMOOTH",
"125 906.103 OFFCURVE",
"247 1087 QCURVE SMOOTH",
"361.749 1257.14 OFFCURVE",
"558.5 1355 QCURVE SMOOTH",
"753.532 1452 OFFCURVE",
"977 1452 QCURVE SMOOTH",
"1250.01 1452 OFFCURVE",
"1449.5 1274.5 QCURVE SMOOTH",
"1579.54 1158.8 OFFCURVE",
"1631 995.5 QCURVE SMOOTH",
"1657 913 OFFCURVE",
"1657 732 OFFCURVE",
"1612 559 OFFCURVE",
"1531 401 OFFCURVE",
"1416 259 OFFCURVE",
"1347 202 QCURVE SMOOTH",
"1202.43 82.571 OFFCURVE",
"1017 32 QCURVE SMOOTH",
"971 19.455 OFFCURVE",
"971 3 QCURVE SMOOTH",
"971 -6.708 OFFCURVE",
"1042 -57 OFFCURVE",
"1144 -119 OFFCURVE",
"1276 -204 OFFCURVE",
"1327 -231 QCURVE SMOOTH",
"1425.22 -283 OFFCURVE",
"1514 -283 QCURVE SMOOTH",
"1535 -283 OFFCURVE"
);
},
{
closed = 1;
nodes = (
"318 591 QCURVE SMOOTH",
"318 488 OFFCURVE",
"387 290 OFFCURVE",
"450 215 QCURVE SMOOTH",
"587.76 51 OFFCURVE",
"803 51 QCURVE SMOOTH",
"1008.45 51 OFFCURVE",
"1167.5 183 QCURVE SMOOTH",
"1309.59 300.927 OFFCURVE",
"1390.5 500.5 QCURVE SMOOTH",
"1466 686.733 OFFCURVE",
"1466 887 QCURVE SMOOTH",
"1466 1122.1 OFFCURVE",
"1337 1268.5 QCURVE SMOOTH",
"1202.63 1421 OFFCURVE",
"971 1421 QCURVE SMOOTH",
"769.788 1421 OFFCURVE",
"612.5 1293 QCURVE SMOOTH",
"473.437 1179.83 OFFCURVE",
"393 982 QCURVE SMOOTH",
"318 797.541 OFFCURVE"
);
}
);
width = 1637;
}
);
unicode = 0051;
},
{
glyphname = R;
layers = (
{
layerId = "13B3CF59-E667-4601-B808-7467DBC8B37E";
paths = (
{
closed = 1;
nodes = (
"635 641 QCURVE",
"504 635 LINE SMOOTH",
"490 635 OFFCURVE",
"487 621 QCURVE SMOOTH",
"389 160 LINE SMOOTH",
"385 144 OFFCURVE",
"385 95 OFFCURVE",
"421 60 OFFCURVE",
"449 51.5 QCURVE SMOOTH",
"486.882 40 OFFCURVE",
"571 40 QCURVE SMOOTH",
"577 40 OFFCURVE",
"577 32 QCURVE",
"572 8 LINE SMOOTH",
"569.333 0 OFFCURVE",
"563 0 QCURVE SMOOTH",
"27 0 LINE SMOOTH",
"20 0 OFFCURVE",
"20 8 QCURVE",
"25 32 LINE",
"29 40 OFFCURVE",
"70 40 OFFCURVE",
"129 49 OFFCURVE",
"152.5 64 QCURVE SMOOTH",
"200.605 94.705 OFFCURVE",
"219 183 QCURVE SMOOTH",
"222 199 OFFCURVE",
"225 213 QCURVE SMOOTH",
"232.5 248 LINE SMOOTH",
"237 269 OFFCURVE",
"251 333 OFFCURVE",
"272 433 OFFCURVE",
"303 578 OFFCURVE",
"347 785 OFFCURVE",
"376.5 923 QCURVE SMOOTH",
"449 1262.15 OFFCURVE",
"449 1281 QCURVE SMOOTH",
"449 1330 OFFCURVE",
"367 1359 OFFCURVE",
"282 1359 QCURVE SMOOTH",
"230 1359 LINE SMOOTH",
"224 1359 OFFCURVE",
"224 1368 QCURVE",
"230 1394 LINE",
"235 1409 OFFCURVE",
"243 1409 QCURVE SMOOTH",
"740 1409 LINE SMOOTH",
"1004.33 1409 OFFCURVE",
"1126.5 1328.5 QCURVE SMOOTH",
"1256 1243.17 OFFCURVE",
"1256 1055 QCURVE SMOOTH",
"1256 941.745 OFFCURVE",
"1159 853 QCURVE SMOOTH",
"1085.87 786.09 OFFCURVE",
"889 682 QCURVE SMOOTH",
"861 668 OFFCURVE",
"861 639.857 OFFCURVE",
"883 603 OFFCURVE",
"925 536 OFFCURVE",
"981 451 OFFCURVE",
"1050 354 OFFCURVE",
"1127 258 OFFCURVE",
"1209 170 OFFCURVE",
"1250.5 136 QCURVE SMOOTH",
"1340.82 62 OFFCURVE",
"1408 62 QCURVE SMOOTH",
"1434 62 LINE SMOOTH",
"1473.62 62 OFFCURVE",
"1486 44 OFFCURVE",
"1486 36 QCURVE SMOOTH",
"1486 20 LINE SMOOTH",
"1486 0 OFFCURVE",
"1455 0 QCURVE SMOOTH",
"1380 0 LINE SMOOTH",
"1110.8 0 OFFCURVE",
"912 264.5 QCURVE SMOOTH",
"853 343 OFFCURVE",
"774 469 OFFCURVE",
"723 543 OFFCURVE",
"685 604 OFFCURVE",
"677 620 OFFCURVE",
"671 626.5 QCURVE SMOOTH",
"657.615 641 OFFCURVE"
);
},
{
closed = 1;
nodes = (
"778 1362 QCURVE",
"728 1363 LINE",
"668.667 1363 OFFCURVE",
"637 1328 OFFCURVE",
"634 1312 QCURVE SMOOTH",
"512 737 LINE SMOOTH",
"508 721 OFFCURVE",
"508 686 OFFCURVE",
"611 686 OFFCURVE",
"737 712 OFFCURVE",
"852 761 OFFCURVE",
"952 832 OFFCURVE",
"988.5 876 QCURVE SMOOTH",
"1067 970.63 OFFCURVE",
"1067 1082 QCURVE SMOOTH",
"1067 1212.64 OFFCURVE",
"988.5 1288 QCURVE SMOOTH",
"911.417 1362 OFFCURVE"
);
}
);
width = 1507;
}
);
unicode = 0052;
},
{
glyphname = S;
layers = (
{
layerId = "13B3CF59-E667-4601-B808-7467DBC8B37E";
paths = (
{
closed = 1;
nodes = (
"165 440 QCURVE SMOOTH",
"165 246 OFFCURVE",
"339 55 OFFCURVE",
"523 55 QCURVE SMOOTH",
"649.275 55 OFFCURVE",
"741.5 126.5 QCURVE SMOOTH",
"841 203.64 OFFCURVE",
"841 324 QCURVE SMOOTH",
"841 426.053 OFFCURVE",
"737.5 535 QCURVE SMOOTH",
"709 565 OFFCURVE",
"648 622 OFFCURVE",
"567 688 OFFCURVE",
"486 759 OFFCURVE",
"411 835 OFFCURVE",
"381.5 877 QCURVE SMOOTH",
"317 968.831 OFFCURVE",
"317 1152 OFFCURVE",
"387 1292 OFFCURVE",
"445.5 1340.5 QCURVE SMOOTH",
"567.928 1442 OFFCURVE",
"737 1442 QCURVE SMOOTH",
"829.818 1442 OFFCURVE",
"928 1402 OFFCURVE",
"972 1384 OFFCURVE",
"1017 1384 OFFCURVE",
"1042 1394 OFFCURVE",
"1062 1405 OFFCURVE",
"1080 1415 OFFCURVE",
"1089 1415 QCURVE",
"1109 1412 OFFCURVE",
"1108 1379 OFFCURVE",
"1106 1359 OFFCURVE",
"1103.5 1338 QCURVE SMOOTH",
"1092.56 1246.12 OFFCURVE",
"1081 1160 OFFCURVE",
"1078 1119 OFFCURVE",
"1074.5 1100.5 QCURVE SMOOTH",
"1066.27 1057 OFFCURVE",
"1043 1057 QCURVE SMOOTH",
"1015.21 1057 OFFCURVE",
"1013 1088 QCURVE SMOOTH",
"999.976 1299.64 OFFCURVE",
"834.5 1367 QCURVE SMOOTH",
"778 1390 OFFCURVE",
"654 1390 OFFCURVE",
"563 1352 OFFCURVE",
"527.5 1319.5 QCURVE SMOOTH",
"450 1248.55 OFFCURVE",
"450 1157 QCURVE SMOOTH",
"450 1023.58 OFFCURVE",
"604.5 897 QCURVE SMOOTH",
"646 863 OFFCURVE",
"735 785 OFFCURVE",
"842 696 OFFCURVE",
"886.5 645 QCURVE SMOOTH",
"988 528.674 OFFCURVE",
"988 295 OFFCURVE",
"903 145 OFFCURVE",
"832.5 96.5 QCURVE SMOOTH",
"693.68 1 OFFCURVE",
"485 1 QCURVE SMOOTH",
"319.727 1 OFFCURVE",
"149.5 88.5 QCURVE SMOOTH",
"96 116 OFFCURVE",
"74.5 134 QCURVE SMOOTH",
"50 154.512 OFFCURVE",
"50 162 QCURVE SMOOTH",
"58 222 OFFCURVE",
"86 336 OFFCURVE",
"99 406 OFFCURVE",
"103 432 OFFCURVE",
"107.5 444.5 QCURVE SMOOTH",
"118.48 475 OFFCURVE",
"165 475 OFFCURVE"
);
}
);
width = 1130;
}
);
unicode = 0053;
},
{
glyphname = Scedilla;
layers = (
{
layerId = "13B3CF59-E667-4601-B808-7467DBC8B37E";
paths = (
{
closed = 1;
nodes = (
"326 -532 QCURVE",
"270 -532 OFFCURVE",
"270 -492 QCURVE SMOOTH",
"270 -488 OFFCURVE",
"290 -467 OFFCURVE",
"306 -464 QCURVE SMOOTH",
"443.852 -438.153 OFFCURVE",
"489 -415 OFFCURVE",
"504 -400 QCURVE SMOOTH",
"538 -366 OFFCURVE",
"538 -299 OFFCURVE",
"513 -260 OFFCURVE",
"495 -246 QCURVE SMOOTH",
"461.5 -219.944 OFFCURVE",
"417 -215 QCURVE",
"464 1 LINE",
"527 1 LINE",
"494 -154 LINE",
"605.996 -184.048 OFFCURVE",
"636.5 -263 QCURVE SMOOTH",
"645 -285 OFFCURVE",
"645 -363 OFFCURVE",
"587 -444 OFFCURVE",
"541 -470.5 QCURVE SMOOTH",
"459.532 -517.433 OFFCURVE"
);
},
{
closed = 1;
nodes = (
"165 440 QCURVE SMOOTH",
"165 246 OFFCURVE",
"339 55 OFFCURVE",
"523 55 QCURVE SMOOTH",
"649.275 55 OFFCURVE",
"741.5 126.5 QCURVE SMOOTH",
"841 203.64 OFFCURVE",
"841 324 QCURVE SMOOTH",
"841 426.053 OFFCURVE",
"737.5 535 QCURVE SMOOTH",
"709 565 OFFCURVE",
"648 622 OFFCURVE",
"567 688 OFFCURVE",
"486 759 OFFCURVE",
"411 835 OFFCURVE",
"381.5 877 QCURVE SMOOTH",
"317 968.831 OFFCURVE",
"317 1152 OFFCURVE",
"387 1292 OFFCURVE",
"445.5 1340.5 QCURVE SMOOTH",
"567.928 1442 OFFCURVE",
"737 1442 QCURVE SMOOTH",
"829.818 1442 OFFCURVE",
"928 1402 OFFCURVE",
"972 1384 OFFCURVE",
"1017 1384 OFFCURVE",
"1042 1394 OFFCURVE",
"1062 1405 OFFCURVE",
"1080 1415 OFFCURVE",
"1089 1415 QCURVE",
"1109 1412 OFFCURVE",
"1108 1379 OFFCURVE",
"1106 1359 OFFCURVE",
"1103.5 1338 QCURVE SMOOTH",
"1092.56 1246.12 OFFCURVE",
"1081 1160 OFFCURVE",
"1078 1119 OFFCURVE",
"1074.5 1100.5 QCURVE SMOOTH",
"1066.27 1057 OFFCURVE",
"1043 1057 QCURVE SMOOTH",
"1015.21 1057 OFFCURVE",
"1013 1088 QCURVE SMOOTH",
"999.976 1299.64 OFFCURVE",
"834.5 1367 QCURVE SMOOTH",
"778 1390 OFFCURVE",
"654 1390 OFFCURVE",
"563 1352 OFFCURVE",
"527.5 1319.5 QCURVE SMOOTH",
"450 1248.55 OFFCURVE",
"450 1157 QCURVE SMOOTH",
"450 1023.58 OFFCURVE",
"604.5 897 QCURVE SMOOTH",
"646 863 OFFCURVE",
"735 785 OFFCURVE",
"842 696 OFFCURVE",
"886.5 645 QCURVE SMOOTH",
"988 528.674 OFFCURVE",
"988 295 OFFCURVE",
"903 145 OFFCURVE",
"832.5 96.5 QCURVE SMOOTH",
"693.68 1 OFFCURVE",
"485 1 QCURVE SMOOTH",
"319.727 1 OFFCURVE",
"149.5 88.5 QCURVE SMOOTH",
"96 116 OFFCURVE",
"74.5 134 QCURVE SMOOTH",
"50 154.512 OFFCURVE",
"50 162 QCURVE SMOOTH",
"58 222 OFFCURVE",
"86 336 OFFCURVE",
"99 406 OFFCURVE",
"103 432 OFFCURVE",
"107.5 444.5 QCURVE SMOOTH",
"118.48 475 OFFCURVE",
"165 475 OFFCURVE"
);
}
);
width = 1130;
}
);
unicode = 015E;
},
{
glyphname = uni1E9E;
layers = (
{
layerId = "13B3CF59-E667-4601-B808-7467DBC8B37E";
paths = (
{
closed = 1;
nodes = (
"1016 757 QCURVE",
"1322 693.857 OFFCURVE",
"1322 474 QCURVE SMOOTH",
"1322 221.99 OFFCURVE",
"1141 84.5 QCURVE SMOOTH",
"994.215 -27 OFFCURVE",
"825 -27 QCURVE SMOOTH",
"780 -27 OFFCURVE",
"727 9 OFFCURVE",
"727 51 OFFCURVE",
"739 80 OFFCURVE",
"748.5 91.5 QCURVE SMOOTH",
"785.546 136.346 OFFCURVE",
"834.5 109.5 QCURVE SMOOTH",
"850 101 OFFCURVE",
"865 91 QCURVE SMOOTH",
"905.5 64 OFFCURVE",
"975 64 OFFCURVE",
"1053 131 OFFCURVE",
"1083.5 185 QCURVE SMOOTH",
"1151 304.508 OFFCURVE",
"1151 449 QCURVE SMOOTH",
"1151 583.538 OFFCURVE",
"1052.5 654.5 QCURVE SMOOTH",
"960.194 721 OFFCURVE",
"797 721 QCURVE",
"805 758 LINE",
"991.093 766.004 OFFCURVE",
"1106 883 QCURVE SMOOTH",
"1222 1001.11 OFFCURVE",
"1222 1193 QCURVE SMOOTH",
"1222 1299.57 OFFCURVE",
"1164 1370 QCURVE SMOOTH",
"1103.06 1444 OFFCURVE",
"1003 1444 QCURVE SMOOTH",
"869.403 1444 OFFCURVE",
"746 1310.5 QCURVE SMOOTH",
"629.321 1184.27 OFFCURVE",
"596 1026 QCURVE SMOOTH",
"418 173 LINE SMOOTH",
"414 155 OFFCURVE",
"414 111 OFFCURVE",
"447 74 OFFCURVE",
"473 63.5 QCURVE SMOOTH",
"511.597 47.913 OFFCURVE",
"603 40 OFFCURVE",
"603 35 QCURVE SMOOTH",
"603 0 OFFCURVE",
"585 0 QCURVE SMOOTH",
"53 0 LINE SMOOTH",
"45 0 OFFCURVE",
"45 7 QCURVE",
"50 32 LINE",
"50 39.154 OFFCURVE",
"92 44 OFFCURVE",
"120 49 OFFCURVE",
"146 53 OFFCURVE",
"179 60 OFFCURVE",
"210 80 OFFCURVE",
"227 107 OFFCURVE",
"235 141 OFFCURVE",
"241 161 QCURVE",
"393 879 LINE",
"439.328 1183.99 OFFCURVE",
"624 1348.5 QCURVE SMOOTH",
"797.439 1503 OFFCURVE",
"1045 1503 QCURVE SMOOTH",
"1196.41 1503 OFFCURVE",
"1293.5 1407 QCURVE SMOOTH",
"1386 1315.54 OFFCURVE",
"1386 1182 QCURVE SMOOTH",
"1386 969.35 OFFCURVE",
"1183 834.5 QCURVE SMOOTH",
"1113 788 OFFCURVE"
);
}
);
width = 1431;
}
);
unicode = 1E9E;
},
{
glyphname = T;
layers = (
{
layerId = "13B3CF59-E667-4601-B808-7467DBC8B37E";
paths = (
{
closed = 1;
nodes = (
"289 32 LINE SMOOTH",
"289 40 OFFCURVE",
"298.5 40 QCURVE SMOOTH",
"325.5 40 LINE SMOOTH",
"416.946 40 OFFCURVE",
"482.5 89.5 QCURVE SMOOTH",
"532.442 127.212 OFFCURVE",
"543 180 QCURVE SMOOTH",
"779 1287 LINE SMOOTH",
"780 1290 OFFCURVE",
"780 1295 QCURVE SMOOTH",
"780 1315 OFFCURVE",
"749 1315 QCURVE SMOOTH",
"455 1315 LINE SMOOTH",
"380.048 1315 OFFCURVE",
"318.5 1243 QCURVE SMOOTH",
"257.651 1171.82 OFFCURVE",
"244 1086.5 QCURVE SMOOTH",
"241.452 1070.58 OFFCURVE",
"232 1069 OFFCURVE",
"230 1069 QCURVE SMOOTH",
"207 1069 LINE SMOOTH",
"200 1069 OFFCURVE",
"200 1076 QCURVE",
"247.125 1308 OFFCURVE",
"262 1376 QCURVE SMOOTH",
"271 1419 LINE SMOOTH",
"276.455 1449 OFFCURVE",
"297 1449 QCURVE SMOOTH",
"304 1449 OFFCURVE",
"315 1437 OFFCURVE",
"323 1429.5 QCURVE SMOOTH",
"343.8 1410 OFFCURVE",
"384 1410 QCURVE SMOOTH",
"1435 1410 LINE SMOOTH",
"1476.8 1410 OFFCURVE",
"1502 1437 OFFCURVE",
"1512 1449 OFFCURVE",
"1522 1449 QCURVE SMOOTH",
"1548 1449 OFFCURVE",
"1548 1426 QCURVE SMOOTH",
"1548 1422.23 OFFCURVE",
"1540.5 1387.62 QCURVE SMOOTH",
"1520.55 1295.55 OFFCURVE",
"1482 1106 QCURVE",
"1476 1079 LINE SMOOTH",
"1474.75 1069 OFFCURVE",
"1465 1069 QCURVE SMOOTH",
"1452 1069 LINE SMOOTH",
"1437.55 1069 OFFCURVE",
"1416 1212 OFFCURVE",
"1405.5 1243 QCURVE SMOOTH",
"1381.11 1315 OFFCURVE",
"1327 1315 QCURVE SMOOTH",
"1012 1315 LINE SMOOTH",
"999 1315 OFFCURVE",
"979 1308 OFFCURVE",
"974 1287 QCURVE SMOOTH",
"930 1079 OFFCURVE",
"862 762 OFFCURVE",
"812 527 OFFCURVE",
"778 365 OFFCURVE",
"755 260 OFFCURVE",
"743 202 OFFCURVE",
"740 188.5 QCURVE SMOOTH",
"735 166 OFFCURVE",
"735 136 OFFCURVE",
"777 96 OFFCURVE",
"807 80 QCURVE SMOOTH",
"882 40 OFFCURVE",
"955 40 QCURVE SMOOTH",
"984 40 LINE SMOOTH",
"992 40 OFFCURVE",
"992 32 QCURVE SMOOTH",
"992 8 LINE SMOOTH",
"992 0 OFFCURVE",
"984 0 QCURVE SMOOTH",
"297 0 LINE SMOOTH",
"289 0 OFFCURVE",
"289 8 QCURVE SMOOTH"
);
}
);
width = 1423;
}
);
unicode = 0054;
},
{
glyphname = Tbar;
layers = (
{
layerId = "13B3CF59-E667-4601-B808-7467DBC8B37E";
paths = (
{
closed = 1;
nodes = (
"290 32 LINE SMOOTH",
"290 40 OFFCURVE",
"299.5 40 QCURVE SMOOTH",
"326.5 40 LINE SMOOTH",
"417.946 40 OFFCURVE",
"483.5 89.5 QCURVE SMOOTH",
"533.442 127.212 OFFCURVE",
"544 180 QCURVE SMOOTH",
"649 675 LINE",
"359 675 LINE SMOOTH",
"338 675 OFFCURVE",
"338 700 QCURVE",
"343 725 LINE SMOOTH",
"348 750 OFFCURVE",
"365 750 QCURVE SMOOTH",
"665 750 LINE",
"780 1287 LINE SMOOTH",
"781 1290 OFFCURVE",
"781 1295 QCURVE SMOOTH",
"781 1315 OFFCURVE",
"750 1315 QCURVE SMOOTH",
"456 1315 LINE SMOOTH",
"381.048 1315 OFFCURVE",
"319.5 1243 QCURVE SMOOTH",
"258.651 1171.82 OFFCURVE",
"245 1086.5 QCURVE SMOOTH",
"242.452 1070.58 OFFCURVE",
"233 1069 OFFCURVE",
"231 1069 QCURVE SMOOTH",
"208 1069 LINE SMOOTH",
"201 1069 OFFCURVE",
"201 1076 QCURVE",
"248.125 1308 OFFCURVE",
"263 1376 QCURVE SMOOTH",
"272 1419 LINE SMOOTH",
"277.455 1449 OFFCURVE",
"298 1449 QCURVE SMOOTH",
"305 1449 OFFCURVE",
"316 1437 OFFCURVE",
"324 1429.5 QCURVE SMOOTH",
"344.8 1410 OFFCURVE",
"385 1410 QCURVE SMOOTH",
"1436 1410 LINE SMOOTH",
"1477.8 1410 OFFCURVE",
"1503 1437 OFFCURVE",
"1513 1449 OFFCURVE",
"1523 1449 QCURVE SMOOTH",
"1549 1449 OFFCURVE",
"1549 1426 QCURVE SMOOTH",
"1549 1422.23 OFFCURVE",
"1541.5 1387.62 QCURVE SMOOTH",
"1521.55 1295.55 OFFCURVE",
"1483 1106 QCURVE",
"1477 1079 LINE SMOOTH",
"1475.75 1069 OFFCURVE",
"1466 1069 QCURVE SMOOTH",
"1453 1069 LINE SMOOTH",
"1438.55 1069 OFFCURVE",
"1417 1212 OFFCURVE",
"1406.5 1243 QCURVE SMOOTH",
"1382.11 1315 OFFCURVE",
"1328 1315 QCURVE SMOOTH",
"1013 1315 LINE SMOOTH",
"1000 1315 OFFCURVE",
"980 1308 OFFCURVE",
"975 1287 QCURVE SMOOTH",
"940 1120 OFFCURVE",
"883 857 OFFCURVE",
"860 750 QCURVE",
"1191 750 LINE SMOOTH",
"1212 750 OFFCURVE",
"1212 730 QCURVE",
"1207 700 LINE SMOOTH",
"1202 675 OFFCURVE",
"1185 675 QCURVE SMOOTH",
"844 675 LINE",
"737 168 LINE SMOOTH",
"736 165 OFFCURVE",
"736 136 OFFCURVE",
"778 96 OFFCURVE",
"808 80 QCURVE SMOOTH",
"883 40 OFFCURVE",
"956 40 QCURVE SMOOTH",
"985 40 LINE SMOOTH",
"993 40 OFFCURVE",
"993 32 QCURVE SMOOTH",
"993 8 LINE SMOOTH",
"993 0 OFFCURVE",
"985 0 QCURVE SMOOTH",
"298 0 LINE SMOOTH",
"290 0 OFFCURVE",
"290 8 QCURVE SMOOTH"
);
}
);
width = 1424;
}
);
unicode = 0166;
},
{
glyphname = U;
layers = (
{
layerId = "13B3CF59-E667-4601-B808-7467DBC8B37E";
paths = (
{
closed = 1;
nodes = (
"1763 1410 LINE SMOOTH",
"1778 1410 OFFCURVE",
"1778 1397 QCURVE SMOOTH",
"1778 1386 LINE SMOOTH",
"1778 1373.91 OFFCURVE",
"1720 1366 OFFCURVE",
"1691 1360 OFFCURVE",
"1654 1350 OFFCURVE",
"1639.5 1339.5 QCURVE SMOOTH",
"1610.15 1318.25 OFFCURVE",
"1597 1260 QCURVE SMOOTH",
"1566 1117 LINE SMOOTH",
"1558 1082 OFFCURVE",
"1529 942 OFFCURVE",
"1510 852 QCURVE SMOOTH",
"1457.75 604.5 OFFCURVE",
"1403 350 OFFCURVE",
"1301 179 OFFCURVE",
"1226 120 QCURVE SMOOTH",
"1073.46 0 OFFCURVE",
"846 0 QCURVE SMOOTH",
"616.667 0 OFFCURVE",
"442.5 104.5 QCURVE SMOOTH",
"251 219.4 OFFCURVE",
"251 403 QCURVE SMOOTH",
"251 448.237 OFFCURVE",
"396 1116 OFFCURVE",
"406 1164 QCURVE SMOOTH",
"421 1236 LINE SMOOTH",
"428 1269.6 OFFCURVE",
"428 1305 OFFCURVE",
"395 1342 OFFCURVE",
"370 1352 QCURVE SMOOTH",
"325 1370 OFFCURVE",
"257 1370 QCURVE SMOOTH",
"251 1370 OFFCURVE",
"251 1378 QCURVE",
"256 1402 LINE SMOOTH",
"258 1410 OFFCURVE",
"266 1410 QCURVE SMOOTH",
"787 1410 LINE SMOOTH",
"793 1410 OFFCURVE",
"793 1402 QCURVE",
"788 1378 LINE SMOOTH",
"786 1370 OFFCURVE",
"743 1370 OFFCURVE",
"684 1361 OFFCURVE",
"661 1346 QCURVE SMOOTH",
"613.312 1314.9 OFFCURVE",
"595 1227 QCURVE SMOOTH",
"440 508 LINE SMOOTH",
"431 466 OFFCURVE",
"431 345 OFFCURVE",
"498 213 OFFCURVE",
"552 166.5 QCURVE SMOOTH",
"664.065 70 OFFCURVE",
"811 70 QCURVE SMOOTH",
"1268.93 70 OFFCURVE",
"1363 509 QCURVE SMOOTH",
"1485 1081 LINE",
"1501 1151 OFFCURVE",
"1501 1207 QCURVE SMOOTH",
"1501 1370 OFFCURVE",
"1343 1370 QCURVE SMOOTH",
"1315 1370 LINE SMOOTH",
"1294 1370 OFFCURVE",
"1294 1385 QCURVE SMOOTH",
"1294 1395 LINE SMOOTH",
"1294 1410 OFFCURVE",
"1313 1410 QCURVE SMOOTH"
);
}
);
width = 1618;
}
);
unicode = 0055;
},
{
glyphname = V;
layers = (
{
layerId = "13B3CF59-E667-4601-B808-7467DBC8B37E";
paths = (
{
closed = 1;
nodes = (
"406 -27 LINE SMOOTH",
"383 -27 OFFCURVE",
"383 -5 QCURVE SMOOTH",
"425 1253 LINE",
"425 1339.41 OFFCURVE",
"334 1363 QCURVE SMOOTH",
"307 1370 OFFCURVE",
"250 1370 OFFCURVE",
"250 1410 OFFCURVE",
"277 1410 QCURVE SMOOTH",
"803 1410 LINE SMOOTH",
"824 1410 OFFCURVE",
"824 1391 QCURVE SMOOTH",
"824 1373.45 OFFCURVE",
"755 1370 OFFCURVE",
"699 1370 OFFCURVE",
"659 1344 OFFCURVE",
"645 1323.5 QCURVE SMOOTH",
"617.2 1282.79 OFFCURVE",
"615 1230 QCURVE SMOOTH",
"611 1111 OFFCURVE",
"604 887 OFFCURVE",
"600 775 QCURVE SMOOTH",
"589.455 479.727 OFFCURVE",
"584 312 QCURVE SMOOTH",
"583 281 LINE SMOOTH",
"583 267 OFFCURVE",
"606 267 OFFCURVE",
"648 319 OFFCURVE",
"743 437 OFFCURVE",
"855 575 OFFCURVE",
"978 728 OFFCURVE",
"1041 805.5 QCURVE SMOOTH",
"1282.12 1102.11 OFFCURVE",
"1335 1165 OFFCURVE",
"1350.5 1188 QCURVE SMOOTH",
"1387 1242.16 OFFCURVE",
"1387 1307 OFFCURVE",
"1368 1345 OFFCURVE",
"1350.5 1354.5 QCURVE SMOOTH",
"1321.95 1370 OFFCURVE",
"1256 1370 QCURVE SMOOTH",
"1231 1370 OFFCURVE",
"1231 1410 OFFCURVE",
"1256 1410 QCURVE SMOOTH",
"1673 1410 LINE SMOOTH",
"1690 1410 OFFCURVE",
"1702 1404 OFFCURVE",
"1702 1393 QCURVE SMOOTH",
"1702 1370 OFFCURVE",
"1638 1370 OFFCURVE",
"1588 1345 OFFCURVE",
"1540 1306 OFFCURVE",
"1494 1258 OFFCURVE",
"1455 1211 OFFCURVE",
"1424 1169 OFFCURVE",
"1321 1041 OFFCURVE",
"1120 793 OFFCURVE",
"1016.5 666 QCURVE SMOOTH",
"684.134 258.169 OFFCURVE",
"608.067 162.085 QCURVE SMOOTH",
"524.875 57 OFFCURVE",
"476 -3 OFFCURVE",
"468 -14 OFFCURVE",
"463 -18 QCURVE SMOOTH",
"451.75 -27 OFFCURVE",
"432 -27 QCURVE SMOOTH"
);
}
);
width = 1542;
}
);
unicode = 0056;
},
{
glyphname = W;
layers = (
{
layerId = "13B3CF59-E667-4601-B808-7467DBC8B37E";
paths = (
{
closed = 1;
nodes = (
"329 -27 LINE SMOOTH",
"309 -27 OFFCURVE",
"309 -1 QCURVE",
"405 1232 LINE",
"410 1290 LINE",
"410 1297 LINE SMOOTH",
"410 1370 OFFCURVE",
"271 1370 QCURVE SMOOTH",
"250 1370 OFFCURVE",
"250 1404 OFFCURVE",
"262 1410 OFFCURVE",
"275 1410 QCURVE SMOOTH",
"751 1410 LINE SMOOTH",
"765 1410 OFFCURVE",
"771 1394 OFFCURVE",
"771 1392 QCURVE SMOOTH",
"771 1370 OFFCURVE",
"698 1370 OFFCURVE",
"637 1348 OFFCURVE",
"618.5 1330 QCURVE SMOOTH",
"585.533 1297.92 OFFCURVE",
"573 1145 OFFCURVE",
"556 936 OFFCURVE",
"548 828 QCURVE SMOOTH",
"528.769 568.385 OFFCURVE",
"512 377 OFFCURVE",
"510 329 OFFCURVE",
"507 266 OFFCURVE",
"520 266 QCURVE SMOOTH",
"526 266 OFFCURVE",
"536 276 QCURVE",
"706.265 505.047 OFFCURVE",
"819.632 654.023 QCURVE SMOOTH",
"1002.33 894.111 OFFCURVE",
"1180 1131 QCURVE SMOOTH",
"1216 1180.26 OFFCURVE",
"1216 1259 OFFCURVE",
"1190 1311 OFFCURVE",
"1169 1330 QCURVE SMOOTH",
"1124.79 1370 OFFCURVE",
"1071 1370 QCURVE SMOOTH",
"1048 1370 OFFCURVE",
"1048 1410 OFFCURVE",
"1062 1410 QCURVE SMOOTH",
"1567 1410 LINE SMOOTH",
"1583 1410 OFFCURVE",
"1583 1370 OFFCURVE",
"1561 1370 QCURVE SMOOTH",
"1543 1370 LINE SMOOTH",
"1404.81 1370 OFFCURVE",
"1390 1290 QCURVE",
"1383.83 1104.91 OFFCURVE",
"1351 410 OFFCURVE",
"1347 287 QCURVE SMOOTH",
"1347 274 OFFCURVE",
"1353 274 QCURVE SMOOTH",
"1364.5 274 OFFCURVE",
"1382 302 QCURVE",
"1413 346 LINE SMOOTH",
"1497 466 OFFCURVE",
"1673 704 OFFCURVE",
"1767 843 OFFCURVE",
"1807 898 OFFCURVE",
"1853 962 OFFCURVE",
"1901 1029 OFFCURVE",
"1943 1086 OFFCURVE",
"1974 1129 OFFCURVE",
"1986 1144 OFFCURVE",
"2001 1167 OFFCURVE",
"2009.5 1179 QCURVE SMOOTH",
"2029.33 1207 OFFCURVE",
"2057 1248 OFFCURVE",
"2057 1312 OFFCURVE",
"1998 1370 OFFCURVE",
"1909 1370 OFFCURVE",
"1909 1410 OFFCURVE",
"1929 1410 QCURVE SMOOTH",
"2297 1410 LINE SMOOTH",
"2322 1410 OFFCURVE",
"2322 1370 OFFCURVE",
"2298 1370 QCURVE SMOOTH",
"2229 1370 OFFCURVE",
"2208 1343 QCURVE",
"2030.52 1099.34 OFFCURVE",
"1814.26 795.168 QCURVE SMOOTH",
"1447.4 279.183 OFFCURVE",
"1243 -3 QCURVE SMOOTH",
"1224.54 -27 OFFCURVE",
"1201 -27 QCURVE SMOOTH",
"1178 -27 LINE SMOOTH",
"1158 -27 OFFCURVE",
"1158 -1 QCURVE",
"1159 22 LINE SMOOTH",
"1168 210 OFFCURVE",
"1182 578 OFFCURVE",
"1192 814 OFFCURVE",
"1200 909 OFFCURVE",
"1200 937.5 QCURVE SMOOTH",
"1200 976.5 LINE SMOOTH",
"1200 1019 OFFCURVE",
"1178 1019 OFFCURVE",
"1159 994 OFFCURVE",
"1060 867 OFFCURVE",
"881 629 OFFCURVE",
"702 389 OFFCURVE",
"523 149 OFFCURVE",
"433 32 QCURVE",
"404 -7 LINE SMOOTH",
"389 -27 OFFCURVE",
"353 -27 QCURVE SMOOTH"
);
}
);
width = 2162;
}
);
unicode = 0057;
},
{
glyphname = X;
layers = (
{
layerId = "13B3CF59-E667-4601-B808-7467DBC8B37E";
paths = (
{
closed = 1;
nodes = (
"538 40 LINE SMOOTH",
"556 40 OFFCURVE",
"556 31 QCURVE SMOOTH",
"556 13 LINE SMOOTH",
"556 0 OFFCURVE",
"540 0 QCURVE SMOOTH",
"33 0 LINE SMOOTH",
"20 0 OFFCURVE",
"20 12 QCURVE SMOOTH",
"20 27 LINE SMOOTH",
"20 40 OFFCURVE",
"34 40 QCURVE SMOOTH",
"69 40 LINE SMOOTH",
"166.333 40 OFFCURVE",
"291 172 QCURVE",
"800 718 LINE SMOOTH",
"810 728 OFFCURVE",
"810 740 OFFCURVE",
"806 747 QCURVE SMOOTH",
"528 1274 LINE SMOOTH",
"501.176 1325.41 OFFCURVE",
"469.588 1341.21 QCURVE SMOOTH",
"412 1370 OFFCURVE",
"309 1370 QCURVE SMOOTH",
"290 1370 LINE SMOOTH",
"281 1370 OFFCURVE",
"274 1374 OFFCURVE",
"274 1385 QCURVE SMOOTH",
"274 1397 LINE SMOOTH",
"274 1411 OFFCURVE",
"289 1411 QCURVE SMOOTH",
"885 1410 LINE SMOOTH",
"907 1410 OFFCURVE",
"907 1399 QCURVE SMOOTH",
"907 1384 LINE SMOOTH",
"907 1373 OFFCURVE",
"899 1370 OFFCURVE",
"886 1370 QCURVE SMOOTH",
"794 1370 LINE SMOOTH",
"768 1370 OFFCURVE",
"725 1331 OFFCURVE",
"725 1312 QCURVE SMOOTH",
"725 1282 OFFCURVE",
"763 1205 OFFCURVE",
"829 1085 OFFCURVE",
"861 1020 OFFCURVE",
"875 992 OFFCURVE",
"884 975 QCURVE SMOOTH",
"909.714 926.429 OFFCURVE",
"925 903 OFFCURVE",
"937 882 OFFCURVE",
"939 881 QCURVE",
"945 881 OFFCURVE",
"951 889 OFFCURVE",
"995 934 OFFCURVE",
"1076 1019 OFFCURVE",
"1151 1097 OFFCURVE",
"1212 1160 OFFCURVE",
"1233.5 1183 QCURVE SMOOTH",
"1298 1252 OFFCURVE",
"1298 1336 OFFCURVE",
"1253 1370 OFFCURVE",
"1222 1370 QCURVE SMOOTH",
"1157 1370 LINE SMOOTH",
"1139 1370 OFFCURVE",
"1139 1383 QCURVE SMOOTH",
"1139 1399 LINE SMOOTH",
"1139 1410 OFFCURVE",
"1156 1410 QCURVE SMOOTH",
"1653 1410 LINE SMOOTH",
"1667 1410 OFFCURVE",
"1667 1398 QCURVE SMOOTH",
"1667 1384 LINE SMOOTH",
"1667 1370 OFFCURVE",
"1602 1370 OFFCURVE",
"1561 1363 OFFCURVE",
"1542 1355.5 QCURVE SMOOTH",
"1512.69 1343.93 OFFCURVE",
"1460 1311 QCURVE",
"1446 1296 OFFCURVE",
"1388 1237 OFFCURVE",
"1313 1160 OFFCURVE",
"1226 1070 OFFCURVE",
"1182 1024 QCURVE SMOOTH",
"1008.46 842.567 OFFCURVE",
"987 808 OFFCURVE",
"987 800 QCURVE SMOOTH",
"987 768.692 OFFCURVE",
"1051.5 664.5 QCURVE SMOOTH",
"1058 654 OFFCURVE",
"1083.5 604.5 QCURVE SMOOTH",
"1267.17 247.957 OFFCURVE",
"1335 141 OFFCURVE",
"1384 89 OFFCURVE",
"1420 71 OFFCURVE",
"1458 57 OFFCURVE",
"1477.5 52 QCURVE SMOOTH",
"1524 40.077 OFFCURVE",
"1524 28 QCURVE SMOOTH",
"1524 10 LINE SMOOTH",
"1524 0 OFFCURVE",
"1511 0 QCURVE SMOOTH",
"965 0 LINE SMOOTH",
"952 0 OFFCURVE",
"952 8 QCURVE SMOOTH",
"952 21 LINE SMOOTH",
"952 40 OFFCURVE",
"966 40 QCURVE SMOOTH",
"1005 40 LINE SMOOTH",
"1042.44 40 OFFCURVE",
"1068.72 61.5 QCURVE SMOOTH",
"1117 101 OFFCURVE",
"1117 163 OFFCURVE",
"1107 182 QCURVE SMOOTH",
"1053 284 OFFCURVE",
"946 483 OFFCURVE",
"887 597 OFFCURVE",
"875 617 OFFCURVE",
"868.5 625.5 QCURVE SMOOTH",
"852.824 646 OFFCURVE",
"832 646 OFFCURVE",
"783.5 593 QCURVE SMOOTH",
"496.231 279.077 OFFCURVE",
"436 223 OFFCURVE",
"424.5 208 QCURVE SMOOTH",
"363.069 127.873 OFFCURVE",
"431 69 QCURVE SMOOTH",
"464.462 40 OFFCURVE",
"500 40 QCURVE SMOOTH"
);
}
);
width = 1542;
}
);
unicode = 0058;
},
{
glyphname = Y;
layers = (
{
layerId = "13B3CF59-E667-4601-B808-7467DBC8B37E";
paths = (
{
closed = 1;
nodes = (
"395 0 LINE SMOOTH",
"375 0 OFFCURVE",
"375 15 QCURVE SMOOTH",
"375 27 LINE SMOOTH",
"375 40 OFFCURVE",
"395 40 QCURVE SMOOTH",
"455 40 LINE SMOOTH",
"525.655 40 OFFCURVE",
"581 93.5 QCURVE SMOOTH",
"620.849 132.021 OFFCURVE",
"640 236 OFFCURVE",
"660 331 OFFCURVE",
"668.5 372 QCURVE SMOOTH",
"685.954 456.191 OFFCURVE",
"700 551 QCURVE",
"700 567 OFFCURVE",
"689 589 OFFCURVE",
"664 647 OFFCURVE",
"620 750 OFFCURVE",
"558 893 OFFCURVE",
"473 1090 OFFCURVE",
"400 1257 OFFCURVE",
"370 1308 OFFCURVE",
"352.5 1327 QCURVE SMOOTH",
"313.816 1369 OFFCURVE",
"251 1369 OFFCURVE",
"251 1382 QCURVE SMOOTH",
"251 1395 LINE SMOOTH",
"251 1406.29 OFFCURVE",
"270 1409 QCURVE",
"711 1409 LINE SMOOTH",
"730 1409 OFFCURVE",
"730 1395 QCURVE SMOOTH",
"730 1382 LINE SMOOTH",
"730 1369 OFFCURVE",
"714 1369 QCURVE SMOOTH",
"676 1369 LINE SMOOTH",
"626.733 1369 OFFCURVE",
"603.5 1328 QCURVE SMOOTH",
"595 1313 OFFCURVE",
"595 1267 OFFCURVE",
"641 1164 OFFCURVE",
"694 1042 OFFCURVE",
"720 980.5 QCURVE SMOOTH",
"787.483 820.876 OFFCURVE",
"839 705 OFFCURVE",
"845 690 OFFCURVE",
"848.5 683 QCURVE SMOOTH",
"857 666 OFFCURVE",
"866 666 QCURVE SMOOTH",
"881.286 666 OFFCURVE",
"923 718 OFFCURVE",
"960 761 OFFCURVE",
"992 799 OFFCURVE",
"1014 825 OFFCURVE",
"1106 933 OFFCURVE",
"1263 1124 OFFCURVE",
"1352 1227 OFFCURVE",
"1366 1267 OFFCURVE",
"1366 1321 OFFCURVE",
"1326 1369 OFFCURVE",
"1286 1369 QCURVE SMOOTH",
"1249 1369 LINE SMOOTH",
"1229 1369 OFFCURVE",
"1229 1383 QCURVE SMOOTH",
"1229 1396 LINE SMOOTH",
"1229 1410 OFFCURVE",
"1249 1410 QCURVE SMOOTH",
"1619 1410 LINE SMOOTH",
"1626 1410 OFFCURVE",
"1634 1401 OFFCURVE",
"1634 1398 QCURVE SMOOTH",
"1634 1385 LINE SMOOTH",
"1634 1374 OFFCURVE",
"1622 1368 OFFCURVE",
"1612.5 1366 QCURVE SMOOTH",
"1576.69 1358.46 OFFCURVE",
"1544 1337 OFFCURVE",
"1504 1298 OFFCURVE",
"1483.5 1276 QCURVE SMOOTH",
"1454.9 1245.31 OFFCURVE",
"1280 1034 OFFCURVE",
"1008 714 OFFCURVE",
"882 563 QCURVE",
"864 471 OFFCURVE",
"844.5 382.5 QCURVE SMOOTH",
"802 189.615 OFFCURVE",
"802 105 OFFCURVE",
"890 40 OFFCURVE",
"971 40 QCURVE SMOOTH",
"1018 40 LINE SMOOTH",
"1036 40 OFFCURVE",
"1036 27 QCURVE SMOOTH",
"1036 13 LINE SMOOTH",
"1036 0 OFFCURVE",
"1020 0 QCURVE SMOOTH"
);
}
);
width = 1484;
}
);
unicode = 0059;
},
{
glyphname = Z;
layers = (
{
layerId = "13B3CF59-E667-4601-B808-7467DBC8B37E";
paths = (
{
closed = 1;
nodes = (
"47 0 LINE SMOOTH",
"20 0 OFFCURVE",
"20 56 OFFCURVE",
"41 84 OFFCURVE",
"54 97 QCURVE SMOOTH",
"1151 1248 LINE",
"1221 1318 OFFCURVE",
"1221 1355 OFFCURVE",
"1184 1355 QCURVE SMOOTH",
"767 1355 LINE SMOOTH",
"657.917 1355 OFFCURVE",
"601.958 1329.5 QCURVE SMOOTH",
"505.713 1285.64 OFFCURVE",
"444 1195 QCURVE SMOOTH",
"432.134 1178.39 OFFCURVE",
"374 1056 OFFCURVE",
"367 1045.5 QCURVE SMOOTH",
"353.333 1025 OFFCURVE",
"340.167 1025 QCURVE SMOOTH",
"312 1025 OFFCURVE",
"312 1038 QCURVE",
"313 1042 OFFCURVE",
"317 1061 OFFCURVE",
"326 1101 OFFCURVE",
"342 1175 OFFCURVE",
"367 1286 OFFCURVE",
"388 1380 OFFCURVE",
"394 1395 OFFCURVE",
"401 1400 QCURVE SMOOTH",
"413.6 1409 OFFCURVE",
"459 1409 QCURVE SMOOTH",
"1457 1409 LINE SMOOTH",
"1489 1409 OFFCURVE",
"1489 1378 QCURVE SMOOTH",
"1489 1352 OFFCURVE",
"1475 1338 QCURVE SMOOTH",
"391 199 LINE",
"307 115 OFFCURVE",
"307 76.5 OFFCURVE",
"319 75 QCURVE",
"943 75 LINE SMOOTH",
"1172.47 75 OFFCURVE",
"1317 346 QCURVE",
"1324 357 OFFCURVE",
"1335 381 OFFCURVE",
"1342 391 QCURVE SMOOTH",
"1358.1 414 OFFCURVE",
"1403 414 OFFCURVE",
"1403 397 QCURVE SMOOTH",
"1403 390 OFFCURVE",
"1400 380 QCURVE SMOOTH",
"1303 28 LINE SMOOTH",
"1294.38 0 OFFCURVE",
"1266 0 QCURVE SMOOTH"
);
}
);
width = 1479;
}
);
unicode = 005A;
},
{
glyphname = uni0162;
layers = (
{
layerId = "13B3CF59-E667-4601-B808-7467DBC8B37E";
paths = (
{
closed = 1;
nodes = (
"506 -532 QCURVE",
"450 -532 OFFCURVE",
"450 -492 QCURVE SMOOTH",
"450 -488 OFFCURVE",
"470 -467 OFFCURVE",
"486 -464 QCURVE SMOOTH",
"623.852 -438.153 OFFCURVE",
"669 -415 OFFCURVE",
"684 -400 QCURVE SMOOTH",
"718 -366 OFFCURVE",
"718 -299 OFFCURVE",
"693 -260 OFFCURVE",
"675 -246 QCURVE SMOOTH",
"641.5 -219.944 OFFCURVE",
"597 -215 QCURVE",
"645 0 LINE",
"708 0 LINE",
"674 -154 LINE",
"785.996 -184.048 OFFCURVE",
"816.5 -263 QCURVE SMOOTH",
"825 -285 OFFCURVE",
"825 -363 OFFCURVE",
"767 -444 OFFCURVE",
"721 -470.5 QCURVE SMOOTH",
"639.532 -517.433 OFFCURVE"
);
},
{
closed = 1;
nodes = (
"340 32 LINE SMOOTH",
"340 40 OFFCURVE",
"349.5 40 QCURVE SMOOTH",
"376.5 40 LINE SMOOTH",
"467.946 40 OFFCURVE",
"533.5 89.5 QCURVE SMOOTH",
"583.442 127.212 OFFCURVE",
"594 180 QCURVE SMOOTH",
"830 1287 LINE SMOOTH",
"831 1290 OFFCURVE",
"831 1295 QCURVE SMOOTH",
"831 1315 OFFCURVE",
"800 1315 QCURVE SMOOTH",
"506 1315 LINE SMOOTH",
"431.048 1315 OFFCURVE",
"369.5 1243 QCURVE SMOOTH",
"308.651 1171.82 OFFCURVE",
"295 1086.5 QCURVE SMOOTH",
"292.452 1070.58 OFFCURVE",
"283 1069 OFFCURVE",
"281 1069 QCURVE SMOOTH",
"258 1069 LINE SMOOTH",
"251 1069 OFFCURVE",
"251 1076 QCURVE",
"298.125 1308 OFFCURVE",
"313 1376 QCURVE SMOOTH",
"322 1419 LINE SMOOTH",
"327.455 1449 OFFCURVE",
"348 1449 QCURVE SMOOTH",
"355 1449 OFFCURVE",
"366 1437 OFFCURVE",
"374 1429.5 QCURVE SMOOTH",
"394.8 1410 OFFCURVE",
"435 1410 QCURVE SMOOTH",
"1486 1410 LINE SMOOTH",
"1527.8 1410 OFFCURVE",
"1553 1437 OFFCURVE",
"1563 1449 OFFCURVE",
"1573 1449 QCURVE SMOOTH",
"1599 1449 OFFCURVE",
"1599 1426 QCURVE SMOOTH",
"1599 1422.23 OFFCURVE",
"1591.5 1387.62 QCURVE SMOOTH",
"1571.55 1295.55 OFFCURVE",
"1533 1106 QCURVE",
"1527 1079 LINE SMOOTH",
"1525.75 1069 OFFCURVE",
"1516 1069 QCURVE SMOOTH",
"1503 1069 LINE SMOOTH",
"1488.55 1069 OFFCURVE",
"1467 1212 OFFCURVE",
"1456.5 1243 QCURVE SMOOTH",
"1432.11 1315 OFFCURVE",
"1378 1315 QCURVE SMOOTH",
"1063 1315 LINE SMOOTH",
"1050 1315 OFFCURVE",
"1030 1308 OFFCURVE",
"1025 1287 QCURVE SMOOTH",
"981 1079 OFFCURVE",
"913 762 OFFCURVE",
"863 527 OFFCURVE",
"829 365 OFFCURVE",
"806 260 OFFCURVE",
"794 202 OFFCURVE",
"791 188.5 QCURVE SMOOTH",
"786 166 OFFCURVE",
"786 136 OFFCURVE",
"828 96 OFFCURVE",
"858 80 QCURVE SMOOTH",
"933 40 OFFCURVE",
"1006 40 QCURVE SMOOTH",
"1035 40 LINE SMOOTH",
"1043 40 OFFCURVE",
"1043 32 QCURVE SMOOTH",
"1043 8 LINE SMOOTH",
"1043 0 OFFCURVE",
"1035 0 QCURVE SMOOTH",
"348 0 LINE SMOOTH",
"340 0 OFFCURVE",
"340 8 QCURVE SMOOTH"
);
}
);
width = 1502;
}
);
unicode = 0162;
},
{
glyphname = uni0186;
layers = (
{
layerId = "13B3CF59-E667-4601-B808-7467DBC8B37E";
paths = (
{
closed = 1;
nodes = (
"304 1010 QCURVE SMOOTH",
"294.727 993 OFFCURVE",
"273.5 993 QCURVE SMOOTH",
"262 993 OFFCURVE",
"263 1042 QCURVE SMOOTH",
"264.658 1123.24 OFFCURVE",
"322 1298 QCURVE SMOOTH",
"339.739 1352.99 OFFCURVE",
"474 1393.5 QCURVE SMOOTH",
"667.886 1452 OFFCURVE",
"906 1452 QCURVE SMOOTH",
"1182.26 1452 OFFCURVE",
"1368 1306.5 QCURVE SMOOTH",
"1563 1153.75 OFFCURVE",
"1563 912 QCURVE SMOOTH",
"1563 467.753 OFFCURVE",
"1134 193 QCURVE SMOOTH",
"880.295 30.515 OFFCURVE",
"589.5 -16.5 QCURVE SMOOTH",
"506 -30 OFFCURVE",
"395 -30 OFFCURVE",
"321 -11 OFFCURVE",
"285.5 1 QCURVE SMOOTH",
"193.792 32 OFFCURVE",
"125 32 QCURVE",
"36 20 LINE",
"27 20 OFFCURVE",
"25 28 QCURVE",
"99 371 LINE",
"102.692 395 OFFCURVE",
"167 395 OFFCURVE",
"167 367 QCURVE SMOOTH",
"167 218.64 OFFCURVE",
"257 125.5 QCURVE SMOOTH",
"348.315 31 OFFCURVE",
"495 31 QCURVE SMOOTH",
"700.415 31 OFFCURVE",
"906.5 157 QCURVE SMOOTH",
"1106.66 279.378 OFFCURVE",
"1233 475 QCURVE SMOOTH",
"1366 680.935 OFFCURVE",
"1366 896 QCURVE SMOOTH",
"1366 1111.3 OFFCURVE",
"1221 1250 QCURVE SMOOTH",
"1074.64 1390 OFFCURVE",
"838 1390 QCURVE SMOOTH",
"742.875 1390 OFFCURVE",
"656.938 1352.5 QCURVE SMOOTH",
"508.907 1287.91 OFFCURVE",
"431 1208 QCURVE SMOOTH",
"387 1162 OFFCURVE",
"330 1061 OFFCURVE"
);
}
);
width = 1518;
}
);
unicode = 0186;
},
{
glyphname = uni0197;
layers = (
{
layerId = "13B3CF59-E667-4601-B808-7467DBC8B37E";
paths = (
{
closed = 1;
nodes = (
"810 1410 LINE SMOOTH",
"816.5 1410 OFFCURVE",
"816.5 1403 OFFCURVE",
"816 1402 QCURVE SMOOTH",
"811 1378 LINE SMOOTH",
"809 1370 OFFCURVE",
"766 1370 OFFCURVE",
"707 1361 OFFCURVE",
"684 1346 QCURVE SMOOTH",
"636.312 1314.9 OFFCURVE",
"618 1227 QCURVE SMOOTH",
"515 750 LINE",
"693 750 LINE SMOOTH",
"702 750 OFFCURVE",
"716 736 OFFCURVE",
"714 725 QCURVE SMOOTH",
"708 700 LINE SMOOTH",
"703 675 OFFCURVE",
"687 675 QCURVE SMOOTH",
"499 675 LINE",
"389 160 LINE SMOOTH",
"384.346 141.385 OFFCURVE",
"384.346 105.635 OFFCURVE",
"408 67 OFFCURVE",
"437 55.5 QCURVE SMOOTH",
"476.087 40 OFFCURVE",
"571 40 QCURVE SMOOTH",
"579 40 OFFCURVE",
"577 32 QCURVE SMOOTH",
"572 8 LINE SMOOTH",
"569.333 0 OFFCURVE",
"563 0 QCURVE SMOOTH",
"27 0 LINE SMOOTH",
"20 0 OFFCURVE",
"20 8 QCURVE",
"25 32 LINE",
"29 40 OFFCURVE",
"70 40 OFFCURVE",
"129 49 OFFCURVE",
"152.5 64 QCURVE SMOOTH",
"200.605 94.705 OFFCURVE",
"219 183 QCURVE SMOOTH",
"324 675 LINE",
"152 675 LINE SMOOTH",
"142 675 OFFCURVE",
"129 689 OFFCURVE",
"131 700 QCURVE SMOOTH",
"136 725 LINE SMOOTH",
"141 750 OFFCURVE",
"158 750 QCURVE SMOOTH",
"340 750 LINE",
"447 1250 LINE",
"463.235 1316.74 OFFCURVE",
"404 1347.5 QCURVE SMOOTH",
"360.667 1370 OFFCURVE",
"280 1370 QCURVE SMOOTH",
"272 1370 OFFCURVE",
"274 1378 QCURVE SMOOTH",
"279 1402 LINE SMOOTH",
"281 1410 OFFCURVE",
"289 1410 QCURVE SMOOTH"
);
}
);
width = 667;
}
);
unicode = 0197;
},
{
glyphname = uni01A6;
layers = (
{
layerId = "13B3CF59-E667-4601-B808-7467DBC8B37E";
paths = (
{
closed = 1;
nodes = (
"499 1509 QCURVE SMOOTH",
"499 1605 OFFCURVE",
"328 1605 QCURVE SMOOTH",
"322 1605 OFFCURVE",
"322 1613 QCURVE",
"327 1637 LINE SMOOTH",
"329 1645 OFFCURVE",
"337 1645 QCURVE SMOOTH",
"858 1645 LINE SMOOTH",
"864 1645 OFFCURVE",
"864 1637 QCURVE",
"859 1613 LINE SMOOTH",
"857 1605 OFFCURVE",
"814 1605 OFFCURVE",
"755 1596 OFFCURVE",
"732 1581 QCURVE SMOOTH",
"684.312 1549.9 OFFCURVE",
"666 1462 QCURVE",
"654 1409 LINE",
"742 1409 LINE SMOOTH",
"1249 1409 OFFCURVE",
"1249 1072 QCURVE SMOOTH",
"1249 913.372 OFFCURVE",
"1054.5 778.5 QCURVE SMOOTH",
"986 731 OFFCURVE",
"881 678 OFFCURVE",
"861 664 OFFCURVE",
"861 656 QCURVE SMOOTH",
"861 639.857 OFFCURVE",
"883 603 OFFCURVE",
"925 536 OFFCURVE",
"981 451 OFFCURVE",
"1050 354 OFFCURVE",
"1127 258 OFFCURVE",
"1209 170 OFFCURVE",
"1250.5 136 QCURVE SMOOTH",
"1340.82 62 OFFCURVE",
"1408 62 QCURVE SMOOTH",
"1434 62 LINE SMOOTH",
"1473.5 62 OFFCURVE",
"1487 44 OFFCURVE",
"1487 36 QCURVE SMOOTH",
"1486 26 LINE",
"1486 20 LINE",
"1483 0 OFFCURVE",
"1455 0 QCURVE SMOOTH",
"1380 0 LINE SMOOTH",
"1162 0 OFFCURVE",
"1013.5 148.5 QCURVE SMOOTH",
"964 198 OFFCURVE",
"888 308 OFFCURVE",
"824 389 OFFCURVE",
"799 429 QCURVE SMOOTH",
"737.571 527.286 OFFCURVE",
"684 604 OFFCURVE",
"676 620 OFFCURVE",
"670.5 626.5 QCURVE SMOOTH",
"658.231 641 OFFCURVE",
"637 641 QCURVE SMOOTH",
"508 635 LINE SMOOTH",
"491 635 OFFCURVE",
"485 609 QCURVE SMOOTH",
"389 160 LINE SMOOTH",
"385 144 OFFCURVE",
"385 95 OFFCURVE",
"421 60 OFFCURVE",
"449 51.5 QCURVE SMOOTH",
"486.882 40 OFFCURVE",
"571 40 QCURVE SMOOTH",
"577 40 OFFCURVE",
"577 32 QCURVE",
"572 8 LINE SMOOTH",
"569.333 0 OFFCURVE",
"563 0 QCURVE SMOOTH",
"27 0 LINE SMOOTH",
"20 0 OFFCURVE",
"20 8 QCURVE",
"25 32 LINE",
"29 40 OFFCURVE",
"70 40 OFFCURVE",
"129 49 OFFCURVE",
"152.5 64 QCURVE SMOOTH",
"200.605 94.705 OFFCURVE",
"219 183 QCURVE SMOOTH",
"224 206 LINE SMOOTH",
"228 224 OFFCURVE",
"238 275 OFFCURVE",
"260 377 OFFCURVE",
"295 546 OFFCURVE",
"324 682 QCURVE SMOOTH",
"394.641 1013.28 OFFCURVE",
"499 1497 OFFCURVE"
);
},
{
closed = 1;
nodes = (
"778 1362 QCURVE",
"728 1363 LINE",
"668.667 1363 OFFCURVE",
"637 1328 OFFCURVE",
"634 1312 QCURVE SMOOTH",
"603 1165 OFFCURVE",
"561 965 OFFCURVE",
"533 835 OFFCURVE",
"518 765 OFFCURVE",
"511 732 OFFCURVE",
"509 725 OFFCURVE",
"509 723 QCURVE SMOOTH",
"508 716 LINE",
"508 686 OFFCURVE",
"545 686 QCURVE SMOOTH",
"549 686 LINE SMOOTH",
"720.108 686 OFFCURVE",
"884 786.5 QCURVE SMOOTH",
"994.653 854.353 OFFCURVE",
"1042.5 952 QCURVE SMOOTH",
"1067 1002 OFFCURVE",
"1067 1128 OFFCURVE",
"1029 1240 OFFCURVE",
"992 1279.5 QCURVE SMOOTH",
"914.722 1362 OFFCURVE"
);
}
);
width = 1507;
}
);
unicode = 01A6;
},
{
glyphname = uni01B5;
layers = (
{
layerId = "13B3CF59-E667-4601-B808-7467DBC8B37E";
paths = (
{
closed = 1;
nodes = (
"47 0 LINE SMOOTH",
"20 0 OFFCURVE",
"20 56 OFFCURVE",
"41 84 OFFCURVE",
"54 97 QCURVE SMOOTH",
"605 675 LINE",
"333 675 LINE SMOOTH",
"323 675 OFFCURVE",
"310 689 OFFCURVE",
"312 700 QCURVE SMOOTH",
"317 725 LINE SMOOTH",
"322 750 OFFCURVE",
"339 750 QCURVE SMOOTH",
"676 750 LINE",
"1151 1248 LINE",
"1221 1318 OFFCURVE",
"1221 1355 OFFCURVE",
"1184 1355 QCURVE SMOOTH",
"767 1355 LINE SMOOTH",
"657.917 1355 OFFCURVE",
"601.958 1329.5 QCURVE SMOOTH",
"505.713 1285.64 OFFCURVE",
"444 1195 QCURVE SMOOTH",
"432.134 1178.39 OFFCURVE",
"374 1056 OFFCURVE",
"367 1045.5 QCURVE SMOOTH",
"353.333 1025 OFFCURVE",
"325 1025 OFFCURVE",
"310 1031 OFFCURVE",
"313 1044 QCURVE SMOOTH",
"385 1368 LINE SMOOTH",
"391.261 1393.04 OFFCURVE",
"399.63 1399.02 QCURVE SMOOTH",
"413.6 1409 OFFCURVE",
"459 1409 QCURVE SMOOTH",
"1457 1409 LINE SMOOTH",
"1489 1409 OFFCURVE",
"1489 1378 QCURVE SMOOTH",
"1489 1352 OFFCURVE",
"1475 1338 QCURVE SMOOTH",
"915 750 LINE",
"1195 750 LINE SMOOTH",
"1204 750 OFFCURVE",
"1218 736 OFFCURVE",
"1216 725 QCURVE SMOOTH",
"1210 700 LINE SMOOTH",
"1205 675 OFFCURVE",
"1189 675 QCURVE SMOOTH",
"844 675 LINE",
"391 199 LINE",
"307 115 OFFCURVE",
"307 76.5 OFFCURVE",
"319 75 QCURVE",
"943 75 LINE SMOOTH",
"1172.47 75 OFFCURVE",
"1317 346 QCURVE",
"1324 357 OFFCURVE",
"1335 381 OFFCURVE",
"1342 391 QCURVE SMOOTH",
"1358.1 414 OFFCURVE",
"1403 414 OFFCURVE",
"1403 397 QCURVE SMOOTH",
"1403 390 OFFCURVE",
"1400 380 QCURVE SMOOTH",
"1303 28 LINE SMOOTH",
"1294.38 0 OFFCURVE",
"1266 0 QCURVE SMOOTH"
);
}
);
width = 1530;
}
);
unicode = 01B5;
},
{
glyphname = uni01B7;
layers = (
{
layerId = "13B3CF59-E667-4601-B808-7467DBC8B37E";
paths = (
{
closed = 1;
nodes = (
"602 844 QCURVE",
"611 850 OFFCURVE",
"736 850 OFFCURVE",
"849 798 OFFCURVE",
"887 753 QCURVE SMOOTH",
"964 661.816 OFFCURVE",
"964 524 QCURVE SMOOTH",
"964 316 OFFCURVE",
"803 155 QCURVE SMOOTH",
"690.478 42.478 OFFCURVE",
"509.5 -3.5 QCURVE SMOOTH",
"417 -27 OFFCURVE",
"267 -27 OFFCURVE",
"177 -10 OFFCURVE",
"139 11 QCURVE SMOOTH",
"50 60.184 OFFCURVE",
"50 162 QCURVE SMOOTH",
"50 213.448 OFFCURVE",
"105.5 234.5 QCURVE SMOOTH",
"120 240 OFFCURVE",
"159 240 OFFCURVE",
"193 210 OFFCURVE",
"222 165 OFFCURVE",
"252 113 OFFCURVE",
"272.5 90.5 QCURVE SMOOTH",
"320.333 38 OFFCURVE",
"393 38 QCURVE",
"580.377 47.464 OFFCURVE",
"692.5 194 QCURVE SMOOTH",
"795 327.96 OFFCURVE",
"795 509 QCURVE SMOOTH",
"795 695 OFFCURVE",
"691.5 761 QCURVE SMOOTH",
"657 783 OFFCURVE",
"544 783 OFFCURVE",
"458 761 OFFCURVE",
"398 731 OFFCURVE",
"378 715.5 QCURVE SMOOTH",
"346.387 691 OFFCURVE",
"325 691 OFFCURVE",
"313 707 OFFCURVE",
"308.5 717.5 QCURVE SMOOTH",
"299 739.667 OFFCURVE",
"299 766 OFFCURVE",
"301 767 QCURVE SMOOTH",
"462.435 872.284 OFFCURVE",
"742 1124.5 QCURVE SMOOTH",
"899 1266.14 OFFCURVE",
"899 1300 QCURVE SMOOTH",
"899 1305 OFFCURVE",
"895 1305 QCURVE SMOOTH",
"503 1305 LINE SMOOTH",
"419.623 1305 OFFCURVE",
"366 1203.5 QCURVE SMOOTH",
"328.81 1133.1 OFFCURVE",
"306 1102 OFFCURVE",
"287 1102 OFFCURVE",
"287 1106 QCURVE",
"415 1440 LINE SMOOTH",
"419 1452 OFFCURVE",
"445 1452 OFFCURVE",
"452 1439 OFFCURVE",
"455 1431 QCURVE SMOOTH",
"462.875 1410 OFFCURVE",
"480 1410 QCURVE SMOOTH",
"1149 1410 LINE SMOOTH",
"1159 1410 OFFCURVE",
"1159 1389 OFFCURVE",
"1152 1370 OFFCURVE",
"1118 1332 OFFCURVE",
"1049 1265 OFFCURVE",
"987 1207 QCURVE SMOOTH",
"826.151 1056.53 OFFCURVE"
);
}
);
width = 1089;
}
);
unicode = 01B7;
},
{
glyphname = uni01F6;
layers = (
{
layerId = "13B3CF59-E667-4601-B808-7467DBC8B37E";
paths = (
{
closed = 1;
nodes = (
"1336 103 QCURVE SMOOTH",
"1336 74 OFFCURVE",
"1423 74 OFFCURVE",
"1540 144 OFFCURVE",
"1655 257 OFFCURVE",
"1762 400 OFFCURVE",
"1803 473.5 QCURVE SMOOTH",
"1893 634.841 OFFCURVE",
"1893 733 QCURVE SMOOTH",
"1893 736 OFFCURVE",
"1878 749 OFFCURVE",
"1868.5 758 QCURVE SMOOTH",
"1844 781.211 OFFCURVE",
"1844 824 OFFCURVE",
"1861 860 OFFCURVE",
"1875 872.5 QCURVE SMOOTH",
"1905.8 900 OFFCURVE",
"1962 900 OFFCURVE",
"1997 882 OFFCURVE",
"2012 864 QCURVE SMOOTH",
"2047 822 OFFCURVE",
"2047 697 OFFCURVE",
"2010 611 OFFCURVE",
"1964 530 OFFCURVE",
"1886 405 OFFCURVE",
"1784 271 OFFCURVE",
"1660 140 OFFCURVE",
"1589 88.5 QCURVE SMOOTH",
"1429.77 -27 OFFCURVE",
"1274 -27 QCURVE SMOOTH",
"1166 -27 OFFCURVE",
"1166 83 QCURVE SMOOTH",
"1166 123.667 OFFCURVE",
"1205 303 OFFCURVE",
"1234 443 OFFCURVE",
"1253 536 OFFCURVE",
"1264 588 OFFCURVE",
"1266.5 602 QCURVE SMOOTH",
"1270 621.6 OFFCURVE",
"1270 627 QCURVE SMOOTH",
"1270 688 OFFCURVE",
"1218 688 QCURVE SMOOTH",
"555 688 LINE SMOOTH",
"504.674 688 OFFCURVE",
"486.5 612 QCURVE SMOOTH",
"475.073 564.212 OFFCURVE",
"423 316 OFFCURVE",
"403 222 OFFCURVE",
"392 168 OFFCURVE",
"389.5 154.5 QCURVE SMOOTH",
"386 135.6 OFFCURVE",
"386 98 OFFCURVE",
"422 61 OFFCURVE",
"449.5 52 QCURVE SMOOTH",
"486.167 40 OFFCURVE",
"571 40 QCURVE SMOOTH",
"577 40 OFFCURVE",
"577 32 QCURVE",
"572 8 LINE SMOOTH",
"569.333 0 OFFCURVE",
"563 0 QCURVE SMOOTH",
"27 0 LINE SMOOTH",
"20 0 OFFCURVE",
"20 8 QCURVE",
"25 32 LINE",
"29 40 OFFCURVE",
"70 40 OFFCURVE",
"129 49 OFFCURVE",
"152 64 QCURVE SMOOTH",
"200.845 95.855 OFFCURVE",
"219 183 QCURVE SMOOTH",
"446 1250 LINE SMOOTH",
"450 1266 OFFCURVE",
"450 1277 QCURVE SMOOTH",
"450 1370 OFFCURVE",
"284 1370 QCURVE SMOOTH",
"274 1370 OFFCURVE",
"274 1380 QCURVE",
"279 1402 LINE SMOOTH",
"281 1410 OFFCURVE",
"289 1410 QCURVE SMOOTH",
"810 1410 LINE SMOOTH",
"816 1410 OFFCURVE",
"816 1402 QCURVE",
"811 1378 LINE SMOOTH",
"809 1370 OFFCURVE",
"766 1370 OFFCURVE",
"706 1361 OFFCURVE",
"683 1346 QCURVE SMOOTH",
"634.155 1314.14 OFFCURVE",
"595 1124 OFFCURVE",
"564 982 OFFCURVE",
"544 887 OFFCURVE",
"533 834 OFFCURVE",
"527 808 OFFCURVE",
"526 804 QCURVE SMOOTH",
"523 792 OFFCURVE",
"523 786 QCURVE SMOOTH",
"523 764 OFFCURVE",
"554 764 QCURVE SMOOTH",
"1266 764 LINE SMOOTH",
"1302 764 OFFCURVE",
"1347 973 OFFCURVE",
"1375 1105 OFFCURVE",
"1393 1192 OFFCURVE",
"1403 1240 OFFCURVE",
"1405.5 1252.5 QCURVE SMOOTH",
"1409 1270 OFFCURVE",
"1409 1274 QCURVE SMOOTH",
"1409 1370 OFFCURVE",
"1239 1370 QCURVE SMOOTH",
"1233 1370 OFFCURVE",
"1233 1378 QCURVE",
"1238 1402 LINE SMOOTH",
"1240 1410 OFFCURVE",
"1248 1410 QCURVE SMOOTH",
"1769 1410 LINE SMOOTH",
"1775 1410 OFFCURVE",
"1775 1402 QCURVE",
"1770 1378 LINE SMOOTH",
"1768 1370 OFFCURVE",
"1725 1370 OFFCURVE",
"1669 1361 OFFCURVE",
"1646.5 1346.5 QCURVE SMOOTH",
"1601.33 1317.39 OFFCURVE",
"1575 1229 QCURVE",
"1337 113 LINE SMOOTH",
"1336 109 OFFCURVE"
);
}
);
width = 1989;
}
);
unicode = 01F6;
},
{
glyphname = uni01F7;
layers = (
{
layerId = "13B3CF59-E667-4601-B808-7467DBC8B37E";
paths = (
{
closed = 1;
nodes = (
"646 1436 QCURVE",
"602 1218 LINE",
"602 1205 OFFCURVE",
"624.172 1205 OFFCURVE",
"793 1301 OFFCURVE",
"842 1323.5 QCURVE SMOOTH",
"951.978 1374 OFFCURVE",
"1095 1374 OFFCURVE",
"1194 1329 OFFCURVE",
"1229 1290 QCURVE SMOOTH",
"1301 1209.77 OFFCURVE",
"1301 1083 QCURVE SMOOTH",
"1301 985.968 OFFCURVE",
"1257 871 OFFCURVE",
"1204 787 OFFCURVE",
"1163 735.5 QCURVE SMOOTH",
"1102.28 659.231 OFFCURVE",
"867 400 OFFCURVE",
"729 280 OFFCURVE",
"599 180 OFFCURVE",
"482 96 OFFCURVE",
"436.5 58.5 QCURVE SMOOTH",
"337.815 -22.834 OFFCURVE",
"324 -85 QCURVE SMOOTH",
"279 -298 LINE SMOOTH",
"262.455 -374.106 OFFCURVE",
"204 -413.5 QCURVE SMOOTH",
"181 -429 OFFCURVE",
"129 -451 OFFCURVE",
"74 -475 OFFCURVE",
"14 -504 OFFCURVE",
"-45 -533 OFFCURVE",
"-93 -556 OFFCURVE",
"-123 -571 QCURVE",
"-130 -571 OFFCURVE",
"-130 -563 QCURVE",
"-120 -513 LINE",
"-116.615 -502.846 OFFCURVE",
"-67 -484 OFFCURVE",
"1 -449 OFFCURVE",
"28 -424.5 QCURVE SMOOTH",
"85.365 -372.446 OFFCURVE",
"104 -283 QCURVE SMOOTH",
"410 1159 LINE SMOOTH",
"412 1169 OFFCURVE",
"412 1199 OFFCURVE",
"384 1224 OFFCURVE",
"342 1239 OFFCURVE",
"293 1248 OFFCURVE",
"280 1252.5 QCURVE SMOOTH",
"260 1259.42 OFFCURVE",
"260 1290 OFFCURVE",
"284 1301 QCURVE SMOOTH",
"611 1446 LINE SMOOTH",
"616 1448 OFFCURVE",
"628 1453 OFFCURVE",
"630 1453 QCURVE SMOOTH",
"646 1453 OFFCURVE"
);
},
{
closed = 1;
nodes = (
"911 1252 QCURVE",
"787.427 1239.39 OFFCURVE",
"668.5 1167 QCURVE SMOOTH",
"586.562 1117.12 OFFCURVE",
"575 1094 OFFCURVE",
"574 1089 QCURVE SMOOTH",
"386 203 LINE SMOOTH",
"376 158 OFFCURVE",
"367.184 111.959 OFFCURVE",
"367.007 111.959 QCURVE SMOOTH",
"428.5 148 LINE",
"581.971 263.554 OFFCURVE",
"781.5 490.5 QCURVE SMOOTH",
"1119 874.374 OFFCURVE",
"1119 1053 QCURVE SMOOTH",
"1119 1154 OFFCURVE",
"1008 1252 OFFCURVE"
);
}
);
width = 1311;
}
);
unicode = 01F7;
},
{
glyphname = uni0222;
layers = (
{
layerId = "13B3CF59-E667-4601-B808-7467DBC8B37E";
paths = (
{
closed = 1;
nodes = (
"1182 1397 QCURVE",
"1130.86 969.263 OFFCURVE",
"826 909 QCURVE",
"957 864 OFFCURVE",
"1094 676 OFFCURVE",
"1094 430 OFFCURVE",
"1004 233 OFFCURVE",
"927 159 QCURVE SMOOTH",
"761.554 0 OFFCURVE",
"530 0 QCURVE SMOOTH",
"336.144 0 OFFCURVE",
"206 116.5 QCURVE SMOOTH",
"71 237.347 OFFCURVE",
"71 423 QCURVE SMOOTH",
"71 611.025 OFFCURVE",
"202.5 761 QCURVE SMOOTH",
"330.956 907.504 OFFCURVE",
"518 938 QCURVE",
"365.633 1001.05 OFFCURVE",
"344.5 1194.5 QCURVE SMOOTH",
"338 1254 OFFCURVE",
"338 1350 OFFCURVE",
"342 1392 OFFCURVE",
"354 1422 OFFCURVE",
"364.5 1435 QCURVE SMOOTH",
"389.538 1466 OFFCURVE",
"452 1466 OFFCURVE",
"481 1420 OFFCURVE",
"488 1391.5 QCURVE SMOOTH",
"498 1350.79 OFFCURVE",
"498 1225 OFFCURVE",
"510 1092 OFFCURVE",
"532.5 1045 QCURVE SMOOTH",
"579.894 946 OFFCURVE",
"715 946 QCURVE SMOOTH",
"846.656 946 OFFCURVE",
"904.5 1047.5 QCURVE SMOOTH",
"931 1094 OFFCURVE",
"964 1217 OFFCURVE",
"993 1312 OFFCURVE",
"1022 1368 OFFCURVE",
"1042 1390.5 QCURVE SMOOTH",
"1087.78 1442 OFFCURVE",
"1148 1442 QCURVE SMOOTH",
"1182 1442 OFFCURVE"
);
},
{
closed = 1;
nodes = (
"922 586 QCURVE SMOOTH",
"922 902 OFFCURVE",
"622 902 QCURVE SMOOTH",
"429.993 902 OFFCURVE",
"329.5 748.5 QCURVE SMOOTH",
"241 613.319 OFFCURVE",
"241 406 QCURVE SMOOTH",
"241 149.556 OFFCURVE",
"400 73 QCURVE SMOOTH",
"454 47 OFFCURVE",
"630 47 OFFCURVE",
"779 144 OFFCURVE",
"827.5 221.5 QCURVE SMOOTH",
"922 372.505 OFFCURVE"
);
}
);
width = 1082;
}
);
unicode = 0222;
},
{
glyphname = uni0224;
layers = (
{
layerId = "13B3CF59-E667-4601-B808-7467DBC8B37E";
paths = (
{
closed = 1;
nodes = (
"1113 -431 LINE",
"1269 -285.833 OFFCURVE",
"1269 -115 QCURVE SMOOTH",
"1269 -62.667 OFFCURVE",
"1253 -41.333 QCURVE SMOOTH",
"1222 0 OFFCURVE",
"1151 0 QCURVE SMOOTH",
"47 0 LINE SMOOTH",
"20 0 OFFCURVE",
"20 56 OFFCURVE",
"41 84 OFFCURVE",
"54 97 QCURVE SMOOTH",
"1151 1248 LINE",
"1221 1318 OFFCURVE",
"1221 1355 OFFCURVE",
"1184 1355 QCURVE SMOOTH",
"767 1355 LINE SMOOTH",
"657.917 1355 OFFCURVE",
"601.958 1329.5 QCURVE SMOOTH",
"505.713 1285.64 OFFCURVE",
"444 1195 QCURVE SMOOTH",
"432.134 1178.39 OFFCURVE",
"374 1056 OFFCURVE",
"367 1045.5 QCURVE SMOOTH",
"353.333 1025 OFFCURVE",
"340.167 1025 QCURVE SMOOTH",
"312 1025 OFFCURVE",
"312 1038 QCURVE",
"313 1042 OFFCURVE",
"317 1061 OFFCURVE",
"326 1101 OFFCURVE",
"342 1175 OFFCURVE",
"367 1286 OFFCURVE",
"388 1380 OFFCURVE",
"394 1395 OFFCURVE",
"401 1400 QCURVE SMOOTH",
"413.6 1409 OFFCURVE",
"459 1409 QCURVE SMOOTH",
"1457 1409 LINE SMOOTH",
"1489 1409 OFFCURVE",
"1489 1378 QCURVE SMOOTH",
"1489 1352 OFFCURVE",
"1475 1338 QCURVE SMOOTH",
"391 199 LINE",
"307 115 OFFCURVE",
"307 76.5 OFFCURVE",
"319 75 QCURVE",
"1176 75 LINE SMOOTH",
"1356.5 75 OFFCURVE",
"1391 -17 QCURVE SMOOTH",
"1403 -49 OFFCURVE",
"1403 -145 OFFCURVE",
"1370 -243 OFFCURVE",
"1341.5 -286.5 QCURVE SMOOTH",
"1284.54 -373.438 OFFCURVE",
"1195 -431 QCURVE"
);
}
);
width = 1509;
}
);
unicode = 0224;
},
{
glyphname = uni0248;
layers = (
{
layerId = "13B3CF59-E667-4601-B808-7467DBC8B37E";
paths = (
{
closed = 1;
nodes = (
"-425 -608 QCURVE SMOOTH",
"-425 -539.158 OFFCURVE",
"-356 -521 QCURVE SMOOTH",
"-337 -516 OFFCURVE",
"-290 -516 OFFCURVE",
"-227 -531 OFFCURVE",
"-195.5 -540.5 QCURVE SMOOTH",
"-114.263 -565 OFFCURVE",
"-50 -565 OFFCURVE",
"-1 -551 OFFCURVE",
"41 -508 OFFCURVE",
"80 -430 OFFCURVE",
"121 -303 OFFCURVE",
"167 -120 OFFCURVE",
"223 133 OFFCURVE",
"292 464 OFFCURVE",
"336 675 QCURVE",
"170 675 LINE SMOOTH",
"148 675 OFFCURVE",
"148 695 QCURVE",
"154 725 LINE SMOOTH",
"159 750 OFFCURVE",
"176 750 QCURVE SMOOTH",
"351 750 LINE",
"374 862 OFFCURVE",
"401 986 QCURVE SMOOTH",
"462 1266.15 OFFCURVE",
"462 1316 OFFCURVE",
"438 1348 OFFCURVE",
"416 1356.5 QCURVE SMOOTH",
"381.059 1370 OFFCURVE",
"291 1370 QCURVE SMOOTH",
"285 1370 OFFCURVE",
"285 1378 QCURVE",
"290 1402 LINE SMOOTH",
"292 1410 OFFCURVE",
"300 1410 QCURVE SMOOTH",
"821 1410 LINE SMOOTH",
"827 1410 OFFCURVE",
"827 1402 QCURVE",
"822 1378 LINE SMOOTH",
"820 1370 OFFCURVE",
"777 1370 OFFCURVE",
"718 1361 OFFCURVE",
"694.5 1346 QCURVE SMOOTH",
"645.241 1314.56 OFFCURVE",
"627 1227 QCURVE SMOOTH",
"526 750 LINE",
"711 750 LINE SMOOTH",
"732 750 OFFCURVE",
"732 730 QCURVE",
"726 700 LINE SMOOTH",
"721 675 OFFCURVE",
"705 675 QCURVE SMOOTH",
"510 675 LINE",
"475 510 OFFCURVE",
"425 269 OFFCURVE",
"388 96 OFFCURVE",
"364 -17 OFFCURVE",
"348 -94 OFFCURVE",
"336 -143 OFFCURVE",
"315 -227 OFFCURVE",
"268 -351 OFFCURVE",
"198 -464 OFFCURVE",
"104 -561 OFFCURVE",
"41.5 -596.5 QCURVE SMOOTH",
"-91.423 -672 OFFCURVE",
"-425 -672 OFFCURVE"
);
}
);
width = 678;
}
);
unicode = 0248;
},
{
glyphname = uni1EFA;
layers = (
{
layerId = "13B3CF59-E667-4601-B808-7467DBC8B37E";
paths = (
{
closed = 1;
nodes = (
"20 12 QCURVE SMOOTH",
"20 40 OFFCURVE",
"77 40 OFFCURVE",
"133 49 OFFCURVE",
"155 64 QCURVE SMOOTH",
"199.534 94.364 OFFCURVE",
"218 183 QCURVE SMOOTH",
"275 451 OFFCURVE",
"353 821 OFFCURVE",
"404 1061 OFFCURVE",
"432 1193 OFFCURVE",
"438.5 1224.5 QCURVE SMOOTH",
"447 1265.69 OFFCURVE",
"447 1302 OFFCURVE",
"408 1340 OFFCURVE",
"379 1351 QCURVE SMOOTH",
"328.909 1370 OFFCURVE",
"254 1370 QCURVE SMOOTH",
"248 1370 OFFCURVE",
"248 1378 QCURVE",
"253 1402 LINE SMOOTH",
"255 1410 OFFCURVE",
"263 1410 QCURVE SMOOTH",
"850 1410 LINE SMOOTH",
"856 1410 OFFCURVE",
"856 1402 QCURVE",
"851 1378 LINE SMOOTH",
"849 1370 OFFCURVE",
"806 1370 OFFCURVE",
"734 1361 OFFCURVE",
"703.5 1346 QCURVE SMOOTH",
"634.747 1312.19 OFFCURVE",
"617 1227 QCURVE SMOOTH",
"577 1040 OFFCURVE",
"517 755 OFFCURVE",
"472 542 OFFCURVE",
"441 393 OFFCURVE",
"421 295 OFFCURVE",
"410 238 OFFCURVE",
"407.5 223 QCURVE SMOOTH",
"404 202 OFFCURVE",
"404 194 QCURVE SMOOTH",
"404 61 OFFCURVE",
"590 61 QCURVE SMOOTH",
"843.111 61 OFFCURVE",
"943 92 QCURVE",
"965 122 OFFCURVE",
"978 183 QCURVE SMOOTH",
"1035 451 OFFCURVE",
"1113 821 OFFCURVE",
"1164 1061 OFFCURVE",
"1192 1193 OFFCURVE",
"1198.5 1224.5 QCURVE SMOOTH",
"1207 1265.69 OFFCURVE",
"1207 1302 OFFCURVE",
"1168 1340 OFFCURVE",
"1139 1351 QCURVE SMOOTH",
"1088.91 1370 OFFCURVE",
"1014 1370 QCURVE SMOOTH",
"1008 1370 OFFCURVE",
"1008 1378 QCURVE",
"1013 1402 LINE SMOOTH",
"1015 1410 OFFCURVE",
"1023 1410 QCURVE SMOOTH",
"1610 1410 LINE SMOOTH",
"1616 1410 OFFCURVE",
"1616 1402 QCURVE",
"1611 1378 LINE SMOOTH",
"1609 1370 OFFCURVE",
"1566 1370 OFFCURVE",
"1494 1361 OFFCURVE",
"1463.5 1346 QCURVE SMOOTH",
"1393.63 1311.64 OFFCURVE",
"1376 1227 QCURVE SMOOTH",
"1320.75 962.083 OFFCURVE",
"1232 542 OFFCURVE",
"1201 393 OFFCURVE",
"1181 295 OFFCURVE",
"1170 238 OFFCURVE",
"1167.5 223 QCURVE SMOOTH",
"1164 202 OFFCURVE",
"1164 194 QCURVE SMOOTH",
"1164 61 OFFCURVE",
"1350 61 QCURVE SMOOTH",
"1625.93 61 OFFCURVE",
"1725.5 99.5 QCURVE SMOOTH",
"1796.33 126.888 OFFCURVE",
"1889 215 OFFCURVE",
"1936 264 OFFCURVE",
"1958 291 OFFCURVE",
"1969 302.5 QCURVE SMOOTH",
"1995.3 330 OFFCURVE",
"2036 330 OFFCURVE",
"2036 311 QCURVE SMOOTH",
"2036 298.6 OFFCURVE",
"1986 185 OFFCURVE",
"1952 79 OFFCURVE",
"1930 21 OFFCURVE",
"1904 0 OFFCURVE",
"1876 0 QCURVE SMOOTH",
"31 0 LINE SMOOTH",
"20 0 OFFCURVE"
);
}
);
width = 2046;
}
);
unicode = 1EFA;
},
{
glyphname = uni1EFC;
layers = (
{
layerId = "13B3CF59-E667-4601-B808-7467DBC8B37E";
paths = (
{
closed = 1;
nodes = (
"746 1378 LINE",
"746 1370 OFFCURVE",
"702 1370 OFFCURVE",
"643 1361 OFFCURVE",
"619.5 1346 QCURVE SMOOTH",
"570.241 1314.56 OFFCURVE",
"552 1227 QCURVE SMOOTH",
"337 215 LINE SMOOTH",
"334 200 OFFCURVE",
"334 187 QCURVE SMOOTH",
"334 77 OFFCURVE",
"533 77 QCURVE SMOOTH",
"750.252 77 OFFCURVE",
"947.5 187.5 QCURVE SMOOTH",
"1146.94 299.228 OFFCURVE",
"1265.5 495.5 QCURVE SMOOTH",
"1392 704.916 OFFCURVE",
"1392 965 QCURVE SMOOTH",
"1392 1141.86 OFFCURVE",
"1269 1245.5 QCURVE SMOOTH",
"1179.98 1320.5 OFFCURVE",
"1015 1358 QCURVE",
"1002 1362 OFFCURVE",
"1002 1368 QCURVE SMOOTH",
"1002 1377.7 OFFCURVE",
"1019 1414 OFFCURVE",
"1039 1417 OFFCURVE",
"1048 1417 QCURVE SMOOTH",
"1299.85 1417 OFFCURVE",
"1452.5 1295.5 QCURVE SMOOTH",
"1606 1173.33 OFFCURVE",
"1606 967 QCURVE SMOOTH",
"1606 712.704 OFFCURVE",
"1437.5 478.5 QCURVE SMOOTH",
"1275.26 252.997 OFFCURVE",
"1007.5 114.5 QCURVE SMOOTH",
"730.067 -29 OFFCURVE",
"431 -29 QCURVE SMOOTH",
"179.412 -29 OFFCURVE",
"137.5 56.5 QCURVE SMOOTH",
"125 82 OFFCURVE",
"125 114 OFFCURVE",
"126 124 OFFCURVE",
"132 156 OFFCURVE",
"144 217 OFFCURVE",
"167 326 OFFCURVE",
"201 489 OFFCURVE",
"251 725 OFFCURVE",
"318 1042 OFFCURVE",
"366 1267 OFFCURVE",
"366 1284 QCURVE SMOOTH",
"366 1332 OFFCURVE",
"297 1370 OFFCURVE",
"231 1370 OFFCURVE",
"229 1375 OFFCURVE",
"229 1378 QCURVE SMOOTH",
"235 1402 LINE SMOOTH",
"237 1410 OFFCURVE",
"244 1410 QCURVE SMOOTH",
"745 1410 LINE SMOOTH",
"752 1410 OFFCURVE",
"752 1402 QCURVE"
);
}
);
width = 1606;
}
);
unicode = 1EFC;
},
{
glyphname = uni1EFE;
layers = (
{
layerId = "13B3CF59-E667-4601-B808-7467DBC8B37E";
paths = (
{
closed = 1;
nodes = (
"1229 1396 LINE SMOOTH",
"1229 1410 OFFCURVE",
"1249 1410 QCURVE SMOOTH",
"1619 1410 LINE SMOOTH",
"1626 1410 OFFCURVE",
"1634 1401 OFFCURVE",
"1634 1398 QCURVE SMOOTH",
"1634 1385 LINE SMOOTH",
"1634 1374 OFFCURVE",
"1622 1368 OFFCURVE",
"1612.5 1366 QCURVE SMOOTH",
"1576.69 1358.46 OFFCURVE",
"1544 1337 OFFCURVE",
"1504 1298 OFFCURVE",
"1483.5 1276 QCURVE SMOOTH",
"1454.9 1245.31 OFFCURVE",
"1280 1034 OFFCURVE",
"1008 714 OFFCURVE",
"882 563 QCURVE",
"875.4 534.4 OFFCURVE",
"865 479 OFFCURVE",
"855 434 OFFCURVE",
"844 389 OFFCURVE",
"830 332 OFFCURVE",
"807 218 OFFCURVE",
"755 120 OFFCURVE",
"689 51 OFFCURVE",
"613 7 OFFCURVE",
"575.5 -5.5 QCURVE SMOOTH",
"404.227 -62.591 OFFCURVE",
"288.5 25.5 QCURVE SMOOTH",
"213 82.97 OFFCURVE",
"213 172 QCURVE SMOOTH",
"213 282.788 OFFCURVE",
"318.5 375.5 QCURVE SMOOTH",
"414.858 460.178 OFFCURVE",
"586 513 QCURVE SMOOTH",
"600 517 OFFCURVE",
"634 525 OFFCURVE",
"650.5 529 QCURVE SMOOTH",
"686.958 537.838 OFFCURVE",
"702 551 QCURVE",
"702 567 OFFCURVE",
"689 589 OFFCURVE",
"664 647 OFFCURVE",
"620 750 OFFCURVE",
"558 893 OFFCURVE",
"473 1090 OFFCURVE",
"400 1257 OFFCURVE",
"370 1308 OFFCURVE",
"352.5 1327 QCURVE SMOOTH",
"313.816 1369 OFFCURVE",
"251 1369 OFFCURVE",
"251 1382 QCURVE SMOOTH",
"251 1395 LINE SMOOTH",
"251 1406.29 OFFCURVE",
"270 1409 QCURVE",
"711 1409 LINE SMOOTH",
"730 1409 OFFCURVE",
"730 1395 QCURVE SMOOTH",
"730 1382 LINE SMOOTH",
"730 1369 OFFCURVE",
"714 1369 QCURVE SMOOTH",
"676 1369 LINE SMOOTH",
"626.733 1369 OFFCURVE",
"603.5 1328 QCURVE SMOOTH",
"595 1313 OFFCURVE",
"595 1267 OFFCURVE",
"641 1164 OFFCURVE",
"694 1042 OFFCURVE",
"720 980.5 QCURVE SMOOTH",
"787.483 820.876 OFFCURVE",
"839 705 OFFCURVE",
"845 690 OFFCURVE",
"848.5 683 QCURVE SMOOTH",
"857 666 OFFCURVE",
"866 666 QCURVE SMOOTH",
"881.286 666 OFFCURVE",
"923 718 OFFCURVE",
"960 761 OFFCURVE",
"992 799 OFFCURVE",
"1014 825 OFFCURVE",
"1106 933 OFFCURVE",
"1263 1124 OFFCURVE",
"1352 1227 OFFCURVE",
"1366 1267 OFFCURVE",
"1366 1321 OFFCURVE",
"1326 1369 OFFCURVE",
"1286 1369 QCURVE SMOOTH",
"1249 1369 LINE SMOOTH",
"1229 1369 OFFCURVE",
"1229 1383 QCURVE SMOOTH"
);
},
{
closed = 1;
nodes = (
"688 469 LINE",
"541.735 463.301 OFFCURVE",
"438 385.5 QCURVE SMOOTH",
"342 313.5 OFFCURVE",
"342 229 QCURVE SMOOTH",
"342 174.5 OFFCURVE",
"370.5 140.75 QCURVE SMOOTH",
"424.333 77 OFFCURVE",
"489 77 QCURVE SMOOTH",
"598.032 77 OFFCURVE",
"631 223 QCURVE SMOOTH"
);
}
);
width = 1484;
}
);
unicode = 1EFE;
},
{
glyphname = uni2C75;
layers = (
{
layerId = "13B3CF59-E667-4601-B808-7467DBC8B37E";
paths = (
{
closed = 1;
nodes = (
"523 786 QCURVE SMOOTH",
"523 764 OFFCURVE",
"554 764 QCURVE SMOOTH",
"970 764 LINE SMOOTH",
"1003 764 OFFCURVE",
"1021 848 QCURVE SMOOTH",
"1032 899 LINE",
"1101 899 LINE",
"1021 523 LINE",
"952 523 LINE",
"967 597 LINE",
"967 652 OFFCURVE",
"940 679 QCURVE SMOOTH",
"931 688 OFFCURVE",
"918 688 QCURVE SMOOTH",
"555 688 LINE SMOOTH",
"504.674 688 OFFCURVE",
"486.5 612 QCURVE SMOOTH",
"475.073 564.212 OFFCURVE",
"423 316 OFFCURVE",
"403 222 OFFCURVE",
"392 168 OFFCURVE",
"389.5 154.5 QCURVE SMOOTH",
"386 135.6 OFFCURVE",
"386 98 OFFCURVE",
"422 61 OFFCURVE",
"449.5 52 QCURVE SMOOTH",
"486.167 40 OFFCURVE",
"571 40 QCURVE SMOOTH",
"577 40 OFFCURVE",
"577 32 QCURVE",
"572 8 LINE SMOOTH",
"569.333 0 OFFCURVE",
"563 0 QCURVE SMOOTH",
"27 0 LINE SMOOTH",
"20 0 OFFCURVE",
"20 8 QCURVE",
"25 32 LINE",
"29 40 OFFCURVE",
"70 40 OFFCURVE",
"129 49 OFFCURVE",
"152 64 QCURVE SMOOTH",
"200.845 95.855 OFFCURVE",
"219 183 QCURVE SMOOTH",
"446 1250 LINE SMOOTH",
"450 1266 OFFCURVE",
"450 1277 QCURVE SMOOTH",
"450 1370 OFFCURVE",
"284 1370 QCURVE SMOOTH",
"274 1370 OFFCURVE",
"274 1380 QCURVE",
"279 1402 LINE SMOOTH",
"281 1410 OFFCURVE",
"289 1410 QCURVE SMOOTH",
"810 1410 LINE SMOOTH",
"816 1410 OFFCURVE",
"816 1402 QCURVE",
"811 1378 LINE SMOOTH",
"809 1370 OFFCURVE",
"766 1370 OFFCURVE",
"706 1361 OFFCURVE",
"683 1346 QCURVE SMOOTH",
"634.155 1314.14 OFFCURVE",
"595 1124 OFFCURVE",
"564 982 OFFCURVE",
"544 887 OFFCURVE",
"533 834 OFFCURVE",
"527 808 OFFCURVE",
"526 804 QCURVE SMOOTH",
"523 792 OFFCURVE"
);
}
);
width = 1079;
}
);
unicode = 2C75;
},
{
glyphname = uniA732;
layers = (
{
layerId = "13B3CF59-E667-4601-B808-7467DBC8B37E";
paths = (
{
closed = 1;
nodes = (
"1839 558 LINE SMOOTH",
"1839 602 OFFCURVE",
"1786 602 QCURVE SMOOTH",
"1384 602 LINE SMOOTH",
"1343.93 602 OFFCURVE",
"1319 568 QCURVE SMOOTH",
"1265 497 LINE",
"1274 150 LINE SMOOTH",
"1276.63 65.946 OFFCURVE",
"1377 45.5 QCURVE SMOOTH",
"1404 40 OFFCURVE",
"1429 40 QCURVE SMOOTH",
"1473 40 LINE SMOOTH",
"1486 40 OFFCURVE",
"1486 25 QCURVE SMOOTH",
"1486 14 LINE SMOOTH",
"1486 0 OFFCURVE",
"1472 0 QCURVE SMOOTH",
"851 0 LINE SMOOTH",
"837 0 OFFCURVE",
"837 11 QCURVE SMOOTH",
"837 30 LINE SMOOTH",
"837 40 OFFCURVE",
"887 40 OFFCURVE",
"942 44 OFFCURVE",
"961.5 47.5 QCURVE SMOOTH",
"1033.46 60.416 OFFCURVE",
"1077 118 OFFCURVE",
"1085 143.5 QCURVE SMOOTH",
"1097 181.75 OFFCURVE",
"1097 252 QCURVE",
"1090 540 LINE",
"1090 558 LINE SMOOTH",
"1090 602 OFFCURVE",
"1037 602 QCURVE SMOOTH",
"635 602 LINE SMOOTH",
"594.933 602 OFFCURVE",
"570 568 QCURVE SMOOTH",
"519 499 OFFCURVE",
"414 365 OFFCURVE",
"350 280 OFFCURVE",
"324 244 OFFCURVE",
"313 225 QCURVE SMOOTH",
"288 181.818 OFFCURVE",
"288 96 OFFCURVE",
"363 40 OFFCURVE",
"424 40 QCURVE SMOOTH",
"473 40 LINE SMOOTH",
"486 40 OFFCURVE",
"486 29 QCURVE",
"481.844 4.067 OFFCURVE",
"471 0 OFFCURVE",
"461 0 QCURVE SMOOTH",
"2 0 LINE SMOOTH",
"-17 0 OFFCURVE",
"-17 12 QCURVE SMOOTH",
"-17 40 OFFCURVE",
"4 40 QCURVE SMOOTH",
"26 40 LINE SMOOTH",
"64 40 OFFCURVE",
"104 69 OFFCURVE",
"204 200 OFFCURVE",
"383 432 OFFCURVE",
"564 668 OFFCURVE",
"743 902 OFFCURVE",
"908 1117 OFFCURVE",
"1053 1306 OFFCURVE",
"1119 1392 OFFCURVE",
"1150 1417 OFFCURVE",
"1173 1417 QCURVE SMOOTH",
"1199 1417 LINE SMOOTH",
"1228 1417 OFFCURVE",
"1244 1386 OFFCURVE",
"1245 1363 QCURVE SMOOTH",
"1263 602 LINE",
"1348 714 OFFCURVE",
"1516 932 OFFCURVE",
"1592.5 1032.5 QCURVE SMOOTH",
"1863.21 1388.13 OFFCURVE",
"1899 1417 OFFCURVE",
"1922 1417 QCURVE SMOOTH",
"1948 1417 LINE SMOOTH",
"1977 1417 OFFCURVE",
"1993 1386 OFFCURVE",
"1994 1363 QCURVE SMOOTH",
"2023 150 LINE SMOOTH",
"2025.63 65.946 OFFCURVE",
"2126 45.5 QCURVE SMOOTH",
"2153 40 OFFCURVE",
"2178 40 QCURVE SMOOTH",
"2222 40 LINE SMOOTH",
"2235 40 OFFCURVE",
"2235 25 QCURVE SMOOTH",
"2235 14 LINE SMOOTH",
"2235 0 OFFCURVE",
"2221 0 QCURVE SMOOTH",
"1600 0 LINE SMOOTH",
"1586 0 OFFCURVE",
"1586 11 QCURVE SMOOTH",
"1586 30 LINE SMOOTH",
"1586 40 OFFCURVE",
"1636 40 OFFCURVE",
"1691 44 OFFCURVE",
"1710.5 47.5 QCURVE SMOOTH",
"1782.46 60.416 OFFCURVE",
"1826 118 OFFCURVE",
"1834 143.5 QCURVE SMOOTH",
"1846 181.75 OFFCURVE",
"1846 252 QCURVE",
"1839 540 LINE"
);
},
{
closed = 1;
nodes = (
"1835 727 QCURVE SMOOTH",
"1824 1175 LINE SMOOTH",
"1824 1202 OFFCURVE",
"1814.5 1201.5 QCURVE SMOOTH",
"1803.22 1200.91 OFFCURVE",
"1765 1149 OFFCURVE",
"1685 1043 OFFCURVE",
"1637 981.5 QCURVE SMOOTH",
"1531.15 845.885 OFFCURVE",
"1441 727 OFFCURVE",
"1431 714 OFFCURVE",
"1426 707 QCURVE SMOOTH",
"1413 688.8 OFFCURVE",
"1413 677 OFFCURVE",
"1418 677 QCURVE SMOOTH",
"1787 677 LINE SMOOTH",
"1809 677 OFFCURVE",
"1835 704 OFFCURVE"
);
},
{
closed = 1;
nodes = (
"1086 727 QCURVE SMOOTH",
"1075 1175 LINE SMOOTH",
"1075 1202 OFFCURVE",
"1065.5 1201.5 QCURVE SMOOTH",
"1054.22 1200.91 OFFCURVE",
"1016 1149 OFFCURVE",
"936 1043 OFFCURVE",
"888 981.5 QCURVE SMOOTH",
"782.154 845.885 OFFCURVE",
"692 727 OFFCURVE",
"682 714 OFFCURVE",
"677 707 QCURVE SMOOTH",
"664 688.8 OFFCURVE",
"664 677 OFFCURVE",
"669 677 QCURVE SMOOTH",
"1038 677 LINE SMOOTH",
"1060 677 OFFCURVE",
"1086 704 OFFCURVE"
);
}
);
width = 2310;
}
);
unicode = A732;
},
{
glyphname = uniA734;
layers = (
{
layerId = "13B3CF59-E667-4601-B808-7467DBC8B37E";
paths = (
{
closed = 1;
nodes = (
"-20 12 QCURVE SMOOTH",
"-20 40 OFFCURVE",
"1 40 QCURVE SMOOTH",
"23 40 LINE SMOOTH",
"61 40 OFFCURVE",
"101 69 OFFCURVE",
"201 200 OFFCURVE",
"380 432 OFFCURVE",
"561 668 OFFCURVE",
"740 902 OFFCURVE",
"905 1117 OFFCURVE",
"1050 1306 OFFCURVE",
"1116 1392 OFFCURVE",
"1147 1417 OFFCURVE",
"1170 1417 QCURVE SMOOTH",
"1196 1417 LINE SMOOTH",
"1225 1417 OFFCURVE",
"1241 1386 OFFCURVE",
"1242 1363 QCURVE SMOOTH",
"1247 1135 LINE",
"1420.02 1361.5 OFFCURVE",
"1687.5 1429.5 QCURVE SMOOTH",
"1776 1452 OFFCURVE",
"1870 1452 QCURVE SMOOTH",
"2226.23 1452 OFFCURVE",
"2424 1272.5 QCURVE SMOOTH",
"2608 1105.5 OFFCURVE",
"2608 836 QCURVE SMOOTH",
"2608 609.561 OFFCURVE",
"2495.5 414 QCURVE SMOOTH",
"2327.39 121.776 OFFCURVE",
"1997 30 QCURVE SMOOTH",
"1889 0 OFFCURVE",
"1639 0 OFFCURVE",
"1405 86 OFFCURVE",
"1314.5 161 QCURVE SMOOTH",
"1124.55 318.42 OFFCURVE",
"1088 558 QCURVE SMOOTH",
"1083.32 586.103 OFFCURVE",
"1060 602 OFFCURVE",
"1034 602 QCURVE SMOOTH",
"632 602 LINE SMOOTH",
"591.933 602 OFFCURVE",
"567 568 QCURVE SMOOTH",
"516 499 OFFCURVE",
"411 365 OFFCURVE",
"347 280 OFFCURVE",
"321 244 OFFCURVE",
"310 225 QCURVE SMOOTH",
"285 181.818 OFFCURVE",
"285 96 OFFCURVE",
"360 40 OFFCURVE",
"421 40 QCURVE SMOOTH",
"470 40 LINE SMOOTH",
"483 40 OFFCURVE",
"483 29 QCURVE",
"478.844 4.067 OFFCURVE",
"468 0 OFFCURVE",
"458 0 QCURVE SMOOTH",
"-1 0 LINE SMOOTH",
"-20 0 OFFCURVE"
);
},
{
closed = 1;
nodes = (
"1763.5 41 QCURVE SMOOTH",
"1873 41 OFFCURVE",
"2052 114 OFFCURVE",
"2197 241 OFFCURVE",
"2307 410 OFFCURVE",
"2344.5 505.5 QCURVE SMOOTH",
"2420 697.773 OFFCURVE",
"2420 902 QCURVE SMOOTH",
"2420 1129.68 OFFCURVE",
"2296.5 1268 QCURVE SMOOTH",
"2161.68 1419 OFFCURVE",
"1913 1419 QCURVE SMOOTH",
"1615.74 1419 OFFCURVE",
"1440 1167 QCURVE SMOOTH",
"1280 937.566 OFFCURVE",
"1280 625 QCURVE SMOOTH",
"1280 371.484 OFFCURVE",
"1410 209.5 QCURVE SMOOTH",
"1545.23 41 OFFCURVE"
);
},
{
closed = 1;
nodes = (
"1083 727 QCURVE SMOOTH",
"1072 1175 LINE SMOOTH",
"1072 1202 OFFCURVE",
"1062.5 1201.5 QCURVE SMOOTH",
"1051.22 1200.91 OFFCURVE",
"1013 1149 OFFCURVE",
"933 1043 OFFCURVE",
"885 981.5 QCURVE SMOOTH",
"779.154 845.885 OFFCURVE",
"689 727 OFFCURVE",
"679 714 OFFCURVE",
"674 707 QCURVE SMOOTH",
"661 688.8 OFFCURVE",
"661 677 OFFCURVE",
"666 677 QCURVE SMOOTH",
"1035 677 LINE SMOOTH",
"1057 677 OFFCURVE",
"1083 704 OFFCURVE"
);
}
);
width = 2588;
}
);
unicode = A734;
},
{
glyphname = uniA736;
layers = (
{
layerId = "13B3CF59-E667-4601-B808-7467DBC8B37E";
paths = (
{
closed = 1;
nodes = (
"2385 1410 LINE SMOOTH",
"2400 1410 OFFCURVE",
"2400 1397 QCURVE SMOOTH",
"2400 1386 LINE SMOOTH",
"2400 1373.91 OFFCURVE",
"2342 1366 OFFCURVE",
"2313 1360 OFFCURVE",
"2276 1350 OFFCURVE",
"2261.5 1339.5 QCURVE SMOOTH",
"2232.15 1318.25 OFFCURVE",
"2219 1260 QCURVE SMOOTH",
"2188 1117 LINE SMOOTH",
"2180 1082 OFFCURVE",
"2151 942 OFFCURVE",
"2132 852 QCURVE SMOOTH",
"2079.75 604.5 OFFCURVE",
"2025 350 OFFCURVE",
"1923 179 OFFCURVE",
"1848 120 QCURVE SMOOTH",
"1695.46 0 OFFCURVE",
"1468 0 QCURVE SMOOTH",
"1245.76 0 OFFCURVE",
"1067 101.5 QCURVE SMOOTH",
"943.476 171.637 OFFCURVE",
"893 275.5 QCURVE SMOOTH",
"867 329 OFFCURVE",
"867 366 QCURVE SMOOTH",
"867 416.5 OFFCURVE",
"874 441 QCURVE",
"880 470 LINE SMOOTH",
"884 488 OFFCURVE",
"884 506 QCURVE SMOOTH",
"884 552 OFFCURVE",
"829 552 QCURVE SMOOTH",
"594 552 LINE SMOOTH",
"553.933 552 OFFCURVE",
"503 484 OFFCURVE",
"463 432 OFFCURVE",
"426 383 OFFCURVE",
"385 331 OFFCURVE",
"347 280 OFFCURVE",
"321 244 OFFCURVE",
"310 225 QCURVE SMOOTH",
"285 181.818 OFFCURVE",
"285 96 OFFCURVE",
"360 40 OFFCURVE",
"421 40 QCURVE SMOOTH",
"470 40 LINE SMOOTH",
"483 40 OFFCURVE",
"483 29 QCURVE",
"478.844 4.067 OFFCURVE",
"468 0 OFFCURVE",
"458 0 QCURVE SMOOTH",
"-1 0 LINE SMOOTH",
"-20 0 OFFCURVE",
"-20 12 QCURVE SMOOTH",
"-20 40 OFFCURVE",
"1 40 QCURVE SMOOTH",
"23 40 LINE SMOOTH",
"58 40 OFFCURVE",
"76 53 QCURVE SMOOTH",
"86.8 60.8 OFFCURVE",
"120 94 QCURVE",
"1109 1380 LINE SMOOTH",
"1136.75 1417 OFFCURVE",
"1172 1417 QCURVE SMOOTH",
"1198 1417 LINE SMOOTH",
"1222 1417 OFFCURVE",
"1245 1393 OFFCURVE",
"1245 1383 QCURVE SMOOTH",
"1245 1369.5 LINE SMOOTH",
"1245 1366 OFFCURVE",
"1244 1363 QCURVE SMOOTH",
"1062 508 LINE SMOOTH",
"1053 466 OFFCURVE",
"1053 345 OFFCURVE",
"1120 213 OFFCURVE",
"1174 166.5 QCURVE SMOOTH",
"1286.06 70 OFFCURVE",
"1433 70 QCURVE SMOOTH",
"1890.93 70 OFFCURVE",
"1985 509 QCURVE SMOOTH",
"2107 1081 LINE",
"2123 1151 OFFCURVE",
"2123 1207 QCURVE SMOOTH",
"2123 1370 OFFCURVE",
"1965 1370 QCURVE SMOOTH",
"1937 1370 LINE SMOOTH",
"1916 1370 OFFCURVE",
"1916 1385 QCURVE SMOOTH",
"1916 1395 LINE SMOOTH",
"1916 1410 OFFCURVE",
"1935 1410 QCURVE SMOOTH"
);
},
{
closed = 1;
nodes = (
"875 627 LINE SMOOTH",
"907 627 OFFCURVE",
"920 654 QCURVE",
"924 673 LINE",
"924 677 LINE",
"1014 1099 LINE",
"1014 1126 OFFCURVE",
"1004.5 1125.5 QCURVE SMOOTH",
"993.219 1124.91 OFFCURVE",
"955 1073 OFFCURVE",
"881 975 OFFCURVE",
"794 861 OFFCURVE",
"699 739 OFFCURVE",
"652 677 OFFCURVE",
"642 664 OFFCURVE",
"637 657 QCURVE SMOOTH",
"624 638.8 OFFCURVE",
"624 627 OFFCURVE",
"629 627 QCURVE SMOOTH"
);
}
);
width = 2240;
}
);
unicode = A736;
},
{
glyphname = uniA738;
layers = (
{
layerId = "13B3CF59-E667-4601-B808-7467DBC8B37E";
paths = (
{
closed = 1;
nodes = (
"1124 -27 LINE SMOOTH",
"1101 -27 OFFCURVE",
"1101 -5 QCURVE SMOOTH",
"1087 558 LINE",
"1087 602 OFFCURVE",
"1034 602 QCURVE SMOOTH",
"632 602 LINE SMOOTH",
"591.933 602 OFFCURVE",
"567 568 QCURVE SMOOTH",
"516 499 OFFCURVE",
"411 365 OFFCURVE",
"347 280 OFFCURVE",
"321 244 OFFCURVE",
"310 225 QCURVE SMOOTH",
"285 181.818 OFFCURVE",
"285 96 OFFCURVE",
"360 40 OFFCURVE",
"421 40 QCURVE SMOOTH",
"470 40 LINE SMOOTH",
"483 40 OFFCURVE",
"483 29 QCURVE",
"478.844 4.067 OFFCURVE",
"468 0 OFFCURVE",
"458 0 QCURVE SMOOTH",
"-1 0 LINE SMOOTH",
"-20 0 OFFCURVE",
"-20 12 QCURVE SMOOTH",
"-20 40 OFFCURVE",
"1 40 QCURVE SMOOTH",
"23 40 LINE SMOOTH",
"61 40 OFFCURVE",
"101 69 OFFCURVE",
"201 200 OFFCURVE",
"380 432 OFFCURVE",
"561 668 OFFCURVE",
"740 902 OFFCURVE",
"905 1117 OFFCURVE",
"1050 1306 OFFCURVE",
"1116 1392 OFFCURVE",
"1147 1417 OFFCURVE",
"1170 1417 QCURVE SMOOTH",
"1196 1417 LINE SMOOTH",
"1225 1417 OFFCURVE",
"1241 1386 OFFCURVE",
"1242 1363 QCURVE SMOOTH",
"1265 351 LINE SMOOTH",
"1266 318 OFFCURVE",
"1296 267 OFFCURVE",
"1326 267 OFFCURVE",
"1334 277 QCURVE SMOOTH",
"1419.92 386.358 OFFCURVE",
"1696 727 OFFCURVE",
"1759 805 QCURVE SMOOTH",
"1971.21 1067.74 OFFCURVE",
"2053 1165 OFFCURVE",
"2068.5 1188 QCURVE SMOOTH",
"2105 1242.16 OFFCURVE",
"2105 1307 OFFCURVE",
"2086 1345 OFFCURVE",
"2068.5 1354.5 QCURVE SMOOTH",
"2039.95 1370 OFFCURVE",
"1974 1370 QCURVE SMOOTH",
"1949 1370 OFFCURVE",
"1949 1410 OFFCURVE",
"1974 1410 QCURVE SMOOTH",
"2391 1410 LINE SMOOTH",
"2408 1410 OFFCURVE",
"2420 1404 OFFCURVE",
"2420 1393 QCURVE SMOOTH",
"2420 1370 OFFCURVE",
"2356 1370 OFFCURVE",
"2306 1345 OFFCURVE",
"2258 1306 OFFCURVE",
"2212 1258 OFFCURVE",
"2173 1211 OFFCURVE",
"2142 1169 OFFCURVE",
"2039 1041 OFFCURVE",
"1838 793 OFFCURVE",
"1734.5 666 QCURVE SMOOTH",
"1402.13 258.169 OFFCURVE",
"1326.07 162.085 QCURVE SMOOTH",
"1242.88 57 OFFCURVE",
"1194 -3 OFFCURVE",
"1186 -14 OFFCURVE",
"1181 -18 QCURVE SMOOTH",
"1169.75 -27 OFFCURVE",
"1150 -27 QCURVE SMOOTH"
);
},
{
closed = 1;
nodes = (
"1083 727 QCURVE SMOOTH",
"1072 1175 LINE SMOOTH",
"1072 1202 OFFCURVE",
"1062.5 1201.5 QCURVE SMOOTH",
"1051.22 1200.91 OFFCURVE",
"1013 1149 OFFCURVE",
"933 1043 OFFCURVE",
"885 981.5 QCURVE SMOOTH",
"779.154 845.885 OFFCURVE",
"689 727 OFFCURVE",
"679 714 OFFCURVE",
"674 707 QCURVE SMOOTH",
"661 688.8 OFFCURVE",
"661 677 OFFCURVE",
"666 677 QCURVE SMOOTH",
"1035 677 LINE SMOOTH",
"1057 677 OFFCURVE",
"1083 704 OFFCURVE"
);
}
);
width = 2260;
}
);
unicode = A738;
},
{
glyphname = uniA73A;
layers = (
{
layerId = "13B3CF59-E667-4601-B808-7467DBC8B37E";
paths = (
{
closed = 1;
nodes = (
"1124 -27 LINE SMOOTH",
"1101 -27 OFFCURVE",
"1101 -5 QCURVE SMOOTH",
"1087 558 LINE",
"1087 602 OFFCURVE",
"1034 602 QCURVE SMOOTH",
"632 602 LINE SMOOTH",
"591.933 602 OFFCURVE",
"567 568 QCURVE SMOOTH",
"516 499 OFFCURVE",
"411 365 OFFCURVE",
"347 280 OFFCURVE",
"321 244 OFFCURVE",
"310 225 QCURVE SMOOTH",
"285 181.818 OFFCURVE",
"285 96 OFFCURVE",
"360 40 OFFCURVE",
"421 40 QCURVE SMOOTH",
"470 40 LINE SMOOTH",
"483 40 OFFCURVE",
"483 29 QCURVE",
"478.844 4.067 OFFCURVE",
"468 0 OFFCURVE",
"458 0 QCURVE SMOOTH",
"-1 0 LINE SMOOTH",
"-20 0 OFFCURVE",
"-20 12 QCURVE SMOOTH",
"-20 40 OFFCURVE",
"1 40 QCURVE SMOOTH",
"23 40 LINE SMOOTH",
"61 40 OFFCURVE",
"101 69 OFFCURVE",
"201 200 OFFCURVE",
"380 432 OFFCURVE",
"561 668 OFFCURVE",
"740 902 OFFCURVE",
"905 1117 OFFCURVE",
"1050 1306 OFFCURVE",
"1116 1392 OFFCURVE",
"1147 1417 OFFCURVE",
"1170 1417 QCURVE SMOOTH",
"1196 1417 LINE SMOOTH",
"1225 1417 OFFCURVE",
"1241 1386 OFFCURVE",
"1242 1363 QCURVE SMOOTH",
"1257 677 LINE",
"1655 677 LINE",
"1698 731 OFFCURVE",
"1788 841 OFFCURVE",
"1876 949 OFFCURVE",
"1961 1053 OFFCURVE",
"2016 1121 OFFCURVE",
"2053 1165 OFFCURVE",
"2068.5 1188 QCURVE SMOOTH",
"2105 1242.16 OFFCURVE",
"2105 1307 OFFCURVE",
"2086 1345 OFFCURVE",
"2068.5 1354.5 QCURVE SMOOTH",
"2039.95 1370 OFFCURVE",
"1974 1370 QCURVE SMOOTH",
"1949 1370 OFFCURVE",
"1949 1410 OFFCURVE",
"1974 1410 QCURVE SMOOTH",
"2391 1410 LINE SMOOTH",
"2408 1410 OFFCURVE",
"2420 1404 OFFCURVE",
"2420 1393 QCURVE SMOOTH",
"2420 1370 OFFCURVE",
"2356 1370 OFFCURVE",
"2306 1345 OFFCURVE",
"2258 1306 OFFCURVE",
"2212 1258 OFFCURVE",
"2173 1211 OFFCURVE",
"2142 1169 OFFCURVE",
"2132 1157 QCURVE SMOOTH",
"1743 677 LINE",
"2120 677 LINE SMOOTH",
"2141 677 OFFCURVE",
"2141 657 QCURVE",
"2135 627 LINE SMOOTH",
"2130 602 OFFCURVE",
"2114 602 QCURVE SMOOTH",
"1682 602 LINE",
"1383 234 OFFCURVE",
"1316.5 150 QCURVE SMOOTH",
"1242.88 57 OFFCURVE",
"1194 -3 OFFCURVE",
"1186 -14 OFFCURVE",
"1181 -18 QCURVE SMOOTH",
"1169.75 -27 OFFCURVE",
"1150 -27 QCURVE SMOOTH"
);
},
{
closed = 1;
nodes = (
"1083 727 QCURVE SMOOTH",
"1072 1175 LINE SMOOTH",
"1072 1202 OFFCURVE",
"1062.5 1201.5 QCURVE SMOOTH",
"1051.22 1200.91 OFFCURVE",
"1013 1149 OFFCURVE",
"933 1043 OFFCURVE",
"885 981.5 QCURVE SMOOTH",
"779.154 845.885 OFFCURVE",
"689 727 OFFCURVE",
"679 714 OFFCURVE",
"674 707 QCURVE SMOOTH",
"661 688.8 OFFCURVE",
"661 677 OFFCURVE",
"666 677 QCURVE SMOOTH",
"1035 677 LINE SMOOTH",
"1057 677 OFFCURVE",
"1083 704 OFFCURVE"
);
},
{
closed = 1;
nodes = (
"1594 602 LINE",
"1259 602 LINE",
"1265 351 LINE SMOOTH",
"1266 318 OFFCURVE",
"1296 267 OFFCURVE",
"1326 267 OFFCURVE",
"1334 277 QCURVE SMOOTH"
);
}
);
width = 2260;
}
);
unicode = A73A;
},
{
glyphname = uniA73C;
layers = (
{
layerId = "13B3CF59-E667-4601-B808-7467DBC8B37E";
paths = (
{
closed = 1;
nodes = (
"2320 1393 QCURVE SMOOTH",
"2320 1370 OFFCURVE",
"2256 1370 OFFCURVE",
"2207 1345 OFFCURVE",
"2159 1306 OFFCURVE",
"2114 1258 OFFCURVE",
"2076 1211 OFFCURVE",
"2045 1169 OFFCURVE",
"2035 1157 QCURVE",
"890 -458 LINE SMOOTH",
"811.649 -566.927 OFFCURVE",
"691.5 -606 QCURVE SMOOTH",
"586.95 -640 OFFCURVE",
"371 -640 QCURVE SMOOTH",
"286.688 -640 OFFCURVE",
"241 -597 QCURVE SMOOTH",
"224 -581 OFFCURVE",
"224 -533 OFFCURVE",
"243 -492 OFFCURVE",
"258.5 -477 QCURVE SMOOTH",
"290.533 -446 OFFCURVE",
"372 -446 OFFCURVE",
"446 -474 OFFCURVE",
"482 -491.5 QCURVE SMOOTH",
"575.6 -537 OFFCURVE",
"664 -537 OFFCURVE",
"722 -527 OFFCURVE",
"748.5 -511.5 QCURVE SMOOTH",
"799.911 -481.429 OFFCURVE",
"862 -393 QCURVE SMOOTH",
"1102 -56 LINE",
"1087 558 LINE",
"1087 602 OFFCURVE",
"1034 602 QCURVE SMOOTH",
"632 602 LINE SMOOTH",
"591.933 602 OFFCURVE",
"567 568 QCURVE SMOOTH",
"516 499 OFFCURVE",
"411 365 OFFCURVE",
"347 280 OFFCURVE",
"321 244 OFFCURVE",
"310 225 QCURVE SMOOTH",
"285 181.818 OFFCURVE",
"285 96 OFFCURVE",
"360 40 OFFCURVE",
"421 40 QCURVE SMOOTH",
"470 40 LINE SMOOTH",
"483 40 OFFCURVE",
"483 29 QCURVE",
"478.844 4.067 OFFCURVE",
"468 0 OFFCURVE",
"458 0 QCURVE SMOOTH",
"-1 0 LINE SMOOTH",
"-20 0 OFFCURVE",
"-20 12 QCURVE SMOOTH",
"-20 40 OFFCURVE",
"1 40 QCURVE SMOOTH",
"23 40 LINE SMOOTH",
"61 40 OFFCURVE",
"101 69 OFFCURVE",
"201 200 OFFCURVE",
"380 432 OFFCURVE",
"561 668 OFFCURVE",
"740 902 OFFCURVE",
"905 1117 OFFCURVE",
"1050 1306 OFFCURVE",
"1116 1392 OFFCURVE",
"1147 1417 OFFCURVE",
"1170 1417 QCURVE SMOOTH",
"1196 1417 LINE SMOOTH",
"1225 1417 OFFCURVE",
"1241 1386 OFFCURVE",
"1242 1363 QCURVE SMOOTH",
"1265 351 LINE SMOOTH",
"1266 318 OFFCURVE",
"1296 267 OFFCURVE",
"1326 267 OFFCURVE",
"1334 277 QCURVE SMOOTH",
"1920 1101 LINE",
"1985 1182.25 OFFCURVE",
"1985 1275 QCURVE SMOOTH",
"1985 1335.19 OFFCURVE",
"1953.5 1354.5 QCURVE SMOOTH",
"1928.21 1370 OFFCURVE",
"1864 1370 QCURVE SMOOTH",
"1839 1370 OFFCURVE",
"1839 1410 OFFCURVE",
"1864 1410 QCURVE SMOOTH",
"2291 1410 LINE SMOOTH",
"2308 1410 OFFCURVE",
"2320 1404 OFFCURVE"
);
},
{
closed = 1;
nodes = (
"1083 727 QCURVE SMOOTH",
"1072 1175 LINE SMOOTH",
"1072 1202 OFFCURVE",
"1062.5 1201.5 QCURVE SMOOTH",
"1051.22 1200.91 OFFCURVE",
"1013 1149 OFFCURVE",
"933 1043 OFFCURVE",
"885 981.5 QCURVE SMOOTH",
"779.154 845.885 OFFCURVE",
"689 727 OFFCURVE",
"679 714 OFFCURVE",
"674 707 QCURVE SMOOTH",
"661 688.8 OFFCURVE",
"661 677 OFFCURVE",
"666 677 QCURVE SMOOTH",
"1035 677 LINE SMOOTH",
"1057 677 OFFCURVE",
"1083 704 OFFCURVE"
);
}
);
width = 2160;
}
);
unicode = A73C;
},
{
glyphname = uniA740;
layers = (
{
layerId = "13B3CF59-E667-4601-B808-7467DBC8B37E";
paths = (
{
closed = 1;
nodes = (
"1496 40 LINE SMOOTH",
"1505 40 OFFCURVE",
"1505 28 QCURVE SMOOTH",
"1505 10 LINE SMOOTH",
"1505 0 OFFCURVE",
"1492 0 QCURVE SMOOTH",
"1149 0 LINE",
"1136 16 OFFCURVE",
"1066 100 OFFCURVE",
"972 214 OFFCURVE",
"861 346 OFFCURVE",
"752 477 OFFCURVE",
"653 596 OFFCURVE",
"612 645 OFFCURVE",
"597 663 OFFCURVE",
"589 671 QCURVE SMOOTH",
"570 690 OFFCURVE",
"541 690 OFFCURVE",
"497 655 OFFCURVE",
"487 617 QCURVE",
"389 160 LINE SMOOTH",
"385 144 OFFCURVE",
"385 96 OFFCURVE",
"421 60 OFFCURVE",
"449 51.5 QCURVE SMOOTH",
"486.882 40 OFFCURVE",
"571 40 QCURVE SMOOTH",
"577 40 OFFCURVE",
"577 32 QCURVE",
"572 8 LINE SMOOTH",
"569.333 0 OFFCURVE",
"563 0 QCURVE SMOOTH",
"27 0 LINE SMOOTH",
"20 0 OFFCURVE",
"20 8 QCURVE",
"25 32 LINE",
"29 40 OFFCURVE",
"70 40 OFFCURVE",
"129 49 OFFCURVE",
"152 64 QCURVE SMOOTH",
"200.845 95.855 OFFCURVE",
"219 183 QCURVE SMOOTH",
"406 1063 LINE",
"271 1063 LINE SMOOTH",
"250 1063 OFFCURVE",
"250 1083 QCURVE",
"255 1113 LINE SMOOTH",
"260 1138 OFFCURVE",
"277 1138 QCURVE SMOOTH",
"422 1138 LINE",
"451 1271 LINE SMOOTH",
"453 1281 OFFCURVE",
"453 1311 OFFCURVE",
"414 1344 OFFCURVE",
"386.5 1353.5 QCURVE SMOOTH",
"338.737 1370 OFFCURVE",
"280 1370 QCURVE SMOOTH",
"274 1370 OFFCURVE",
"274 1378 QCURVE",
"279 1402 LINE SMOOTH",
"281 1410 OFFCURVE",
"289 1410 QCURVE SMOOTH",
"810 1410 LINE SMOOTH",
"816 1410 OFFCURVE",
"816 1402 QCURVE",
"811 1378 LINE SMOOTH",
"809 1370 OFFCURVE",
"766 1370 OFFCURVE",
"707 1361 OFFCURVE",
"683.5 1346 QCURVE SMOOTH",
"634.241 1314.56 OFFCURVE",
"616 1227 QCURVE SMOOTH",
"597 1138 LINE",
"830 1138 LINE SMOOTH",
"851 1138 OFFCURVE",
"851 1118 QCURVE",
"845 1088 LINE SMOOTH",
"840 1063 OFFCURVE",
"824 1063 QCURVE SMOOTH",
"580 1063 LINE",
"521 791.087 OFFCURVE",
"521 769 OFFCURVE",
"533 769 OFFCURVE",
"573 796 OFFCURVE",
"623 830 OFFCURVE",
"668 862 OFFCURVE",
"705 888 OFFCURVE",
"736 912 OFFCURVE",
"811 966 OFFCURVE",
"903 1032 OFFCURVE",
"1004 1104 OFFCURVE",
"1095 1169 OFFCURVE",
"1169 1221 OFFCURVE",
"1203 1245 OFFCURVE",
"1223 1261 OFFCURVE",
"1229 1270 QCURVE SMOOTH",
"1240 1286.5 OFFCURVE",
"1240 1351 OFFCURVE",
"1214 1370 OFFCURVE",
"1183 1370 QCURVE SMOOTH",
"1148 1370 LINE SMOOTH",
"1130 1370 OFFCURVE",
"1130 1383 QCURVE SMOOTH",
"1130 1399 LINE SMOOTH",
"1130 1410 OFFCURVE",
"1147 1410 QCURVE SMOOTH",
"1644 1410 LINE SMOOTH",
"1656 1410 OFFCURVE",
"1656 1399 QCURVE SMOOTH",
"1656 1382 LINE SMOOTH",
"1656 1370 OFFCURVE",
"1603 1370 OFFCURVE",
"1558 1361 OFFCURVE",
"1518 1346 OFFCURVE",
"1474 1326 OFFCURVE",
"1423 1306 OFFCURVE",
"1370 1278 OFFCURVE",
"1332.5 1254 QCURVE SMOOTH",
"1265.55 1211.15 OFFCURVE",
"1108 1094 OFFCURVE",
"1056 1056 OFFCURVE",
"984 1005 OFFCURVE",
"901 945 OFFCURVE",
"821 888 OFFCURVE",
"753 840 OFFCURVE",
"714 811 OFFCURVE",
"714 805.5 QCURVE SMOOTH",
"714 795.2 OFFCURVE",
"724 782.1 QCURVE SMOOTH",
"735.709 766.761 OFFCURVE",
"810 679 OFFCURVE",
"919 547 OFFCURVE",
"977 477.5 QCURVE SMOOTH",
"1142.51 279.171 OFFCURVE",
"1213 198 OFFCURVE",
"1265 135 OFFCURVE",
"1295.5 107 QCURVE SMOOTH",
"1368.48 40 OFFCURVE",
"1430 40 QCURVE SMOOTH"
);
}
);
width = 1556;
}
);
unicode = A740;
},
{
glyphname = uniA742;
layers = (
{
layerId = "13B3CF59-E667-4601-B808-7467DBC8B37E";
paths = (
{
closed = 1;
nodes = (
"1496 40 LINE SMOOTH",
"1505 40 OFFCURVE",
"1505 28 QCURVE SMOOTH",
"1505 10 LINE SMOOTH",
"1505 0 OFFCURVE",
"1492 0 QCURVE SMOOTH",
"1149 0 LINE",
"981 202 LINE",
"752 -18 LINE",
"744 -24 OFFCURVE",
"736 -24 QCURVE SMOOTH",
"727 -24 OFFCURVE",
"715.5 -11.5 QCURVE SMOOTH",
"702 3.174 OFFCURVE",
"702 22 OFFCURVE",
"713 33 QCURVE SMOOTH",
"940 251 LINE",
"618 638 LINE SMOOTH",
"612 645 OFFCURVE",
"597 663 OFFCURVE",
"589 671 QCURVE SMOOTH",
"570 690 OFFCURVE",
"541 690 OFFCURVE",
"497 655 OFFCURVE",
"487 617 QCURVE",
"389 160 LINE SMOOTH",
"385 144 OFFCURVE",
"385 96 OFFCURVE",
"421 60 OFFCURVE",
"449 51.5 QCURVE SMOOTH",
"486.882 40 OFFCURVE",
"571 40 QCURVE SMOOTH",
"577 40 OFFCURVE",
"577 32 QCURVE",
"572 8 LINE SMOOTH",
"569.333 0 OFFCURVE",
"563 0 QCURVE SMOOTH",
"27 0 LINE SMOOTH",
"20 0 OFFCURVE",
"20 8 QCURVE",
"25 32 LINE",
"29 40 OFFCURVE",
"70 40 OFFCURVE",
"129 49 OFFCURVE",
"152 64 QCURVE SMOOTH",
"200.845 95.855 OFFCURVE",
"219 183 QCURVE SMOOTH",
"451 1271 LINE SMOOTH",
"453 1281 OFFCURVE",
"453 1311 OFFCURVE",
"414 1344 OFFCURVE",
"386.5 1353.5 QCURVE SMOOTH",
"338.737 1370 OFFCURVE",
"280 1370 QCURVE SMOOTH",
"274 1370 OFFCURVE",
"274 1378 QCURVE",
"279 1402 LINE SMOOTH",
"281 1410 OFFCURVE",
"289 1410 QCURVE SMOOTH",
"810 1410 LINE SMOOTH",
"816 1410 OFFCURVE",
"816 1402 QCURVE",
"811 1378 LINE SMOOTH",
"809 1370 OFFCURVE",
"766 1370 OFFCURVE",
"707 1361 OFFCURVE",
"683.5 1346 QCURVE SMOOTH",
"634.241 1314.56 OFFCURVE",
"592 1116 OFFCURVE",
"559 962 OFFCURVE",
"538 863 OFFCURVE",
"532.5 835.5 QCURVE SMOOTH",
"524.5 795.5 LINE SMOOTH",
"519.2 769 OFFCURVE",
"533 769 OFFCURVE",
"573 796 OFFCURVE",
"623 830 OFFCURVE",
"668 862 OFFCURVE",
"705 888 OFFCURVE",
"736 912 OFFCURVE",
"811 966 OFFCURVE",
"903 1032 OFFCURVE",
"1004 1104 OFFCURVE",
"1095 1169 OFFCURVE",
"1169 1221 OFFCURVE",
"1203 1245 OFFCURVE",
"1223 1261 OFFCURVE",
"1229 1270 QCURVE SMOOTH",
"1240 1286.5 OFFCURVE",
"1240 1351 OFFCURVE",
"1214 1370 OFFCURVE",
"1183 1370 QCURVE SMOOTH",
"1148 1370 LINE SMOOTH",
"1130 1370 OFFCURVE",
"1130 1383 QCURVE SMOOTH",
"1130 1399 LINE SMOOTH",
"1130 1410 OFFCURVE",
"1147 1410 QCURVE SMOOTH",
"1644 1410 LINE SMOOTH",
"1656 1410 OFFCURVE",
"1656 1399 QCURVE SMOOTH",
"1656 1382 LINE SMOOTH",
"1656 1370 OFFCURVE",
"1603 1370 OFFCURVE",
"1558 1361 OFFCURVE",
"1518 1346 OFFCURVE",
"1474 1326 OFFCURVE",
"1423 1306 OFFCURVE",
"1370 1278 OFFCURVE",
"1332.5 1254 QCURVE SMOOTH",
"1265.55 1211.15 OFFCURVE",
"1108 1094 OFFCURVE",
"1056 1056 OFFCURVE",
"984 1005 OFFCURVE",
"901 945 OFFCURVE",
"821 888 OFFCURVE",
"753 840 OFFCURVE",
"714 811 OFFCURVE",
"714 805.5 QCURVE SMOOTH",
"714 795.2 OFFCURVE",
"725 782 QCURVE SMOOTH",
"1065 371 LINE",
"1327 623 LINE SMOOTH",
"1332 628 OFFCURVE",
"1346 628 QCURVE SMOOTH",
"1354.11 628 OFFCURVE",
"1377 603 OFFCURVE",
"1377 582 OFFCURVE",
"1367 574 QCURVE",
"1106 322 LINE",
"1145.73 275.364 OFFCURVE",
"1193 221 QCURVE SMOOTH",
"1213 198 OFFCURVE",
"1265 135 OFFCURVE",
"1295.5 107 QCURVE SMOOTH",
"1368.48 40 OFFCURVE",
"1430 40 QCURVE SMOOTH"
);
}
);
width = 1556;
}
);
unicode = A742;
},
{
glyphname = uniA744;
layers = (
{
layerId = "13B3CF59-E667-4601-B808-7467DBC8B37E";
paths = (
{
closed = 1;
nodes = (
"1496 40 LINE SMOOTH",
"1505 40 OFFCURVE",
"1505 28 QCURVE SMOOTH",
"1505 10 LINE SMOOTH",
"1505 0 OFFCURVE",
"1492 0 QCURVE SMOOTH",
"1149 0 LINE",
"981 202 LINE",
"752 -18 LINE",
"744 -24 OFFCURVE",
"736 -24 QCURVE SMOOTH",
"727 -24 OFFCURVE",
"715.5 -11.5 QCURVE SMOOTH",
"702 3.174 OFFCURVE",
"702 22 OFFCURVE",
"713 33 QCURVE SMOOTH",
"940 251 LINE",
"625 629 LINE SMOOTH",
"619 635 OFFCURVE",
"601 656 OFFCURVE",
"591.5 666 QCURVE SMOOTH",
"568.7 690 OFFCURVE",
"537 690 OFFCURVE",
"497 655 OFFCURVE",
"487 617 QCURVE",
"389 160 LINE SMOOTH",
"385 144 OFFCURVE",
"385 96 OFFCURVE",
"421 60 OFFCURVE",
"449 51.5 QCURVE SMOOTH",
"486.882 40 OFFCURVE",
"571 40 QCURVE SMOOTH",
"577 40 OFFCURVE",
"577 32 QCURVE",
"572 8 LINE SMOOTH",
"569.333 0 OFFCURVE",
"563 0 QCURVE SMOOTH",
"27 0 LINE SMOOTH",
"20 0 OFFCURVE",
"20 8 QCURVE",
"25 32 LINE",
"29 40 OFFCURVE",
"70 40 OFFCURVE",
"129 49 OFFCURVE",
"152 64 QCURVE SMOOTH",
"200.845 95.855 OFFCURVE",
"219 183 QCURVE SMOOTH",
"406 1063 LINE",
"271 1063 LINE SMOOTH",
"250 1063 OFFCURVE",
"250 1083 QCURVE",
"255 1113 LINE SMOOTH",
"260 1138 OFFCURVE",
"277 1138 QCURVE SMOOTH",
"422 1138 LINE",
"451 1271 LINE SMOOTH",
"453 1281 OFFCURVE",
"453 1311 OFFCURVE",
"414 1344 OFFCURVE",
"386.5 1353.5 QCURVE SMOOTH",
"338.737 1370 OFFCURVE",
"280 1370 QCURVE SMOOTH",
"274 1370 OFFCURVE",
"274 1378 QCURVE",
"279 1402 LINE SMOOTH",
"281 1410 OFFCURVE",
"289 1410 QCURVE SMOOTH",
"810 1410 LINE SMOOTH",
"816 1410 OFFCURVE",
"816 1402 QCURVE",
"811 1378 LINE SMOOTH",
"809 1370 OFFCURVE",
"766 1370 OFFCURVE",
"707 1361 OFFCURVE",
"683.5 1346 QCURVE SMOOTH",
"634.241 1314.56 OFFCURVE",
"616 1227 QCURVE SMOOTH",
"597 1138 LINE",
"830 1138 LINE SMOOTH",
"851 1138 OFFCURVE",
"851 1118 QCURVE",
"845 1088 LINE SMOOTH",
"840 1063 OFFCURVE",
"824 1063 QCURVE SMOOTH",
"580 1063 LINE",
"521 791.087 OFFCURVE",
"521 769 OFFCURVE",
"533 769 OFFCURVE",
"573 796 OFFCURVE",
"623 830 OFFCURVE",
"668 862 OFFCURVE",
"705 888 OFFCURVE",
"736 912 OFFCURVE",
"811 966 OFFCURVE",
"903 1032 OFFCURVE",
"1004 1104 OFFCURVE",
"1095 1169 OFFCURVE",
"1169 1221 OFFCURVE",
"1203 1245 OFFCURVE",
"1223 1261 OFFCURVE",
"1229 1270 QCURVE SMOOTH",
"1240 1286.5 OFFCURVE",
"1240 1351 OFFCURVE",
"1214 1370 OFFCURVE",
"1183 1370 QCURVE SMOOTH",
"1148 1370 LINE SMOOTH",
"1130 1370 OFFCURVE",
"1130 1383 QCURVE SMOOTH",
"1130 1399 LINE SMOOTH",
"1130 1410 OFFCURVE",
"1147 1410 QCURVE SMOOTH",
"1644 1410 LINE SMOOTH",
"1656 1410 OFFCURVE",
"1656 1399 QCURVE SMOOTH",
"1656 1382 LINE SMOOTH",
"1656 1370 OFFCURVE",
"1603 1370 OFFCURVE",
"1558 1361 OFFCURVE",
"1518 1346 OFFCURVE",
"1474 1326 OFFCURVE",
"1423 1306 OFFCURVE",
"1370 1278 OFFCURVE",
"1332.5 1254 QCURVE SMOOTH",
"1265.55 1211.15 OFFCURVE",
"1108 1094 OFFCURVE",
"1056 1056 OFFCURVE",
"984 1005 OFFCURVE",
"901 945 OFFCURVE",
"821 888 OFFCURVE",
"753 840 OFFCURVE",
"714 811 OFFCURVE",
"714 805.5 QCURVE SMOOTH",
"714 795.2 OFFCURVE",
"778 718 OFFCURVE",
"871 606 OFFCURVE",
"954 505 OFFCURVE",
"1029 413 OFFCURVE",
"1065 371 QCURVE",
"1327 623 LINE SMOOTH",
"1332 628 OFFCURVE",
"1346 628 QCURVE SMOOTH",
"1354.11 628 OFFCURVE",
"1377 603 OFFCURVE",
"1377 582 OFFCURVE",
"1367 574 QCURVE",
"1106 322 LINE",
"1145.73 275.364 OFFCURVE",
"1193 221 QCURVE SMOOTH",
"1213 198 OFFCURVE",
"1265 135 OFFCURVE",
"1295.5 107 QCURVE SMOOTH",
"1368.48 40 OFFCURVE",
"1430 40 QCURVE SMOOTH"
);
}
);
width = 1556;
}
);
unicode = A744;
},
{
glyphname = uniA746;
layers = (
{
layerId = "13B3CF59-E667-4601-B808-7467DBC8B37E";
paths = (
{
closed = 1;
nodes = (
"123 776 LINE",
"227 1260 OFFCURVE",
"227 1302 OFFCURVE",
"188 1340 OFFCURVE",
"159 1351 QCURVE SMOOTH",
"108.909 1370 OFFCURVE",
"34 1370 QCURVE SMOOTH",
"28 1370 OFFCURVE",
"28 1378 QCURVE",
"33 1402 LINE SMOOTH",
"35 1410 OFFCURVE",
"43 1410 QCURVE SMOOTH",
"630 1410 LINE SMOOTH",
"636 1410 OFFCURVE",
"636 1402 QCURVE",
"631 1378 LINE SMOOTH",
"629 1370 OFFCURVE",
"586 1370 OFFCURVE",
"514 1361 OFFCURVE",
"483.5 1346 QCURVE SMOOTH",
"414.747 1312.19 OFFCURVE",
"397 1227 QCURVE SMOOTH",
"371 1103 OFFCURVE",
"326 897 OFFCURVE",
"308 810 QCURVE",
"491.333 743.333 OFFCURVE",
"512 733 QCURVE",
"404 225 OFFCURVE",
"404 194 QCURVE SMOOTH",
"404 61 OFFCURVE",
"590 61 QCURVE SMOOTH",
"865.931 61 OFFCURVE",
"965.5 99.5 QCURVE SMOOTH",
"1036.33 126.888 OFFCURVE",
"1129 215 OFFCURVE",
"1176 264 OFFCURVE",
"1198 291 OFFCURVE",
"1209 302.5 QCURVE SMOOTH",
"1235.3 330 OFFCURVE",
"1276 330 OFFCURVE",
"1276 311 QCURVE SMOOTH",
"1276 298.6 OFFCURVE",
"1226 185 OFFCURVE",
"1192 79 OFFCURVE",
"1170 21 OFFCURVE",
"1144 0 OFFCURVE",
"1116 0 QCURVE SMOOTH",
"31 0 LINE SMOOTH",
"20 0 OFFCURVE",
"20 12 QCURVE SMOOTH",
"20 40 OFFCURVE",
"77 40 OFFCURVE",
"133 49 OFFCURVE",
"155 64 QCURVE SMOOTH",
"199.534 94.364 OFFCURVE",
"218 183 QCURVE SMOOTH",
"328 703 LINE"
);
}
);
width = 1286;
}
);
unicode = A746;
},
{
glyphname = uniA748;
layers = (
{
layerId = "13B3CF59-E667-4601-B808-7467DBC8B37E";
paths = (
{
closed = 1;
nodes = (
"20 12 QCURVE SMOOTH",
"20 40 OFFCURVE",
"77 40 OFFCURVE",
"133 49 OFFCURVE",
"155 64 QCURVE SMOOTH",
"199.534 94.364 OFFCURVE",
"218 183 QCURVE SMOOTH",
"404 1063 LINE",
"271 1063 LINE SMOOTH",
"250 1063 OFFCURVE",
"250 1083 QCURVE",
"255 1113 LINE SMOOTH",
"260 1138 OFFCURVE",
"277 1138 QCURVE SMOOTH",
"420 1138 LINE",
"447 1262.2 OFFCURVE",
"447 1302 OFFCURVE",
"408 1340 OFFCURVE",
"379 1351 QCURVE SMOOTH",
"328.909 1370 OFFCURVE",
"254 1370 QCURVE SMOOTH",
"248 1370 OFFCURVE",
"248 1378 QCURVE",
"253 1402 LINE SMOOTH",
"255 1410 OFFCURVE",
"263 1410 QCURVE SMOOTH",
"850 1410 LINE SMOOTH",
"856 1410 OFFCURVE",
"856 1402 QCURVE",
"851 1378 LINE SMOOTH",
"849 1370 OFFCURVE",
"806 1370 OFFCURVE",
"734 1361 OFFCURVE",
"703.5 1346 QCURVE SMOOTH",
"634.747 1312.19 OFFCURVE",
"617 1227 QCURVE SMOOTH",
"598 1138 LINE",
"830 1138 LINE SMOOTH",
"851 1138 OFFCURVE",
"851 1118 QCURVE",
"845 1088 LINE SMOOTH",
"840 1063 OFFCURVE",
"824 1063 QCURVE SMOOTH",
"582 1063 LINE",
"404 221.545 OFFCURVE",
"404 194 QCURVE SMOOTH",
"404 61 OFFCURVE",
"590 61 QCURVE SMOOTH",
"865.931 61 OFFCURVE",
"965.5 99.5 QCURVE SMOOTH",
"1036.33 126.888 OFFCURVE",
"1129 215 OFFCURVE",
"1176 264 OFFCURVE",
"1198 291 OFFCURVE",
"1209 302.5 QCURVE SMOOTH",
"1235.3 330 OFFCURVE",
"1276 330 OFFCURVE",
"1276 311 QCURVE SMOOTH",
"1276 298.6 OFFCURVE",
"1226 185 OFFCURVE",
"1192 79 OFFCURVE",
"1170 21 OFFCURVE",
"1144 0 OFFCURVE",
"1116 0 QCURVE SMOOTH",
"31 0 LINE SMOOTH",
"20 0 OFFCURVE"
);
}
);
width = 1286;
}
);
unicode = A748;
},
{
glyphname = uniA74A;
layers = (
{
layerId = "13B3CF59-E667-4601-B808-7467DBC8B37E";
paths = (
{
closed = 1;
nodes = (
"1802 836 QCURVE SMOOTH",
"1802 802.5 OFFCURVE",
"1797 750 QCURVE",
"1980 750 LINE SMOOTH",
"2001 750 OFFCURVE",
"2001 730 QCURVE",
"1995 700 LINE SMOOTH",
"1990 675 OFFCURVE",
"1974 675 QCURVE SMOOTH",
"1787 675 LINE",
"1730.24 383.079 OFFCURVE",
"1504 193.5 QCURVE SMOOTH",
"1273.08 0 OFFCURVE",
"966 0 QCURVE SMOOTH",
"777.167 0 OFFCURVE",
"614 89 QCURVE SMOOTH",
"458.891 173.605 OFFCURVE",
"367.5 322.5 QCURVE SMOOTH",
"275 473.202 OFFCURVE",
"275 651 QCURVE SMOOTH",
"275 675 LINE",
"81 675 LINE SMOOTH",
"60 675 OFFCURVE",
"60 695 QCURVE",
"65 725 LINE SMOOTH",
"70 750 OFFCURVE",
"87 750 QCURVE SMOOTH",
"281 750 LINE",
"320.321 1043.4 OFFCURVE",
"543.5 1246 QCURVE SMOOTH",
"770.422 1452 OFFCURVE",
"1064 1452 QCURVE SMOOTH",
"1420.23 1452 OFFCURVE",
"1618 1272.5 QCURVE SMOOTH",
"1802 1105.5 OFFCURVE"
);
},
{
closed = 1;
nodes = (
"1603 750 LINE",
"1614 833.6 OFFCURVE",
"1614 1009 OFFCURVE",
"1553 1198 OFFCURVE",
"1490.5 1268 QCURVE SMOOTH",
"1355.68 1419 OFFCURVE",
"1107 1419 QCURVE SMOOTH",
"842.032 1419 OFFCURVE",
"669.5 1213.5 QCURVE SMOOTH",
"513.256 1027.4 OFFCURVE",
"481 750 QCURVE"
);
},
{
closed = 1;
nodes = (
"969 41 QCURVE SMOOTH",
"1090 41 OFFCURVE",
"1298 148 OFFCURVE",
"1377 236.5 QCURVE SMOOTH",
"1532.73 410.955 OFFCURVE",
"1589 675 QCURVE",
"475 675 LINE",
"474 662 OFFCURVE",
"474 649.5 QCURVE SMOOTH",
"474 625 LINE SMOOTH",
"474 371.484 OFFCURVE",
"604 209.5 QCURVE SMOOTH",
"739.229 41 OFFCURVE"
);
}
);
width = 1921;
}
);
unicode = A74A;
},
{
glyphname = uniA74C;
layers = (
{
layerId = "13B3CF59-E667-4601-B808-7467DBC8B37E";
paths = (
{
closed = 1;
nodes = (
"933 0 OFFCURVE",
"719 0 OFFCURVE",
"541 47 OFFCURVE",
"387 131 OFFCURVE",
"262 250 OFFCURVE",
"217.5 322.5 QCURVE SMOOTH",
"125 473.202 OFFCURVE",
"125 651 QCURVE SMOOTH",
"125 863.442 OFFCURVE",
"234 1050 QCURVE SMOOTH",
"339.865 1231.19 OFFCURVE",
"519.5 1340 QCURVE SMOOTH",
"704.406 1452 OFFCURVE",
"914 1452 QCURVE SMOOTH",
"1260.5 1452 OFFCURVE",
"1456.5 1281.5 QCURVE SMOOTH",
"1518 1228 OFFCURVE",
"1560 1163 QCURVE",
"1679.24 1367.41 OFFCURVE",
"1854.5 1430.5 QCURVE SMOOTH",
"1917 1453 OFFCURVE",
"2018 1453 OFFCURVE",
"2078 1434 OFFCURVE",
"2101 1415.5 QCURVE SMOOTH",
"2152 1374.48 OFFCURVE",
"2152 1249 OFFCURVE",
"2100 1157 OFFCURVE",
"2015 1086 OFFCURVE",
"1906 1033 OFFCURVE",
"1793 993 OFFCURVE",
"1685 961 OFFCURVE",
"1643 946 QCURVE",
"1652 892 OFFCURVE",
"1652 721 OFFCURVE",
"1593 507 OFFCURVE",
"1486 321 OFFCURVE",
"1335 168 OFFCURVE",
"1149 60 OFFCURVE"
);
},
{
closed = 1;
nodes = (
"807.5 41 QCURVE SMOOTH",
"917 41 OFFCURVE",
"1096 114 OFFCURVE",
"1241 241 OFFCURVE",
"1351 410 OFFCURVE",
"1388.5 505.5 QCURVE SMOOTH",
"1464 697.773 OFFCURVE",
"1464 902 QCURVE SMOOTH",
"1464 1129.68 OFFCURVE",
"1340.5 1268 QCURVE SMOOTH",
"1205.68 1419 OFFCURVE",
"957 1419 QCURVE SMOOTH",
"659.737 1419 OFFCURVE",
"484 1167 QCURVE SMOOTH",
"324 937.566 OFFCURVE",
"324 625 QCURVE SMOOTH",
"324 371.484 OFFCURVE",
"454 209.5 QCURVE SMOOTH",
"589.229 41 OFFCURVE"
);
},
{
closed = 1;
nodes = (
"2029 1313 QCURVE SMOOTH",
"2029 1404 OFFCURVE",
"1949 1404 QCURVE SMOOTH",
"1800.14 1404 OFFCURVE",
"1705 1182 QCURVE SMOOTH",
"1675.21 1112.49 OFFCURVE",
"1654 1025 QCURVE",
"1654 1008 OFFCURVE",
"1681 1008 QCURVE",
"1831.51 1051.79 OFFCURVE",
"1962 1143 OFFCURVE",
"2029 1243 OFFCURVE"
);
}
);
width = 2157;
}
);
unicode = A74C;
},
{
glyphname = uniA74E;
layers = (
{
layerId = "13B3CF59-E667-4601-B808-7467DBC8B37E";
paths = (
{
closed = 1;
nodes = (
"2362 30 QCURVE SMOOTH",
"2254 0 OFFCURVE",
"2032 0 OFFCURVE",
"1841 54 OFFCURVE",
"1760.5 103 QCURVE SMOOTH",
"1595.19 203.625 OFFCURVE",
"1512 370 QCURVE",
"1336.42 106.628 OFFCURVE",
"1028 26.5 QCURVE SMOOTH",
"926 0 OFFCURVE",
"719 0 OFFCURVE",
"541 47 OFFCURVE",
"387 131 OFFCURVE",
"262 250 OFFCURVE",
"217.5 322.5 QCURVE SMOOTH",
"125 473.202 OFFCURVE",
"125 651 QCURVE SMOOTH",
"125 863.442 OFFCURVE",
"234 1050 QCURVE SMOOTH",
"339.865 1231.19 OFFCURVE",
"519.5 1340 QCURVE SMOOTH",
"704.406 1452 OFFCURVE",
"914 1452 QCURVE SMOOTH",
"1296.55 1452 OFFCURVE",
"1493 1247.5 QCURVE SMOOTH",
"1554 1184 OFFCURVE",
"1592 1107 QCURVE",
"1763.07 1350.94 OFFCURVE",
"2044.5 1427 QCURVE SMOOTH",
"2137 1452 OFFCURVE",
"2420 1452 OFFCURVE",
"2697 1356 OFFCURVE",
"2789 1272.5 QCURVE SMOOTH",
"2973 1105.5 OFFCURVE",
"2973 836 QCURVE SMOOTH",
"2973 609.561 OFFCURVE",
"2860.5 414 QCURVE SMOOTH",
"2692.39 121.776 OFFCURVE"
);
},
{
closed = 1;
nodes = (
"2128.5 41 QCURVE SMOOTH",
"2238 41 OFFCURVE",
"2417 114 OFFCURVE",
"2562 241 OFFCURVE",
"2672 410 OFFCURVE",
"2709.5 505.5 QCURVE SMOOTH",
"2785 697.773 OFFCURVE",
"2785 902 QCURVE SMOOTH",
"2785 1129.68 OFFCURVE",
"2661.5 1268 QCURVE SMOOTH",
"2526.68 1419 OFFCURVE",
"2278 1419 QCURVE SMOOTH",
"1980.74 1419 OFFCURVE",
"1805 1167 QCURVE SMOOTH",
"1645 937.566 OFFCURVE",
"1645 625 QCURVE SMOOTH",
"1645 371.484 OFFCURVE",
"1775 209.5 QCURVE SMOOTH",
"1910.23 41 OFFCURVE"
);
},
{
closed = 1;
nodes = (
"698 41 OFFCURVE",
"903 41 OFFCURVE",
"1061 96 OFFCURVE",
"1193 193 OFFCURVE",
"1301 326 OFFCURVE",
"1342 403.5 QCURVE SMOOTH",
"1421.29 553.379 OFFCURVE",
"1451 738 QCURVE",
"1453.64 764.364 OFFCURVE",
"1456.82 785.682 QCURVE SMOOTH",
"1464 833.8 OFFCURVE",
"1464 1009 OFFCURVE",
"1403 1198 OFFCURVE",
"1340.5 1268 QCURVE SMOOTH",
"1205.68 1419 OFFCURVE",
"957 1419 QCURVE SMOOTH",
"659.737 1419 OFFCURVE",
"484 1167 QCURVE SMOOTH",
"324 937.566 OFFCURVE",
"324 625 QCURVE SMOOTH",
"324 371.484 OFFCURVE",
"454 209.5 QCURVE SMOOTH",
"517 131 OFFCURVE"
);
}
);
width = 2953;
}
);
unicode = A74E;
},
{
glyphname = uniA750;
layers = (
{
layerId = "13B3CF59-E667-4601-B808-7467DBC8B37E";
paths = (
{
closed = 1;
nodes = (
"567 569 QCURVE SMOOTH",
"567 600 OFFCURVE",
"600 600 QCURVE SMOOTH",
"823.87 600 OFFCURVE",
"950.5 716.5 QCURVE SMOOTH",
"1081 836.56 OFFCURVE",
"1081 1059 QCURVE SMOOTH",
"1081 1363 OFFCURVE",
"728 1363 QCURVE SMOOTH",
"669.3 1363 OFFCURVE",
"637 1329 OFFCURVE",
"634 1312 QCURVE SMOOTH",
"433 370 LINE",
"727 370 LINE SMOOTH",
"748 370 OFFCURVE",
"748 350 QCURVE",
"742 320 LINE SMOOTH",
"737 295 OFFCURVE",
"721 295 QCURVE SMOOTH",
"417 295 LINE",
"389 160 LINE SMOOTH",
"386 143 OFFCURVE",
"386 98 OFFCURVE",
"422 61 OFFCURVE",
"449.5 52 QCURVE SMOOTH",
"486.167 40 OFFCURVE",
"571 40 QCURVE SMOOTH",
"577 40 OFFCURVE",
"577 32 QCURVE",
"572 8 LINE SMOOTH",
"569.333 0 OFFCURVE",
"563 0 QCURVE SMOOTH",
"27 0 LINE SMOOTH",
"20 0 OFFCURVE",
"20 8 QCURVE",
"25 32 LINE",
"29 40 OFFCURVE",
"70 40 OFFCURVE",
"129 49 OFFCURVE",
"152.5 64 QCURVE SMOOTH",
"200.605 94.705 OFFCURVE",
"219 183 QCURVE SMOOTH",
"242 295 LINE",
"105 295 LINE SMOOTH",
"84 295 OFFCURVE",
"84 315 QCURVE",
"89 345 LINE SMOOTH",
"94 370 OFFCURVE",
"111 370 QCURVE SMOOTH",
"258 370 LINE",
"441 1231 LINE SMOOTH",
"447 1258 OFFCURVE",
"447 1308 OFFCURVE",
"423 1341 OFFCURVE",
"402 1348.5 QCURVE SMOOTH",
"372.6 1359 OFFCURVE",
"293 1359 QCURVE SMOOTH",
"230 1359 LINE SMOOTH",
"223 1359 OFFCURVE",
"223 1367 QCURVE",
"231 1400 LINE",
"231 1410 OFFCURVE",
"240 1410 QCURVE SMOOTH",
"546.5 1409 LINE SMOOTH",
"666.25 1409 OFFCURVE",
"837 1409 OFFCURVE",
"948 1391 OFFCURVE",
"1055 1354 OFFCURVE",
"1150 1296 OFFCURVE",
"1186.5 1256.5 QCURVE SMOOTH",
"1265 1171.55 OFFCURVE",
"1265 958 OFFCURVE",
"1212 812 OFFCURVE",
"1119 701 OFFCURVE",
"993 623 OFFCURVE",
"919 598.5 QCURVE SMOOTH",
"778.551 552 OFFCURVE",
"601 552 QCURVE SMOOTH",
"567 552 OFFCURVE"
);
}
);
width = 1215;
}
);
unicode = A750;
},
{
glyphname = uniA752;
layers = (
{
layerId = "13B3CF59-E667-4601-B808-7467DBC8B37E";
paths = (
{
closed = 1;
nodes = (
"821 569 QCURVE SMOOTH",
"821 600 OFFCURVE",
"854 600 QCURVE SMOOTH",
"1077.87 600 OFFCURVE",
"1204.5 716.5 QCURVE SMOOTH",
"1335 836.56 OFFCURVE",
"1335 1059 QCURVE SMOOTH",
"1335 1363 OFFCURVE",
"982 1363 QCURVE SMOOTH",
"923.3 1363 OFFCURVE",
"891 1329 OFFCURVE",
"888 1312 QCURVE SMOOTH",
"643 160 LINE SMOOTH",
"640 143 OFFCURVE",
"640 98 OFFCURVE",
"676 61 OFFCURVE",
"703.5 52 QCURVE SMOOTH",
"740.167 40 OFFCURVE",
"825 40 QCURVE SMOOTH",
"831 40 OFFCURVE",
"831 32 QCURVE",
"826 8 LINE SMOOTH",
"823.333 0 OFFCURVE",
"817 0 QCURVE SMOOTH",
"281 0 LINE SMOOTH",
"274 0 OFFCURVE",
"274 8 QCURVE",
"279 32 LINE",
"283 40 OFFCURVE",
"324 40 OFFCURVE",
"383 49 OFFCURVE",
"406.5 64 QCURVE SMOOTH",
"455.678 95.39 OFFCURVE",
"478.5 209.5 QCURVE SMOOTH",
"483 232 OFFCURVE",
"498 304 OFFCURVE",
"513 378 OFFCURVE",
"536 485 OFFCURVE",
"552 560 QCURVE",
"424 568 OFFCURVE",
"219 568 OFFCURVE",
"138 533 OFFCURVE",
"111 506 QCURVE SMOOTH",
"58 453 OFFCURVE",
"58 287 OFFCURVE",
"152 189 OFFCURVE",
"233 189 QCURVE SMOOTH",
"279.345 189 OFFCURVE",
"306.5 226.5 QCURVE SMOOTH",
"317 241 OFFCURVE",
"332 264 OFFCURVE",
"341 264 QCURVE SMOOTH",
"363 264 OFFCURVE",
"363 219 OFFCURVE",
"335 179 OFFCURVE",
"310 161.5 QCURVE SMOOTH",
"250.714 120 OFFCURVE",
"122 120 OFFCURVE",
"34 153 OFFCURVE",
"2 183 QCURVE SMOOTH",
"-66 246.75 OFFCURVE",
"-66 350 QCURVE SMOOTH",
"-66 458.47 OFFCURVE",
"19.5 545 QCURVE SMOOTH",
"114.357 641 OFFCURVE",
"254 641 QCURVE SMOOTH",
"330.429 641 OFFCURVE",
"532 624 OFFCURVE",
"566 622 QCURVE",
"695 1231 LINE SMOOTH",
"701 1258 OFFCURVE",
"701 1308 OFFCURVE",
"677 1341 OFFCURVE",
"656 1348.5 QCURVE SMOOTH",
"626.6 1359 OFFCURVE",
"547 1359 QCURVE SMOOTH",
"484 1359 LINE SMOOTH",
"477 1359 OFFCURVE",
"477 1367 QCURVE",
"485 1400 LINE",
"485 1410 OFFCURVE",
"494 1410 QCURVE SMOOTH",
"800.5 1409 LINE SMOOTH",
"920.25 1409 OFFCURVE",
"1091 1409 OFFCURVE",
"1202 1391 OFFCURVE",
"1309 1354 OFFCURVE",
"1404 1296 OFFCURVE",
"1440.5 1256.5 QCURVE SMOOTH",
"1519 1171.55 OFFCURVE",
"1519 958 OFFCURVE",
"1466 812 OFFCURVE",
"1373 701 OFFCURVE",
"1247 623 OFFCURVE",
"1173 598.5 QCURVE SMOOTH",
"1032.55 552 OFFCURVE",
"855 552 QCURVE SMOOTH",
"821 552 OFFCURVE"
);
}
);
width = 1469;
}
);
unicode = A752;
},
{
glyphname = uniA754;
layers = (
{
layerId = "13B3CF59-E667-4601-B808-7467DBC8B37E";
paths = (
{
closed = 1;
nodes = (
"867 569 QCURVE SMOOTH",
"867 600 OFFCURVE",
"900 600 QCURVE SMOOTH",
"1123.87 600 OFFCURVE",
"1250.5 716.5 QCURVE SMOOTH",
"1381 836.56 OFFCURVE",
"1381 1059 QCURVE SMOOTH",
"1381 1363 OFFCURVE",
"1028 1363 QCURVE SMOOTH",
"969.3 1363 OFFCURVE",
"937 1329 OFFCURVE",
"934 1312 QCURVE SMOOTH",
"689 160 LINE SMOOTH",
"686 143 OFFCURVE",
"686 98 OFFCURVE",
"722 61 OFFCURVE",
"749.5 52 QCURVE SMOOTH",
"786.167 40 OFFCURVE",
"871 40 QCURVE SMOOTH",
"877 40 OFFCURVE",
"877 32 QCURVE",
"872 8 LINE SMOOTH",
"869.333 0 OFFCURVE",
"863 0 QCURVE SMOOTH",
"327 0 LINE SMOOTH",
"320 0 OFFCURVE",
"320 8 QCURVE",
"325 32 LINE",
"329 40 OFFCURVE",
"370 40 OFFCURVE",
"429 49 OFFCURVE",
"452.5 64 QCURVE SMOOTH",
"501.678 95.39 OFFCURVE",
"524.5 209.5 QCURVE SMOOTH",
"527 222 OFFCURVE",
"534 255 OFFCURVE",
"544 303 OFFCURVE",
"559 377 OFFCURVE",
"582 482 OFFCURVE",
"598 557 QCURVE",
"493.273 562.818 OFFCURVE",
"380 573 OFFCURVE",
"345 576 QCURVE SMOOTH",
"219.098 586.792 OFFCURVE",
"120 675 OFFCURVE",
"120 798 OFFCURVE",
"146 880 OFFCURVE",
"186 947 OFFCURVE",
"231 1006 OFFCURVE",
"251 1039.5 QCURVE SMOOTH",
"297 1116.55 OFFCURVE",
"297 1210 QCURVE SMOOTH",
"297 1302.66 OFFCURVE",
"266.5 1330 QCURVE SMOOTH",
"252 1343 OFFCURVE",
"215 1343 OFFCURVE",
"199 1335 OFFCURVE",
"190.5 1330.5 QCURVE SMOOTH",
"166.889 1318 OFFCURVE",
"155 1318 QCURVE",
"124 1322.43 OFFCURVE",
"124 1352 QCURVE SMOOTH",
"124 1411.1 OFFCURVE",
"172 1441.5 QCURVE SMOOTH",
"187 1451 OFFCURVE",
"251 1451 OFFCURVE",
"315 1409 OFFCURVE",
"335.5 1376 QCURVE SMOOTH",
"374 1314.02 OFFCURVE",
"374 1161 OFFCURVE",
"356 1080 OFFCURVE",
"330 1016 OFFCURVE",
"298 962 OFFCURVE",
"285 933 QCURVE SMOOTH",
"254 863.846 OFFCURVE",
"254 745 OFFCURVE",
"276 685 OFFCURVE",
"299.5 664 QCURVE SMOOTH",
"341.56 626.414 OFFCURVE",
"450 608 QCURVE",
"606 596 LINE",
"741 1231 LINE SMOOTH",
"747 1258 OFFCURVE",
"747 1308 OFFCURVE",
"723 1341 OFFCURVE",
"702 1348.5 QCURVE SMOOTH",
"672.6 1359 OFFCURVE",
"593 1359 QCURVE SMOOTH",
"530 1359 LINE SMOOTH",
"523 1359 OFFCURVE",
"523 1367 QCURVE",
"531 1400 LINE",
"531 1410 OFFCURVE",
"540 1410 QCURVE SMOOTH",
"846.5 1409 LINE SMOOTH",
"966.25 1409 OFFCURVE",
"1137 1409 OFFCURVE",
"1248 1391 OFFCURVE",
"1355 1354 OFFCURVE",
"1450 1296 OFFCURVE",
"1486.5 1256.5 QCURVE SMOOTH",
"1565 1171.55 OFFCURVE",
"1565 958 OFFCURVE",
"1512 812 OFFCURVE",
"1419 701 OFFCURVE",
"1293 623 OFFCURVE",
"1219 598.5 QCURVE SMOOTH",
"1078.55 552 OFFCURVE",
"901 552 QCURVE SMOOTH",
"867 552 OFFCURVE"
);
}
);
width = 1515;
}
);
unicode = A754;
},
{
glyphname = uniA756;
layers = (
{
layerId = "13B3CF59-E667-4601-B808-7467DBC8B37E";
paths = (
{
closed = 1;
nodes = (
"1584 -266 OFFCURVE",
"1629 -266 OFFCURVE",
"1629 -292 QCURVE SMOOTH",
"1629 -323.729 OFFCURVE",
"1526.5 -355 QCURVE SMOOTH",
"1457.67 -376 OFFCURVE",
"1352 -376 OFFCURVE",
"1264 -355 OFFCURVE",
"1222 -338 QCURVE SMOOTH",
"1148.97 -308.439 OFFCURVE",
"1063 -255 QCURVE",
"947 -185 LINE",
"342 -185 LINE SMOOTH",
"321 -185 OFFCURVE",
"321 -165 QCURVE",
"326 -135 LINE SMOOTH",
"332.364 -100 OFFCURVE",
"348 -100 QCURVE SMOOTH",
"822 -100 LINE",
"655.38 23.042 OFFCURVE",
"439 88 OFFCURVE",
"286 219 OFFCURVE",
"233.5 305 QCURVE SMOOTH",
"125 482.733 OFFCURVE",
"125 682 QCURVE SMOOTH",
"125 906.103 OFFCURVE",
"247 1087 QCURVE SMOOTH",
"361.749 1257.14 OFFCURVE",
"558.5 1355 QCURVE SMOOTH",
"753.532 1452 OFFCURVE",
"977 1452 QCURVE SMOOTH",
"1250.01 1452 OFFCURVE",
"1449.5 1274.5 QCURVE SMOOTH",
"1579.54 1158.8 OFFCURVE",
"1631 995.5 QCURVE SMOOTH",
"1657 913 OFFCURVE",
"1657 732 OFFCURVE",
"1612 559 OFFCURVE",
"1531 401 OFFCURVE",
"1416 259 OFFCURVE",
"1347 202 QCURVE SMOOTH",
"1202.43 82.571 OFFCURVE",
"1017 32 QCURVE SMOOTH",
"971 19.455 OFFCURVE",
"971 3 QCURVE SMOOTH",
"971 -6.708 OFFCURVE",
"1042 -57 OFFCURVE",
"1047 -60 QCURVE SMOOTH",
"1112 -100 LINE",
"1541 -100 LINE SMOOTH",
"1562 -100 OFFCURVE",
"1562 -120 QCURVE",
"1556 -160 LINE",
"1551 -185 OFFCURVE",
"1535 -185 QCURVE SMOOTH",
"1248 -185 LINE",
"1376.02 -264.249 OFFCURVE",
"1449.5 -277.5 QCURVE SMOOTH",
"1480 -283 OFFCURVE",
"1535 -283 OFFCURVE"
);
},
{
closed = 1;
nodes = (
"318 591 QCURVE SMOOTH",
"318 488 OFFCURVE",
"387 290 OFFCURVE",
"450 215 QCURVE SMOOTH",
"587.76 51 OFFCURVE",
"803 51 QCURVE SMOOTH",
"1008.45 51 OFFCURVE",
"1167.5 183 QCURVE SMOOTH",
"1309.59 300.927 OFFCURVE",
"1390.5 500.5 QCURVE SMOOTH",
"1466 686.733 OFFCURVE",
"1466 887 QCURVE SMOOTH",
"1466 1122.1 OFFCURVE",
"1337 1268.5 QCURVE SMOOTH",
"1202.63 1421 OFFCURVE",
"971 1421 QCURVE SMOOTH",
"769.788 1421 OFFCURVE",
"612.5 1293 QCURVE SMOOTH",
"473.437 1179.83 OFFCURVE",
"393 982 QCURVE SMOOTH",
"318 797.541 OFFCURVE"
);
}
);
width = 1637;
}
);
unicode = A756;
},
{
glyphname = uniA758;
layers = (
{
layerId = "13B3CF59-E667-4601-B808-7467DBC8B37E";
paths = (
{
closed = 1;
nodes = (
"1161 -310 QCURVE",
"916 -546 LINE SMOOTH",
"908.5 -552 OFFCURVE",
"886 -552 OFFCURVE",
"881 -541 QCURVE",
"869 -520 OFFCURVE",
"869 -503 OFFCURVE",
"880 -492 QCURVE SMOOTH",
"1102 -278 LINE",
"1092 -273 OFFCURVE",
"1073 -261 OFFCURVE",
"1036.5 -239 QCURVE SMOOTH",
"879.405 -144.312 OFFCURVE",
"818.202 -98.156 QCURVE SMOOTH",
"658.882 21.996 OFFCURVE",
"439 88 OFFCURVE",
"286 219 OFFCURVE",
"233.5 305 QCURVE SMOOTH",
"125 482.733 OFFCURVE",
"125 682 QCURVE SMOOTH",
"125 906.103 OFFCURVE",
"247 1087 QCURVE SMOOTH",
"361.749 1257.14 OFFCURVE",
"558.5 1355 QCURVE SMOOTH",
"753.532 1452 OFFCURVE",
"977 1452 QCURVE SMOOTH",
"1250.01 1452 OFFCURVE",
"1449.5 1274.5 QCURVE SMOOTH",
"1579.54 1158.8 OFFCURVE",
"1631 995.5 QCURVE SMOOTH",
"1657 913 OFFCURVE",
"1657 732 OFFCURVE",
"1612 559 OFFCURVE",
"1531 401 OFFCURVE",
"1416 259 OFFCURVE",
"1347 202 QCURVE SMOOTH",
"1202.43 82.571 OFFCURVE",
"1017 32 QCURVE SMOOTH",
"971 19.455 OFFCURVE",
"971 3 QCURVE SMOOTH",
"971 -6.708 OFFCURVE",
"1042 -57 OFFCURVE",
"1098 -92 OFFCURVE",
"1183 -144 OFFCURVE",
"1218 -167 QCURVE",
"1579 180 LINE SMOOTH",
"1584 185 OFFCURVE",
"1595.5 185 QCURVE SMOOTH",
"1606.3 185 OFFCURVE",
"1627 156 OFFCURVE",
"1627 137 OFFCURVE",
"1617 129 QCURVE",
"1274 -201 LINE",
"1384.04 -265.189 OFFCURVE",
"1482 -283 OFFCURVE",
"1535 -283 OFFCURVE",
"1584 -266 OFFCURVE",
"1629 -266 OFFCURVE",
"1629 -292 QCURVE SMOOTH",
"1629 -323.729 OFFCURVE",
"1526.5 -355 QCURVE SMOOTH",
"1457.67 -376 OFFCURVE",
"1293 -376 OFFCURVE"
);
},
{
closed = 1;
nodes = (
"318 591 QCURVE SMOOTH",
"318 488 OFFCURVE",
"387 290 OFFCURVE",
"450 215 QCURVE SMOOTH",
"587.76 51 OFFCURVE",
"803 51 QCURVE SMOOTH",
"1008.45 51 OFFCURVE",
"1167.5 183 QCURVE SMOOTH",
"1309.59 300.927 OFFCURVE",
"1390.5 500.5 QCURVE SMOOTH",
"1466 686.733 OFFCURVE",
"1466 887 QCURVE SMOOTH",
"1466 1122.1 OFFCURVE",
"1337 1268.5 QCURVE SMOOTH",
"1202.63 1421 OFFCURVE",
"971 1421 QCURVE SMOOTH",
"769.788 1421 OFFCURVE",
"612.5 1293 QCURVE SMOOTH",
"473.437 1179.83 OFFCURVE",
"393 982 QCURVE SMOOTH",
"318 797.541 OFFCURVE"
);
}
);
width = 1637;
}
);
unicode = A758;
},
{
glyphname = uniA75A;
layers = (
{
layerId = "13B3CF59-E667-4601-B808-7467DBC8B37E";
paths = (
{
closed = 1;
nodes = (
"70 0 LINE SMOOTH",
"59 0 OFFCURVE",
"59 18 OFFCURVE",
"81 52 OFFCURVE",
"115 91 OFFCURVE",
"157 133 OFFCURVE",
"198 172 OFFCURVE",
"232 202 OFFCURVE",
"291 253 OFFCURVE",
"421 378 OFFCURVE",
"559 527 OFFCURVE",
"694 693 OFFCURVE",
"746.5 776 QCURVE SMOOTH",
"864 961.762 OFFCURVE",
"864 1085 QCURVE SMOOTH",
"864 1178.84 OFFCURVE",
"812.5 1246.5 QCURVE SMOOTH",
"755.791 1321 OFFCURVE",
"658 1321 QCURVE SMOOTH",
"520.559 1321 OFFCURVE",
"358.5 1205 QCURVE SMOOTH",
"202.287 1093.18 OFFCURVE",
"155 986 QCURVE",
"110 986 LINE SMOOTH",
"100 986 OFFCURVE",
"100 997 QCURVE",
"128.343 1131.16 OFFCURVE",
"236.5 1241.5 QCURVE SMOOTH",
"382.807 1390.76 OFFCURVE",
"592 1438 QCURVE SMOOTH",
"654 1452 OFFCURVE",
"787 1452 OFFCURVE",
"921 1414 OFFCURVE",
"970.5 1378 QCURVE SMOOTH",
"1077 1300.55 OFFCURVE",
"1077 1172 QCURVE SMOOTH",
"1077 969.622 OFFCURVE",
"876.5 727 QCURVE SMOOTH",
"762.194 588.68 OFFCURVE",
"545 387 OFFCURVE",
"480 328.5 QCURVE SMOOTH",
"308.662 174.296 OFFCURVE",
"259 121 QCURVE",
"971 121 LINE SMOOTH",
"1059.85 121 OFFCURVE",
"1115.5 205 QCURVE SMOOTH",
"1142 245 OFFCURVE",
"1189 357 OFFCURVE",
"1218 425 QCURVE",
"1265 425 LINE",
"1136 52 LINE SMOOTH",
"1133 44 OFFCURVE",
"1127 26 OFFCURVE",
"1123 18 QCURVE SMOOTH",
"1114 0 OFFCURVE",
"1097 0 QCURVE SMOOTH"
);
}
);
width = 1325;
}
);
unicode = A75A;
},
{
glyphname = uniA75C;
layers = (
{
layerId = "13B3CF59-E667-4601-B808-7467DBC8B37E";
paths = (
{
closed = 1;
nodes = (
"850 0 LINE",
"664 -462 LINE",
"657.5 -475 OFFCURVE",
"647 -475 QCURVE SMOOTH",
"545 -475 LINE SMOOTH",
"539 -475 OFFCURVE",
"538 -467 QCURVE",
"725 0 LINE",
"70 0 LINE SMOOTH",
"59 0 OFFCURVE",
"59 18 OFFCURVE",
"81 52 OFFCURVE",
"115 91 OFFCURVE",
"157 133 OFFCURVE",
"198 172 OFFCURVE",
"232 202 OFFCURVE",
"291 253 OFFCURVE",
"421 378 OFFCURVE",
"559 527 OFFCURVE",
"694 693 OFFCURVE",
"746.5 776 QCURVE SMOOTH",
"864 961.762 OFFCURVE",
"864 1085 QCURVE SMOOTH",
"864 1178.84 OFFCURVE",
"812.5 1246.5 QCURVE SMOOTH",
"755.791 1321 OFFCURVE",
"658 1321 QCURVE SMOOTH",
"520.559 1321 OFFCURVE",
"358.5 1205 QCURVE SMOOTH",
"202.287 1093.18 OFFCURVE",
"155 986 QCURVE",
"110 986 LINE SMOOTH",
"100 986 OFFCURVE",
"100 997 QCURVE",
"128.343 1131.16 OFFCURVE",
"236.5 1241.5 QCURVE SMOOTH",
"382.807 1390.76 OFFCURVE",
"592 1438 QCURVE SMOOTH",
"654 1452 OFFCURVE",
"787 1452 OFFCURVE",
"921 1414 OFFCURVE",
"970.5 1378 QCURVE SMOOTH",
"1077 1300.55 OFFCURVE",
"1077 1172 QCURVE SMOOTH",
"1077 969.622 OFFCURVE",
"876.5 727 QCURVE SMOOTH",
"762.194 588.68 OFFCURVE",
"545 387 OFFCURVE",
"480 328.5 QCURVE SMOOTH",
"308.662 174.296 OFFCURVE",
"259 121 QCURVE",
"773 121 LINE",
"959 583 LINE",
"961.889 596 OFFCURVE",
"976 596 QCURVE SMOOTH",
"1078 596 LINE SMOOTH",
"1083 596 OFFCURVE",
"1086 588 QCURVE",
"898 121 LINE",
"971 121 LINE SMOOTH",
"1059.85 121 OFFCURVE",
"1115.5 205 QCURVE SMOOTH",
"1142 245 OFFCURVE",
"1189 357 OFFCURVE",
"1218 425 QCURVE",
"1265 425 LINE",
"1136 52 LINE SMOOTH",
"1133 44 OFFCURVE",
"1127 26 OFFCURVE",
"1123 18 QCURVE SMOOTH",
"1114 0 OFFCURVE",
"1097 0 QCURVE SMOOTH"
);
}
);
width = 1325;
}
);
unicode = A75C;
},
{
glyphname = uniA75E;
layers = (
{
layerId = "13B3CF59-E667-4601-B808-7467DBC8B37E";
paths = (
{
closed = 1;
nodes = (
"406 -27 LINE SMOOTH",
"383 -27 OFFCURVE",
"383 -5 QCURVE SMOOTH",
"404 621 LINE",
"209 434 LINE SMOOTH",
"201.5 428 OFFCURVE",
"179 428 OFFCURVE",
"174 439 QCURVE",
"162 460 OFFCURVE",
"162 477 OFFCURVE",
"173 488 QCURVE SMOOTH",
"407 713 LINE",
"425 1253 LINE",
"423 1312 OFFCURVE",
"338 1370 OFFCURVE",
"276 1370 QCURVE SMOOTH",
"250 1370 OFFCURVE",
"250 1410 OFFCURVE",
"277 1410 QCURVE SMOOTH",
"803 1410 LINE SMOOTH",
"824 1410 OFFCURVE",
"824 1391 QCURVE SMOOTH",
"824 1373.45 OFFCURVE",
"755 1370 OFFCURVE",
"699 1370 OFFCURVE",
"659 1344 OFFCURVE",
"645 1323.5 QCURVE SMOOTH",
"617.2 1282.79 OFFCURVE",
"615 1230 QCURVE SMOOTH",
"604 902 LINE",
"982 1265 LINE SMOOTH",
"987 1270 OFFCURVE",
"998.5 1270 QCURVE SMOOTH",
"1009.3 1270 OFFCURVE",
"1030 1241 OFFCURVE",
"1030 1222 OFFCURVE",
"1020 1214 QCURVE",
"601 811 LINE",
"584 312 LINE",
"583 281 LINE SMOOTH",
"583 267 OFFCURVE",
"606 267 OFFCURVE",
"648 319 OFFCURVE",
"743 437 OFFCURVE",
"855 575 OFFCURVE",
"978 728 OFFCURVE",
"1041 805.5 QCURVE SMOOTH",
"1282.12 1102.11 OFFCURVE",
"1335 1165 OFFCURVE",
"1350.5 1188 QCURVE SMOOTH",
"1387 1242.16 OFFCURVE",
"1387 1307 OFFCURVE",
"1368 1345 OFFCURVE",
"1350.5 1354.5 QCURVE SMOOTH",
"1321.95 1370 OFFCURVE",
"1256 1370 QCURVE SMOOTH",
"1231 1370 OFFCURVE",
"1231 1410 OFFCURVE",
"1256 1410 QCURVE SMOOTH",
"1673 1410 LINE SMOOTH",
"1690 1410 OFFCURVE",
"1702 1404 OFFCURVE",
"1702 1393 QCURVE SMOOTH",
"1702 1370 OFFCURVE",
"1638 1370 OFFCURVE",
"1588 1345 OFFCURVE",
"1540 1306 OFFCURVE",
"1494 1258 OFFCURVE",
"1455 1211 OFFCURVE",
"1424 1169 OFFCURVE",
"1321 1041 OFFCURVE",
"1120 793 OFFCURVE",
"1016.5 666 QCURVE SMOOTH",
"684.134 258.169 OFFCURVE",
"608.067 162.085 QCURVE SMOOTH",
"524.875 57 OFFCURVE",
"476 -3 OFFCURVE",
"468 -14 OFFCURVE",
"463 -18 QCURVE SMOOTH",
"451.75 -27 OFFCURVE",
"432 -27 QCURVE SMOOTH"
);
}
);
width = 1542;
}
);
unicode = A75E;
},
{
glyphname = uniA760;
layers = (
{
layerId = "13B3CF59-E667-4601-B808-7467DBC8B37E";
paths = (
{
closed = 1;
nodes = (
"2322 1370 OFFCURVE",
"2298 1370 QCURVE SMOOTH",
"2229 1370 OFFCURVE",
"2208 1343 QCURVE",
"2003.31 1061.99 OFFCURVE",
"1801.16 776.496 QCURVE SMOOTH",
"1432.13 255.342 OFFCURVE",
"1243 -4 OFFCURVE",
"1241 -8 QCURVE SMOOTH",
"920 -458 LINE SMOOTH",
"841.649 -566.927 OFFCURVE",
"721.5 -606 QCURVE SMOOTH",
"616.95 -640 OFFCURVE",
"401 -640 QCURVE SMOOTH",
"316.688 -640 OFFCURVE",
"271 -597 QCURVE SMOOTH",
"254 -581 OFFCURVE",
"254 -533 OFFCURVE",
"273 -492 OFFCURVE",
"288.5 -477 QCURVE SMOOTH",
"320.533 -446 OFFCURVE",
"402 -446 OFFCURVE",
"476 -474 OFFCURVE",
"512 -491.5 QCURVE SMOOTH",
"605.6 -537 OFFCURVE",
"694 -537 OFFCURVE",
"752 -527 OFFCURVE",
"778.5 -511.5 QCURVE SMOOTH",
"829.911 -481.429 OFFCURVE",
"892 -393 QCURVE SMOOTH",
"1159 -11 LINE",
"1158 -8 OFFCURVE",
"1158 -1 QCURVE SMOOTH",
"1159 22 LINE SMOOTH",
"1168 210 OFFCURVE",
"1182 578 OFFCURVE",
"1192 814 OFFCURVE",
"1200 909 OFFCURVE",
"1200 937.5 QCURVE SMOOTH",
"1200 976.5 LINE SMOOTH",
"1200 1019 OFFCURVE",
"1178 1019 OFFCURVE",
"1159 994 OFFCURVE",
"1060 867 OFFCURVE",
"881 629 OFFCURVE",
"702 389 OFFCURVE",
"523 149 OFFCURVE",
"433 32 QCURVE",
"404 -7 LINE SMOOTH",
"389 -27 OFFCURVE",
"353 -27 QCURVE SMOOTH",
"329 -27 LINE SMOOTH",
"309 -27 OFFCURVE",
"309 -1 QCURVE",
"405 1232 LINE",
"410 1290 LINE",
"410 1297 LINE SMOOTH",
"410 1370 OFFCURVE",
"271 1370 QCURVE SMOOTH",
"250 1370 OFFCURVE",
"250 1404 OFFCURVE",
"262 1410 OFFCURVE",
"275 1410 QCURVE SMOOTH",
"751 1410 LINE SMOOTH",
"765 1410 OFFCURVE",
"771 1394 OFFCURVE",
"771 1392 QCURVE SMOOTH",
"771 1370 OFFCURVE",
"698 1370 OFFCURVE",
"637 1348 OFFCURVE",
"618.5 1330 QCURVE SMOOTH",
"585.533 1297.92 OFFCURVE",
"573 1145 OFFCURVE",
"556 936 OFFCURVE",
"548 828 QCURVE SMOOTH",
"528.769 568.385 OFFCURVE",
"512 377 OFFCURVE",
"510 329 OFFCURVE",
"507 266 OFFCURVE",
"520 266 QCURVE SMOOTH",
"526 266 OFFCURVE",
"536 276 QCURVE",
"706.265 505.047 OFFCURVE",
"819.632 654.023 QCURVE SMOOTH",
"1002.33 894.111 OFFCURVE",
"1180 1131 QCURVE SMOOTH",
"1216 1180.26 OFFCURVE",
"1216 1259 OFFCURVE",
"1190 1311 OFFCURVE",
"1169 1330 QCURVE SMOOTH",
"1124.79 1370 OFFCURVE",
"1071 1370 QCURVE SMOOTH",
"1048 1370 OFFCURVE",
"1048 1410 OFFCURVE",
"1062 1410 QCURVE SMOOTH",
"1567 1410 LINE SMOOTH",
"1583 1410 OFFCURVE",
"1583 1370 OFFCURVE",
"1561 1370 QCURVE SMOOTH",
"1543 1370 LINE SMOOTH",
"1404.81 1370 OFFCURVE",
"1390 1290 QCURVE",
"1383.83 1104.91 OFFCURVE",
"1351 410 OFFCURVE",
"1347 287 QCURVE SMOOTH",
"1347 274 OFFCURVE",
"1351.5 274 QCURVE SMOOTH",
"1358 274 OFFCURVE",
"1371 287 QCURVE",
"1455.9 408.493 OFFCURVE",
"1541.95 526.246 QCURVE SMOOTH",
"1679.09 713.919 OFFCURVE",
"1767 843 OFFCURVE",
"1807 898 OFFCURVE",
"1853 962 OFFCURVE",
"1901 1029 OFFCURVE",
"1943 1086 OFFCURVE",
"1974 1129 OFFCURVE",
"1986 1144 OFFCURVE",
"2001 1167 OFFCURVE",
"2009.5 1179 QCURVE SMOOTH",
"2029.33 1207 OFFCURVE",
"2057 1248 OFFCURVE",
"2057 1312 OFFCURVE",
"1998 1370 OFFCURVE",
"1909 1370 OFFCURVE",
"1909 1410 OFFCURVE",
"1929 1410 QCURVE SMOOTH",
"2297 1410 LINE SMOOTH",
"2322 1410 OFFCURVE"
);
}
);
width = 2162;
}
);
unicode = A760;
},
{
glyphname = uniA764;
layers = (
{
layerId = "13B3CF59-E667-4601-B808-7467DBC8B37E";
paths = (
{
closed = 1;
nodes = (
"436 1198 LINE",
"447 1250 LINE SMOOTH",
"450 1262 OFFCURVE",
"450 1306 OFFCURVE",
"417 1342 OFFCURVE",
"392 1352 QCURVE SMOOTH",
"347 1370 OFFCURVE",
"280 1370 QCURVE SMOOTH",
"274 1370 OFFCURVE",
"274 1378 QCURVE",
"279 1402 LINE SMOOTH",
"281 1410 OFFCURVE",
"289 1410 QCURVE SMOOTH",
"810 1410 LINE SMOOTH",
"816 1410 OFFCURVE",
"816 1402 QCURVE",
"811 1378 LINE SMOOTH",
"809 1370 OFFCURVE",
"766 1370 OFFCURVE",
"708 1355 OFFCURVE",
"685.5 1336.5 QCURVE SMOOTH",
"643.312 1301.81 OFFCURVE",
"615 1198 QCURVE",
"915 1198 LINE SMOOTH",
"936 1198 OFFCURVE",
"936 1178 QCURVE",
"930 1148 LINE SMOOTH",
"925 1123 OFFCURVE",
"909 1123 QCURVE SMOOTH",
"597 1123 LINE",
"567 994 LINE",
"578 994 LINE SMOOTH",
"754.633 994 OFFCURVE",
"900 905 QCURVE SMOOTH",
"1068 802.143 OFFCURVE",
"1068 627 QCURVE SMOOTH",
"1068 369.504 OFFCURVE",
"859.5 271 QCURVE SMOOTH",
"698.633 195 OFFCURVE",
"405 195 QCURVE SMOOTH",
"396 195 LINE",
"389 160 LINE SMOOTH",
"385 144 OFFCURVE",
"385 96 OFFCURVE",
"421 60 OFFCURVE",
"449 51.5 QCURVE SMOOTH",
"486.882 40 OFFCURVE",
"571 40 QCURVE SMOOTH",
"577 40 OFFCURVE",
"577 32 QCURVE",
"572 8 LINE SMOOTH",
"569.333 0 OFFCURVE",
"563 0 QCURVE SMOOTH",
"27 0 LINE SMOOTH",
"20 0 OFFCURVE",
"20 8 QCURVE",
"25 32 LINE",
"29 40 OFFCURVE",
"70 40 OFFCURVE",
"129 49 OFFCURVE",
"152 64 QCURVE SMOOTH",
"200.845 95.855 OFFCURVE",
"219 183 QCURVE SMOOTH",
"420 1123 LINE",
"276 1123 LINE SMOOTH",
"255 1123 OFFCURVE",
"255 1143 QCURVE",
"260 1173 LINE SMOOTH",
"265 1198 OFFCURVE",
"282 1198 QCURVE SMOOTH"
);
},
{
closed = 1;
nodes = (
"557 947 LINE",
"408 250 LINE",
"642.273 250 OFFCURVE",
"755 330 QCURVE SMOOTH",
"884 421.548 OFFCURVE",
"884 634 QCURVE SMOOTH",
"884 773.554 OFFCURVE",
"796.5 860 QCURVE SMOOTH",
"708.439 947 OFFCURVE",
"570 947 QCURVE SMOOTH"
);
}
);
width = 1038;
}
);
unicode = A764;
},
{
glyphname = uniA766;
layers = (
{
layerId = "13B3CF59-E667-4601-B808-7467DBC8B37E";
paths = (
{
closed = 1;
nodes = (
"391 170 LINE SMOOTH",
"385 143 OFFCURVE",
"385 96 OFFCURVE",
"421 60 OFFCURVE",
"449 51.5 QCURVE SMOOTH",
"486.882 40 OFFCURVE",
"571 40 QCURVE SMOOTH",
"577 40 OFFCURVE",
"577 32 QCURVE",
"572 8 LINE SMOOTH",
"569.333 0 OFFCURVE",
"563 0 QCURVE SMOOTH",
"27 0 LINE SMOOTH",
"20 0 OFFCURVE",
"20 8 QCURVE",
"25 32 LINE",
"29 40 OFFCURVE",
"70 40 OFFCURVE",
"130 52 OFFCURVE",
"153.5 69 QCURVE SMOOTH",
"203.423 105.114 OFFCURVE",
"223 203 QCURVE",
"84 203 LINE SMOOTH",
"63 203 OFFCURVE",
"63 223 QCURVE",
"68 253 LINE SMOOTH",
"73 278 OFFCURVE",
"90 278 QCURVE SMOOTH",
"239 278 LINE",
"447 1250 LINE SMOOTH",
"450 1262 OFFCURVE",
"450 1306 OFFCURVE",
"417 1342 OFFCURVE",
"392 1352 QCURVE SMOOTH",
"347 1370 OFFCURVE",
"280 1370 QCURVE SMOOTH",
"274 1370 OFFCURVE",
"274 1378 QCURVE",
"279 1402 LINE SMOOTH",
"281 1410 OFFCURVE",
"289 1410 QCURVE SMOOTH",
"810 1410 LINE SMOOTH",
"816 1410 OFFCURVE",
"816 1402 QCURVE",
"811 1378 LINE SMOOTH",
"809 1370 OFFCURVE",
"766 1370 OFFCURVE",
"707 1355 OFFCURVE",
"684 1337 QCURVE SMOOTH",
"637.004 1300.22 OFFCURVE",
"618 1209 QCURVE SMOOTH",
"613 1184 LINE",
"624 1184 LINE SMOOTH",
"805.538 1184 OFFCURVE",
"945 1110 QCURVE SMOOTH",
"1047.22 1055.76 OFFCURVE",
"1090 959.5 QCURVE SMOOTH",
"1112 910 OFFCURVE",
"1112 753 OFFCURVE",
"1058 615 OFFCURVE",
"964 517 OFFCURVE",
"836 454 OFFCURVE",
"761.5 436 QCURVE SMOOTH",
"629.056 404 OFFCURVE",
"442 404 QCURVE",
"414 278 LINE",
"733 278 LINE SMOOTH",
"754 278 OFFCURVE",
"754 258 QCURVE",
"748 228 LINE SMOOTH",
"743 203 OFFCURVE",
"727 203 QCURVE SMOOTH",
"398 203 LINE"
);
},
{
closed = 1;
nodes = (
"602 1137 LINE",
"454 460 LINE",
"685.859 460 OFFCURVE",
"799.5 545 QCURVE SMOOTH",
"928 641.114 OFFCURVE",
"928 854 QCURVE SMOOTH",
"928 989.096 OFFCURVE",
"840.5 1065 QCURVE SMOOTH",
"757.5 1137 OFFCURVE",
"614 1137 QCURVE SMOOTH"
);
}
);
width = 1082;
}
);
unicode = A766;
},
{
glyphname = uniA768;
layers = (
{
layerId = "13B3CF59-E667-4601-B808-7467DBC8B37E";
paths = (
{
closed = 1;
nodes = (
"681.643 121 QCURVE SMOOTH",
"585.286 121 OFFCURVE",
"461 150 QCURVE",
"441.692 150 OFFCURVE",
"432 129 OFFCURVE",
"428 112 OFFCURVE",
"426 104 QCURVE SMOOTH",
"312 -430 LINE SMOOTH",
"309 -445 OFFCURVE",
"309 -487 OFFCURVE",
"337 -526 OFFCURVE",
"380 -551 OFFCURVE",
"432 -565 OFFCURVE",
"481 -573 OFFCURVE",
"500.5 -576 QCURVE SMOOTH",
"538 -581.769 OFFCURVE",
"538 -596 QCURVE",
"535 -616 OFFCURVE",
"522 -620 QCURVE",
"-104 -620 LINE",
"-113 -617 OFFCURVE",
"-113 -608.5 QCURVE SMOOTH",
"-113 -590 OFFCURVE",
"-85 -579 OFFCURVE",
"-48 -573 OFFCURVE",
"-6 -563 OFFCURVE",
"39 -546 OFFCURVE",
"58.5 -530.5 QCURVE SMOOTH",
"102.901 -495.207 OFFCURVE",
"117 -430 QCURVE SMOOTH",
"451 1140 LINE SMOOTH",
"453 1150 OFFCURVE",
"453 1177 OFFCURVE",
"429 1203 OFFCURVE",
"394 1218 OFFCURVE",
"352 1226 OFFCURVE",
"334.5 1230.5 QCURVE SMOOTH",
"293 1241.17 OFFCURVE",
"293 1254.59 QCURVE SMOOTH",
"293 1277 OFFCURVE",
"319 1290 QCURVE",
"689 1447 LINE",
"706 1447 OFFCURVE",
"706 1428 QCURVE SMOOTH",
"706 1422.85 OFFCURVE",
"665 1230 OFFCURVE",
"616 998 OFFCURVE",
"540 642 OFFCURVE",
"479 358 OFFCURVE",
"479 312 OFFCURVE",
"509 281 OFFCURVE",
"556 255 OFFCURVE",
"614 235 OFFCURVE",
"642.5 228 QCURVE SMOOTH",
"699.5 214 OFFCURVE",
"815 214 OFFCURVE",
"946 278 OFFCURVE",
"1050 385 OFFCURVE",
"1125 524 OFFCURVE",
"1150 598.5 QCURVE SMOOTH",
"1199 744.52 OFFCURVE",
"1199 979 OFFCURVE",
"1162 1106 OFFCURVE",
"1135.5 1148.5 QCURVE SMOOTH",
"1095.46 1212.72 OFFCURVE",
"1026 1255 QCURVE SMOOTH",
"991 1276.54 OFFCURVE",
"991 1343 OFFCURVE",
"1012 1378 OFFCURVE",
"1029.5 1389 QCURVE SMOOTH",
"1062.91 1410 OFFCURVE",
"1194 1410 OFFCURVE",
"1304 1324 OFFCURVE",
"1339.5 1256 QCURVE SMOOTH",
"1407 1126.7 OFFCURVE",
"1407 939 QCURVE SMOOTH",
"1407 757.375 OFFCURVE",
"1305 564 QCURVE SMOOTH",
"1203.98 372.486 OFFCURVE",
"1042 251.5 QCURVE SMOOTH",
"867.281 121 OFFCURVE"
);
}
);
width = 1363;
}
);
unicode = A768;
},
{
glyphname = uniA76A;
layers = (
{
layerId = "13B3CF59-E667-4601-B808-7467DBC8B37E";
paths = (
{
closed = 1;
nodes = (
"255 1326 QCURVE",
"339.706 1454 OFFCURVE",
"500 1454 QCURVE SMOOTH",
"624.636 1454 OFFCURVE",
"713.5 1385 QCURVE SMOOTH",
"808 1311.62 OFFCURVE",
"808 1202 QCURVE SMOOTH",
"808 1061.62 OFFCURVE",
"663 889 QCURVE SMOOTH",
"576.127 785.58 OFFCURVE",
"435 697 OFFCURVE",
"393 685 QCURVE",
"386 663 LINE",
"499.659 638.645 OFFCURVE",
"582.5 551.5 QCURVE SMOOTH",
"666 463.662 OFFCURVE",
"666 364 QCURVE SMOOTH",
"666 187.814 OFFCURVE",
"464 -45 QCURVE SMOOTH",
"294.932 -239.858 OFFCURVE",
"84 -377.5 QCURVE SMOOTH",
"-40.896 -459 OFFCURVE",
"-100 -459 QCURVE",
"-81 -374 LINE",
"153.689 -249.036 OFFCURVE",
"321 -47 QCURVE SMOOTH",
"492 159.491 OFFCURVE",
"492 336 QCURVE SMOOTH",
"492 454.439 OFFCURVE",
"400 524 QCURVE SMOOTH",
"320.781 583.898 OFFCURVE",
"207 593 QCURVE",
"227 686 LINE",
"525.093 861.349 OFFCURVE",
"600.5 1060.5 QCURVE SMOOTH",
"620 1112 OFFCURVE",
"620 1218 OFFCURVE",
"585 1293 OFFCURVE",
"556 1317.5 QCURVE SMOOTH",
"498.592 1366 OFFCURVE",
"415 1366 QCURVE SMOOTH",
"342 1366 OFFCURVE",
"276 1300 QCURVE",
"255 1304.67 OFFCURVE"
);
}
);
width = 798;
}
);
unicode = A76A;
},
{
glyphname = uniA76C;
layers = (
{
layerId = "13B3CF59-E667-4601-B808-7467DBC8B37E";
paths = (
{
closed = 1;
nodes = (
"869 663 QCURVE",
"988 534.667 OFFCURVE",
"988 397 QCURVE SMOOTH",
"988 203.475 OFFCURVE",
"832.5 96.5 QCURVE SMOOTH",
"693.68 1 OFFCURVE",
"485 1 QCURVE SMOOTH",
"319.727 1 OFFCURVE",
"149.5 88.5 QCURVE SMOOTH",
"96 116 OFFCURVE",
"74.5 134 QCURVE SMOOTH",
"50 154.512 OFFCURVE",
"50 162 QCURVE SMOOTH",
"58 222 OFFCURVE",
"86 336 OFFCURVE",
"99 406 OFFCURVE",
"103 432 OFFCURVE",
"107.5 444.5 QCURVE SMOOTH",
"118.48 475 OFFCURVE",
"165 475 OFFCURVE",
"165 440 QCURVE SMOOTH",
"165 246 OFFCURVE",
"339 55 OFFCURVE",
"523 55 QCURVE SMOOTH",
"649.275 55 OFFCURVE",
"741.5 126.5 QCURVE SMOOTH",
"841 203.64 OFFCURVE",
"841 324 QCURVE SMOOTH",
"841 466.815 OFFCURVE",
"684 618 QCURVE",
"428.971 627.274 OFFCURVE",
"256 691 QCURVE SMOOTH",
"173 721.579 OFFCURVE",
"173 750 QCURVE",
"188 820 LINE",
"191 820 OFFCURVE",
"228 806 OFFCURVE",
"286 785 OFFCURVE",
"361 761 OFFCURVE",
"402.5 749 QCURVE SMOOTH",
"506.44 718.945 OFFCURVE",
"570 711 QCURVE",
"445.472 808.457 OFFCURVE",
"403.736 857.728 QCURVE SMOOTH",
"317 960.125 OFFCURVE",
"317 1152 OFFCURVE",
"387 1292 OFFCURVE",
"445.5 1340.5 QCURVE SMOOTH",
"567.928 1442 OFFCURVE",
"737 1442 QCURVE SMOOTH",
"811.333 1442 OFFCURVE",
"865 1421 QCURVE",
"1006.92 1390.59 OFFCURVE",
"1081 1268.5 QCURVE SMOOTH",
"1135 1179.5 OFFCURVE",
"1135 1068 QCURVE SMOOTH",
"1135 867 OFFCURVE",
"985 735 QCURVE SMOOTH",
"935 691 OFFCURVE"
);
},
{
closed = 1;
nodes = (
"992 1075 QCURVE SMOOTH",
"992 1390 OFFCURVE",
"702 1390 QCURVE SMOOTH",
"604.508 1390 OFFCURVE",
"527.5 1319.5 QCURVE SMOOTH",
"450 1248.55 OFFCURVE",
"450 1157 QCURVE SMOOTH",
"450 1023.58 OFFCURVE",
"604.5 897 QCURVE SMOOTH",
"646 863 OFFCURVE",
"711 806 OFFCURVE",
"767 759 OFFCURVE",
"795 735 QCURVE",
"930.564 799.215 OFFCURVE",
"975.5 949 QCURVE SMOOTH",
"992 1004 OFFCURVE"
);
}
);
width = 1103;
}
);
unicode = A76C;
},
{
glyphname = uniA76E;
layers = (
{
layerId = "13B3CF59-E667-4601-B808-7467DBC8B37E";
paths = (
{
closed = 1;
nodes = (
"695 723 QCURVE SMOOTH",
"731 723 OFFCURVE",
"731 673 QCURVE SMOOTH",
"731 603.018 OFFCURVE",
"576.5 566.5 QCURVE SMOOTH",
"523.615 554 OFFCURVE",
"413 554 OFFCURVE",
"297 616 OFFCURVE",
"255.5 669 QCURVE SMOOTH",
"168 780.747 OFFCURVE",
"168 939 QCURVE SMOOTH",
"168 1154.61 OFFCURVE",
"333 1305.5 QCURVE SMOOTH",
"495.388 1454 OFFCURVE",
"726 1454 QCURVE SMOOTH",
"921.731 1454 OFFCURVE",
"1029.5 1341 QCURVE SMOOTH",
"1134 1231.43 OFFCURVE",
"1134 1048 QCURVE SMOOTH",
"1134 764.97 OFFCURVE",
"913 478 QCURVE SMOOTH",
"707.38 211.001 OFFCURVE",
"432.5 68 QCURVE SMOOTH",
"249.889 -27 OFFCURVE",
"103 -27 QCURVE SMOOTH",
"100 -27 OFFCURVE",
"101 -18.5 QCURVE SMOOTH",
"102.492 -5.817 OFFCURVE",
"123 7 QCURVE",
"291.932 65.396 OFFCURVE",
"481 218.5 QCURVE SMOOTH",
"799.765 476.631 OFFCURVE",
"911 797.5 QCURVE SMOOTH",
"950 910 OFFCURVE",
"950 1090 OFFCURVE",
"925 1223 OFFCURVE",
"897.5 1277.5 QCURVE SMOOTH",
"835.183 1401 OFFCURVE",
"722 1401 QCURVE SMOOTH",
"568.613 1401 OFFCURVE",
"452.5 1244.5 QCURVE SMOOTH",
"342 1095.57 OFFCURVE",
"342 928 QCURVE SMOOTH",
"342 752.92 OFFCURVE",
"415 677 QCURVE SMOOTH",
"440 651 OFFCURVE",
"502 651 OFFCURVE",
"568 673 OFFCURVE",
"631 700 OFFCURVE",
"683 723 OFFCURVE"
);
}
);
width = 1084;
}
);
unicode = A76E;
},
{
glyphname = uniA77B;
layers = (
{
layerId = "13B3CF59-E667-4601-B808-7467DBC8B37E";
paths = (
{
closed = 1;
nodes = (
"-138 -620 LINE",
"-150 -617 OFFCURVE",
"-150 -605.5 QCURVE SMOOTH",
"-150 -588.8 OFFCURVE",
"-122 -577 OFFCURVE",
"-70 -568 OFFCURVE",
"-42.5 -554.5 QCURVE SMOOTH",
"23.954 -521.877 OFFCURVE",
"44 -430 QCURVE SMOOTH",
"371 1104 LINE",
"371 1154.88 OFFCURVE",
"313.5 1176 QCURVE SMOOTH",
"289 1185 OFFCURVE",
"230 1196 OFFCURVE",
"196 1206 OFFCURVE",
"188 1215 OFFCURVE",
"188 1225 QCURVE SMOOTH",
"188 1243.64 OFFCURVE",
"207 1254 QCURVE",
"526 1404 LINE",
"537.667 1411 OFFCURVE",
"544 1411 QCURVE SMOOTH",
"567 1411 OFFCURVE",
"567 1388 QCURVE",
"523 1179 LINE",
"523 1164 OFFCURVE",
"536 1164 OFFCURVE",
"548 1176 QCURVE",
"595.224 1246.84 OFFCURVE",
"652.612 1295.92 QCURVE SMOOTH",
"761.446 1389 OFFCURVE",
"821 1389 QCURVE SMOOTH",
"871.15 1389 OFFCURVE",
"1099 1296 OFFCURVE",
"1139.5 1277 QCURVE SMOOTH",
"1233 1233.14 OFFCURVE",
"1233 1208 OFFCURVE",
"1218 1160 OFFCURVE",
"1205.5 1135.5 QCURVE SMOOTH",
"1174.12 1074 OFFCURVE",
"1144 1074 QCURVE",
"1126.75 1079.75 OFFCURVE",
"999 1134 OFFCURVE",
"918 1167 OFFCURVE",
"881 1180.5 QCURVE SMOOTH",
"794.667 1212 OFFCURVE",
"729 1212 OFFCURVE",
"653 1169 OFFCURVE",
"621 1138 QCURVE SMOOTH",
"551.682 1070.85 OFFCURVE",
"538 1007 QCURVE SMOOTH",
"397 344 LINE",
"398.4 337 OFFCURVE",
"409 337 QCURVE SMOOTH",
"919 337 LINE SMOOTH",
"956 337 OFFCURVE",
"981 319 OFFCURVE",
"981 279 OFFCURVE",
"967 253 OFFCURVE",
"956.5 244 QCURVE SMOOTH",
"936.17 226.574 OFFCURVE",
"913 224 QCURVE",
"385 224 LINE SMOOTH",
"369 224 OFFCURVE",
"369 211 QCURVE",
"239 -405 LINE SMOOTH",
"235 -420 OFFCURVE",
"235 -439 QCURVE SMOOTH",
"235 -584 OFFCURVE",
"549 -584 QCURVE",
"571 -585 OFFCURVE",
"571 -600 QCURVE SMOOTH",
"571 -620 OFFCURVE",
"549 -620 QCURVE SMOOTH"
);
}
);
width = 1114;
}
);
unicode = A77B;
},
{
glyphname = uniA77D;
layers = (
{
layerId = "13B3CF59-E667-4601-B808-7467DBC8B37E";
paths = (
{
closed = 1;
nodes = (
"131 1053 LINE SMOOTH",
"100 1053 OFFCURVE",
"100 1112 QCURVE SMOOTH",
"100 1134.67 OFFCURVE",
"133 1205 OFFCURVE",
"170 1291 OFFCURVE",
"194 1347 OFFCURVE",
"208 1379 OFFCURVE",
"213 1386.5 QCURVE SMOOTH",
"220 1397 OFFCURVE",
"240 1397 OFFCURVE",
"253 1386 OFFCURVE",
"258.5 1378 QCURVE SMOOTH",
"272 1358.36 OFFCURVE",
"272 1333 OFFCURVE",
"262 1308 OFFCURVE",
"256.5 1294.5 QCURVE SMOOTH",
"241 1256.45 OFFCURVE",
"241 1223 QCURVE",
"1302 1223 LINE SMOOTH",
"1322 1223 OFFCURVE",
"1322 1203 QCURVE",
"1267 1060 LINE SMOOTH",
"1264.67 1053 OFFCURVE",
"1252 1053 QCURVE SMOOTH",
"782 1053 LINE",
"761 1029 OFFCURVE",
"700 971 OFFCURVE",
"634 905 OFFCURVE",
"569 834 OFFCURVE",
"543.5 798.5 QCURVE SMOOTH",
"486 718.451 OFFCURVE",
"486 607 OFFCURVE",
"524 529 OFFCURVE",
"583 471 OFFCURVE",
"655 430 OFFCURVE",
"689 414 QCURVE SMOOTH",
"779.619 371.356 OFFCURVE",
"795 357 QCURVE",
"964.94 309.017 OFFCURVE",
"1185 36.058 OFFCURVE",
"1185 -128 QCURVE SMOOTH",
"1185 -349.786 OFFCURVE",
"1027 -496.5 QCURVE SMOOTH",
"872.462 -640 OFFCURVE",
"653 -640 QCURVE SMOOTH",
"412.77 -640 OFFCURVE",
"258 -488.5 QCURVE SMOOTH",
"109 -342.648 OFFCURVE",
"109 -133 QCURVE SMOOTH",
"109 -1.733 OFFCURVE",
"204 168 OFFCURVE",
"259.5 221.5 QCURVE SMOOTH",
"374.341 332.203 OFFCURVE",
"534 367 QCURVE",
"271 553.491 OFFCURVE",
"271 617 QCURVE SMOOTH",
"271 748.104 OFFCURVE",
"391.5 874 QCURVE SMOOTH",
"444.515 929.388 OFFCURVE",
"551 1027 OFFCURVE",
"571 1053 QCURVE"
);
},
{
closed = 1;
nodes = (
"302 -207 OFFCURVE",
"340 -370 OFFCURVE",
"382 -436 QCURVE SMOOTH",
"477.455 -586 OFFCURVE",
"660 -586 QCURVE SMOOTH",
"815.349 -586 OFFCURVE",
"904 -444.5 QCURVE SMOOTH",
"981 -321.596 OFFCURVE",
"981 -168 QCURVE SMOOTH",
"981 8.655 OFFCURVE",
"895 151 QCURVE SMOOTH",
"797.125 313 OFFCURVE",
"622 313 QCURVE SMOOTH",
"500.156 313 OFFCURVE",
"411.5 212 QCURVE SMOOTH",
"331.817 121.222 OFFCURVE",
"302 -64.071 OFFCURVE"
);
}
);
width = 1382;
}
);
unicode = A77D;
},
{
glyphname = uniA780;
layers = (
{
layerId = "13B3CF59-E667-4601-B808-7467DBC8B37E";
paths = (
{
closed = 1;
nodes = (
"1276 1398 QCURVE SMOOTH",
"1276 1370 OFFCURVE",
"1219 1370 OFFCURVE",
"1163 1361 OFFCURVE",
"1141 1346 QCURVE SMOOTH",
"1096.47 1315.64 OFFCURVE",
"1078 1227 QCURVE SMOOTH",
"1021 959 OFFCURVE",
"943 589 OFFCURVE",
"892 349 OFFCURVE",
"864 217 OFFCURVE",
"857.5 185.5 QCURVE SMOOTH",
"849 144.308 OFFCURVE",
"849 108 OFFCURVE",
"888 70 OFFCURVE",
"917 59 QCURVE SMOOTH",
"967.091 40 OFFCURVE",
"1042 40 QCURVE SMOOTH",
"1048 40 OFFCURVE",
"1048 32 QCURVE",
"1043 8 LINE SMOOTH",
"1041 0 OFFCURVE",
"1033 0 QCURVE SMOOTH",
"446 0 LINE SMOOTH",
"440 0 OFFCURVE",
"440 8 QCURVE",
"445 32 LINE SMOOTH",
"447 40 OFFCURVE",
"490 40 OFFCURVE",
"562 49 OFFCURVE",
"592.5 64 QCURVE SMOOTH",
"661.253 97.813 OFFCURVE",
"679 183 QCURVE SMOOTH",
"719 370 OFFCURVE",
"779 655 OFFCURVE",
"824 868 OFFCURVE",
"855 1017 OFFCURVE",
"875 1115 OFFCURVE",
"886 1172 OFFCURVE",
"888.5 1187 QCURVE SMOOTH",
"892 1208 OFFCURVE",
"892 1216 QCURVE SMOOTH",
"892 1349 OFFCURVE",
"706 1349 QCURVE SMOOTH",
"430.069 1349 OFFCURVE",
"330.5 1310.5 QCURVE SMOOTH",
"262.259 1284.11 OFFCURVE",
"167 1195 OFFCURVE",
"120 1145 OFFCURVE",
"98 1119 OFFCURVE",
"87 1107.5 QCURVE SMOOTH",
"60.696 1080 OFFCURVE",
"20 1080 OFFCURVE",
"20 1099 QCURVE SMOOTH",
"20 1111.4 OFFCURVE",
"57 1197 OFFCURVE",
"88 1281 OFFCURVE",
"108 1341 OFFCURVE",
"122 1379 OFFCURVE",
"130 1390.5 QCURVE SMOOTH",
"143.565 1410 OFFCURVE",
"180 1410 QCURVE SMOOTH",
"1265 1410 LINE SMOOTH",
"1276 1410 OFFCURVE"
);
}
);
width = 1286;
}
);
unicode = A780;
},
{
glyphname = a;
layers = (
{
layerId = "13B3CF59-E667-4601-B808-7467DBC8B37E";
paths = (
{
closed = 1;
nodes = (
"588 203 OFFCURVE",
"590 237 OFFCURVE",
"582 237 QCURVE SMOOTH",
"570.933 237 OFFCURVE",
"495 170 OFFCURVE",
"431 114 OFFCURVE",
"360 54 OFFCURVE",
"326.5 29.5 QCURVE SMOOTH",
"249.245 -27 OFFCURVE",
"177 -27 OFFCURVE",
"132 33 OFFCURVE",
"120 74.5 QCURVE SMOOTH",
"100 143.667 OFFCURVE",
"100 209.333 QCURVE SMOOTH",
"100 416.653 OFFCURVE",
"258.5 607.5 QCURVE SMOOTH",
"408.545 788.167 OFFCURVE",
"629 863 QCURVE SMOOTH",
"738 900 OFFCURVE",
"851 900 QCURVE SMOOTH",
"868 900 OFFCURVE",
"868 872 QCURVE",
"717 180 LINE SMOOTH",
"716 172 OFFCURVE",
"715 164.5 QCURVE SMOOTH",
"713 149.5 OFFCURVE",
"713 125 OFFCURVE",
"729 101 OFFCURVE",
"748 101 OFFCURVE",
"777 124 OFFCURVE",
"792.5 137.5 QCURVE SMOOTH",
"834.407 174 OFFCURVE",
"844 174 QCURVE SMOOTH",
"860 174 OFFCURVE",
"860 156 QCURVE SMOOTH",
"860 137.293 OFFCURVE",
"752 53.5 QCURVE SMOOTH",
"643.089 -31 OFFCURVE",
"615 -31 QCURVE SMOOTH",
"584.2 -31 OFFCURVE",
"572.5 9.5 QCURVE SMOOTH",
"566 32 OFFCURVE",
"566 87 OFFCURVE",
"572 133 OFFCURVE",
"580 170 OFFCURVE"
);
},
{
closed = 1;
nodes = (
"707 770 LINE",
"707 786 OFFCURVE",
"631 786 OFFCURVE",
"529 759 OFFCURVE",
"482.5 734.5 QCURVE SMOOTH",
"308.852 643.008 OFFCURVE",
"260 425.5 QCURVE SMOOTH",
"239 332 OFFCURVE",
"234 218 OFFCURVE",
"238 164 OFFCURVE",
"246.5 140 QCURVE SMOOTH",
"266.333 84 OFFCURVE",
"320 84 QCURVE",
"391.902 121.041 OFFCURVE",
"559 271 OFFCURVE",
"608 315 QCURVE"
);
}
);
width = 918;
}
);
unicode = 0061;
},
{
glyphname = ae;
layers = (
{
layerId = "13B3CF59-E667-4601-B808-7467DBC8B37E";
paths = (
{
closed = 1;
nodes = (
"919 54 QCURVE SMOOTH",
"1013.55 54 OFFCURVE",
"1151 138 QCURVE",
"1165 113 LINE",
"1060.1 32.306 OFFCURVE",
"927 -9 QCURVE SMOOTH",
"869 -27 OFFCURVE",
"809 -27 QCURVE SMOOTH",
"697.671 -27 OFFCURVE",
"639.5 63 QCURVE SMOOTH",
"589.232 140.773 OFFCURVE",
"587 268 QCURVE",
"540 226 LINE",
"526 215 OFFCURVE",
"475 169 OFFCURVE",
"411 113 OFFCURVE",
"340 53 OFFCURVE",
"306.5 28.5 QCURVE SMOOTH",
"230.612 -27 OFFCURVE",
"157 -27 OFFCURVE",
"112 33 OFFCURVE",
"100 74.5 QCURVE SMOOTH",
"80 143.667 OFFCURVE",
"80 209.333 QCURVE SMOOTH",
"80 416.653 OFFCURVE",
"238.5 607.5 QCURVE SMOOTH",
"388.545 788.167 OFFCURVE",
"609 863 QCURVE SMOOTH",
"718 900 OFFCURVE",
"831 900 QCURVE SMOOTH",
"848 900 OFFCURVE",
"848 872 QCURVE",
"839.667 830.333 OFFCURVE",
"828 779 QCURVE",
"962.2 900 OFFCURVE",
"1120 900 QCURVE SMOOTH",
"1188.38 900 OFFCURVE",
"1223.19 872 QCURVE SMOOTH",
"1286 821.478 OFFCURVE",
"1286 696 OFFCURVE",
"1233 606 OFFCURVE",
"1147 540 OFFCURVE",
"1037 492 OFFCURVE",
"924 456 OFFCURVE",
"815 427 OFFCURVE",
"774 412 QCURVE",
"742 337.333 OFFCURVE",
"742 259 QCURVE SMOOTH",
"742 119.463 OFFCURVE",
"837.5 71 QCURVE SMOOTH",
"871 54 OFFCURVE"
);
},
{
closed = 1;
nodes = (
"687 770 LINE",
"687 786 OFFCURVE",
"611 786 OFFCURVE",
"509 759 OFFCURVE",
"462.5 734.5 QCURVE SMOOTH",
"288.852 643.008 OFFCURVE",
"240 425.5 QCURVE SMOOTH",
"219 332 OFFCURVE",
"214 218 OFFCURVE",
"218 164 OFFCURVE",
"226.5 140 QCURVE SMOOTH",
"246.333 84 OFFCURVE",
"300 84 QCURVE",
"371.902 121.041 OFFCURVE",
"539 271 OFFCURVE",
"588 315 QCURVE"
);
},
{
closed = 1;
nodes = (
"791 472 LINE",
"791 462 OFFCURVE",
"799 455 OFFCURVE",
"815 455 QCURVE",
"965.513 498.785 OFFCURVE",
"1096 590 OFFCURVE",
"1163 690 OFFCURVE",
"1163 760 QCURVE SMOOTH",
"1163 830.548 OFFCURVE",
"1119.5 853 QCURVE SMOOTH",
"1104 861 OFFCURVE",
"1039 861 OFFCURVE",
"965 822 OFFCURVE",
"905 757 OFFCURVE",
"857 675 OFFCURVE",
"839 631.5 QCURVE SMOOTH",
"809.22 559.53 OFFCURVE",
"788 472 QCURVE"
);
}
);
width = 1261;
}
);
unicode = 00E6;
},
{
glyphname = b;
layers = (
{
layerId = "13B3CF59-E667-4601-B808-7467DBC8B37E";
paths = (
{
closed = 1;
nodes = (
"241 1492 LINE",
"522.842 1645 OFFCURVE",
"566 1645 OFFCURVE",
"566 1598 OFFCURVE",
"535 1458 OFFCURVE",
"492 1236 OFFCURVE",
"471 1129.5 QCURVE SMOOTH",
"422.944 885.787 OFFCURVE",
"371 690 OFFCURVE",
"371 686 QCURVE SMOOTH",
"371 670 OFFCURVE",
"387 670 QCURVE SMOOTH",
"399.133 670 OFFCURVE",
"471 736 OFFCURVE",
"532 790 OFFCURVE",
"600 847 OFFCURVE",
"632 871 QCURVE SMOOTH",
"704 925 OFFCURVE",
"778 925 OFFCURVE",
"825 865 OFFCURVE",
"838 823.5 QCURVE SMOOTH",
"860 753.269 OFFCURVE",
"860 586 OFFCURVE",
"831 419 OFFCURVE",
"774 264 OFFCURVE",
"690 130 OFFCURVE",
"635.5 80 QCURVE SMOOTH",
"518.87 -27 OFFCURVE",
"366 -27 QCURVE SMOOTH",
"297.517 -27 OFFCURVE",
"197 26 OFFCURVE",
"175 49 QCURVE SMOOTH",
"125 101.273 OFFCURVE",
"125 177 QCURVE SMOOTH",
"125 200 OFFCURVE",
"131 227 QCURVE SMOOTH",
"392 1457 LINE SMOOTH",
"394 1465 OFFCURVE",
"394 1471.5 QCURVE SMOOTH",
"394 1483 LINE SMOOTH",
"394 1508 OFFCURVE",
"372 1508 QCURVE SMOOTH",
"353.158 1508 OFFCURVE",
"290 1478 OFFCURVE",
"254 1461 QCURVE"
);
},
{
closed = 1;
nodes = (
"712 559.5 QCURVE SMOOTH",
"719 613 OFFCURVE",
"721 680 OFFCURVE",
"717 734 OFFCURVE",
"708.5 758 QCURVE SMOOTH",
"688.667 814 OFFCURVE",
"635 814 QCURVE",
"562.234 776.515 OFFCURVE",
"399 626 OFFCURVE",
"350 583 QCURVE",
"261 168 LINE SMOOTH",
"257 152 OFFCURVE",
"257 116 OFFCURVE",
"268 74 OFFCURVE",
"281.5 56 QCURVE SMOOTH",
"313 14 OFFCURVE",
"379 14 QCURVE SMOOTH",
"436.655 14 OFFCURVE",
"481.327 53 QCURVE SMOOTH",
"564.289 125.427 OFFCURVE",
"629 253 QCURVE SMOOTH",
"687.101 369.203 OFFCURVE"
);
}
);
width = 895;
}
);
unicode = 0062;
},
{
glyphname = c;
layers = (
{
layerId = "13B3CF59-E667-4601-B808-7467DBC8B37E";
paths = (
{
closed = 1;
nodes = (
"680 863 OFFCURVE",
"680 743 OFFCURVE",
"645 743 QCURVE SMOOTH",
"616.125 743 OFFCURVE",
"543 788 OFFCURVE",
"504 809 OFFCURVE",
"442 809 OFFCURVE",
"374 742 OFFCURVE",
"317 637 OFFCURVE",
"274 507 OFFCURVE",
"259.5 443 QCURVE SMOOTH",
"230 312.793 OFFCURVE",
"230 201 OFFCURVE",
"244 136 OFFCURVE",
"259.5 110.5 QCURVE SMOOTH",
"293.843 54 OFFCURVE",
"363 54 QCURVE SMOOTH",
"417.684 54 OFFCURVE",
"512 118 OFFCURVE",
"566 161 OFFCURVE",
"592 178 QCURVE",
"613 152 LINE",
"521.188 60.188 OFFCURVE",
"473.094 31.094 QCURVE SMOOTH",
"377.061 -27 OFFCURVE",
"276 -27 QCURVE SMOOTH",
"77 -27 OFFCURVE",
"77 192 QCURVE SMOOTH",
"77 485.6 OFFCURVE",
"247 701.5 QCURVE SMOOTH",
"347.324 828.911 OFFCURVE",
"468 878 QCURVE SMOOTH",
"527 902 OFFCURVE",
"633 902 OFFCURVE"
);
}
);
width = 680;
}
);
unicode = 0063;
},
